<svg xmlns="http://www.w3.org/2000/svg" width="60" height="60" viewBox="0 0 60 60">
    <g fill="none" fill-rule="evenodd">
        <g fill="#E5712A">
            <g>
                <g>
                    <g transform="translate(-802 -165) translate(246 92) translate(524 41) translate(32 32)">
                        <rect width="60" height="60" opacity=".066" rx="6"/>
                        <g fill-rule="nonzero">
                            <path d="M11.12.82l1.83 3.57c.222.434.652.734 1.149.804l4.092.572c1.252.176 1.752 1.657.846 2.508l-2.96 2.779c-.36.338-.525.824-.44 1.301l.7 3.924c.213 1.201-1.096 2.117-2.216 1.55l-3.66-1.853c-.445-.225-.977-.225-1.422 0l-3.66 1.853c-1.12.567-2.429-.349-2.215-1.55l.699-3.924c.085-.477-.08-.963-.44-1.301l-2.96-2.78c-.906-.85-.406-2.331.846-2.507l4.092-.572c.497-.07.927-.37 1.15-.804L8.38.82c.56-1.093 2.178-1.093 2.738 0z" transform="translate(20 21)"/>
                        </g>
                    </g>
                </g>
            </g>
        </g>
    </g>
</svg>
