<svg xmlns="http://www.w3.org/2000/svg" width="13" height="13" viewBox="0 0 13 13">
    <g fill="none" fill-rule="evenodd">
        <g>
            <g>
                <g>
                    <g transform="translate(-588 -342) translate(578 266) translate(0 66) translate(10 10)">
                        <circle cx="6.445" cy="6.445" r="6.445" fill="#0ECDD8"/>
                        <g fill="#FFF" fill-rule="nonzero">
                            <path d="M1.956 6.515v-2.24-.317c0-.25-.109-.513-.286-.69-.17-.17-.448-.297-.69-.287-.253.011-.515.094-.691.286-.176.191-.287.427-.287.691V6.515c0 .25.11.513.287.69.17.17.448.297.69.287.253-.011.515-.094.69-.287.177-.19.287-.425.287-.69zM1.956 1.01V.978C1.961.843 1.934.718 1.872.6c-.04-.12-.108-.226-.202-.314-.088-.096-.194-.163-.314-.202-.118-.062-.243-.09-.377-.084C.893.01.807.023.72.035c-.166.047-.31.13-.432.25L.134.484C.046.636.001.8.001.976v.033c-.005.135.022.26.084.376.04.12.108.226.202.314.088.096.194.163.314.202.118.062.243.09.377.085l.26-.034c.166-.048.31-.13.432-.251l.153-.197c.088-.153.133-.318.133-.494z" transform="rotate(-180 3.7 5)"/>
                        </g>
                    </g>
                </g>
            </g>
        </g>
    </g>
</svg>
