<svg xmlns="http://www.w3.org/2000/svg" width="13" height="13" viewBox="0 0 13 13">
    <g fill="none" fill-rule="evenodd">
        <g>
            <g>
                <g>
                    <g transform="translate(-588 -309) translate(578 266) translate(0 33) translate(10 10)">
                        <circle cx="6.445" cy="6.445" r="6.445" fill="#FA042D"/>
                        <path fill="#FFF" fill-rule="nonzero" d="M8.798 4.203c-.27-.27-.707-.27-.977 0L6.5 5.524 5.179 4.203c-.27-.27-.707-.27-.977 0s-.27.706 0 .976l1.322 1.322-1.322 1.321c-.27.27-.27.707 0 .977.133.132.31.201.489.201.178 0 .35-.069.488-.201L6.5 7.477 7.821 8.8c.132.132.31.201.488.201s.35-.069.489-.201c.27-.27.27-.707 0-.977L7.476 6.501l1.322-1.322c.27-.27.27-.706 0-.976z"/>
                    </g>
                </g>
            </g>
        </g>
    </g>
</svg>
