<?xml version="1.0" encoding="UTF-8"?>
<svg width="20px" height="20px" viewBox="0 0 20 20" version="1.1" xmlns="http://www.w3.org/2000/svg" xmlns:xlink="http://www.w3.org/1999/xlink">
    <title>Close</title>
    <g id="Assets" stroke="none" stroke-width="1" fill="none" fill-rule="evenodd">
        <g id="Artboard" transform="translate(-221.000000, -641.000000)">
            <g id="Group-6-Copy" transform="translate(221.000000, 641.000000)">
                <circle id="selector-active" fill="#FA042D" cx="9.91470722" cy="9.91470722" r="9.91470722"></circle>
                <path d="M5.27,13.73 C5.45,13.91 5.63,14 5.9,14 C6.17,14 6.35,13.91 6.53,13.73 L9.5,10.76 L12.47,13.73 C12.65,13.91 12.92,14 13.1,14 C13.28,14 13.55,13.91 13.73,13.73 C14.09,13.37 14.09,12.83 13.73,12.47 L10.76,9.5 L13.73,6.53 C14.09,6.17 14.09,5.63 13.73,5.27 C13.37,4.91 12.83,4.91 12.47,5.27 L9.5,8.24 L6.53,5.27 C6.17,4.91 5.63,4.91 5.27,5.27 C4.91,5.63 4.91,6.17 5.27,6.53 L8.24,9.5 L5.27,12.47 C4.91,12.83 4.91,13.37 5.27,13.73 Z" id="Path" fill="#FFFFFF" fill-rule="nonzero"></path>
            </g>
        </g>
    </g>
</svg>