<svg xmlns="http://www.w3.org/2000/svg" width="60" height="60" viewBox="0 0 60 60">
    <g fill="none" fill-rule="evenodd">
        <rect width="60" height="60" fill="#F9CE23" opacity=".1" rx="6"/>
        <path fill="#FDCC0C" fill-rule="nonzero" d="M30.51 19c-.781 0-1.574.294-2.17.875l-4.246 4.138C23.35 24.739 23 25.695 23 26.648v13.279C23 41.07 23.934 42 25.104 42h10.792c1.17 0 2.104-.93 2.104-2.073V26.648c0-.953-.349-1.909-1.094-2.635l-4.246-4.138c-.596-.58-1.37-.875-2.15-.875zm0 3.06c.819 0 1.48.646 1.48 1.446 0 .8-.661 1.447-1.48 1.447-.82 0-1.491-.647-1.491-1.447s.671-1.447 1.49-1.447zm-3.925 7.02h7.849c.333 0 .604.265.604.59 0 .326-.27.59-.604.59h-7.85c-.333 0-.603-.264-.603-.59 0-.325.27-.59.604-.59zm0 2.36h7.849c.333 0 .604.264.604.59 0 .325-.27.59-.604.59h-7.85c-.333 0-.603-.265-.603-.59 0-.326.27-.59.604-.59zm0 2.359h7.849c.333 0 .604.264.604.59 0 .325-.27.59-.604.59h-7.85c-.333 0-.603-.265-.603-.59 0-.326.27-.59.604-.59zm0 2.359h7.849c.333 0 .604.264.604.59 0 .325-.27.59-.604.59h-7.85c-.333 0-.603-.265-.603-.59 0-.326.27-.59.604-.59z"/>
    </g>
</svg>
