<svg width="21" height="21" viewBox="0 0 21 21" fill="none" xmlns="http://www.w3.org/2000/svg">
    <g opacity=".7" fill="#637280">
        <path fill-rule="evenodd" clip-rule="evenodd" d="M1 2.34C1 1.603 1.604 1 2.34 1h16.099c.735 0 1.34.604 1.34 1.34v10.732c0 .736-.605 1.34-1.34 1.34h-16.1c-.735 0-1.339-.604-1.339-1.34V2.34zm17.439-.442h-16.1a.438.438 0 0 0-.448.442v10.733c0 .252.196.449.448.449h16.1a.438.438 0 0 0 .442-.449V2.34a.432.432 0 0 0-.442-.442zM3.23 2.781a.447.447 0 0 0-.442.456v8.945a.447.447 0 0 0 .449.441H17.54a.447.447 0 1 0 0-.89H3.68V3.237a.447.447 0 0 0-.449-.456zM15.435 3.82a.447.447 0 0 1 .31-.14.447.447 0 0 1 .323.766l-2.68 2.686a.447.447 0 0 1-.632 0l-1.427-1.425-2.37 3.161a.447.447 0 0 1-.672.053L6.88 7.515 5.395 9.747a.448.448 0 1 1-.746-.496l1.79-2.686a.447.447 0 0 1 .686-.067L8.55 7.925l2.377-3.168a.447.447 0 0 1 .673-.047l1.472 1.472 2.363-2.362zM8.596 16.203c-.596 0-1.138.288-1.543.693-.406.406-.687.95-.687 1.546v.89c0 .246.196.446.442.45h7.155a.447.447 0 0 0 .448-.45v-.89c0-.596-.287-1.14-.693-1.546-.405-.405-.947-.693-1.543-.693H8.596zm3.579.89H8.596c-.298 0-.645.158-.91.423s-.43.62-.43.919v.449h6.258v-.45c0-.297-.158-.653-.423-.918s-.619-.422-.917-.422z"/>
        <path d="M1 2.34H.75 1zm18.778 0h.25-.25zm0 10.732h.25-.25zM1 13.072H.75 1zM1.89 2.34h-.25.25zm0 10.733h-.25.25zm16.99 0h.25-.25zm0-10.733h.25-.25zm-15.965.577-.18-.174.18.174zm.316-.136-.001-.25h-.002l.003.25zm-.442.456h.25v-.005l-.25.005zm0 8.945h-.25v.003l.25-.003zm.449.441v-.25h-.001l.001.25zm14.302 0 .023-.248-.011-.002h-.012v.25zm0-.89v.25h.012l.01-.001-.022-.25zm-13.86 0h-.25v.25h.25v-.25zm0-8.496-.25-.005v.005h.25zm-.129-.322-.178.175.178-.175zm12.194.765.008.25.242-.008V3.68h-.25zm-.31.14.176.176.005-.005-.181-.171zm.31-.14-.005-.25-.245.006v.244h.25zm.323.766-.174-.178-.002.002.176.176zm-2.68 2.686.177.177-.177-.177zm-.632 0 .176-.177-.176.177zm-1.427-1.425.177-.177-.204-.203-.173.23.2.15zm-2.37 3.161-.2-.15v.001l.2.15zm-.324.18.02.249-.02-.25zm-.348-.127-.177.176.002.002.175-.178zM6.88 7.515l.177-.177-.216-.216-.17.254.209.139zM5.395 9.747l-.208-.139.208.139zm-.62.124-.14.209.14-.209zm-.126-.62-.208-.139.208.139zm1.79-2.686-.207-.14v.001l.207.139zm.328-.195-.024-.249.024.249zm.358.128.177-.176-.177.176zM8.55 7.925l-.176.177.203.204.173-.23-.2-.15zm2.377-3.168-.2-.15.2.15zm.326-.176-.018-.25.018.25zm.347.13.176-.178-.176.177zm1.472 1.471-.177.177.177.177.177-.177-.177-.177zM7.054 16.896l-.177-.176.176.176zm-.687 2.436.25.002v-.002h-.25zm.442.45-.003.25h.003v-.25zm7.155 0v-.25.25zm.318-.132.176.177-.176-.177zm.13-.317h-.25.25zm-.693-2.437-.177.177.177-.177zm-6.032.62-.176-.176.176.176zm-.43 1.368h-.25v.25h.25v-.25zm6.258 0v.25h.25v-.25h-.25zm-.423-1.368-.177.177.177-.177zM2.34.75C1.466.75.75 1.466.75 2.34h.5c0-.598.492-1.09 1.09-1.09v-.5zm16.1 0h-16.1v.5h16.1v-.5zm1.59 1.59c0-.874-.717-1.59-1.59-1.59v.5c.597 0 1.09.492 1.09 1.09h.5zm0 10.732V2.34h-.5v10.733h.5zm-1.59 1.59c.873 0 1.59-.716 1.59-1.59h-.5c0 .598-.493 1.09-1.09 1.09v.5zm-16.1 0h16.1v-.5h-16.1v.5zM.75 13.072c0 .874.716 1.59 1.59 1.59v-.5c-.598 0-1.09-.492-1.09-1.09h-.5zm0-10.733v10.733h.5V2.34h-.5zm1.59-.19h16.099v-.5h-16.1v.5zm-.2.191c0-.109.08-.192.2-.192v-.5a.688.688 0 0 0-.7.692h.5zm0 10.733V2.34h-.5v10.733h.5zm.2.199a.194.194 0 0 1-.2-.199h-.5c0 .39.31.699.7.699v-.5zm16.099 0h-16.1v.5h16.1v-.5zm.192-.199c0 .12-.083.199-.192.199v.5a.688.688 0 0 0 .692-.699h-.5zm0-10.733v10.733h.5V2.34h-.5zm-.192-.192c.114 0 .192.078.192.192h.5a.682.682 0 0 0-.692-.692v.5zm-15.344.943a.197.197 0 0 1 .139-.06l-.006-.5a.697.697 0 0 0-.492.212l.359.348zm-.056.141a.197.197 0 0 1 .056-.14l-.36-.349a.697.697 0 0 0-.196.499l.5-.01zm0 8.95V3.237h-.5v8.945h.5zm.198.191a.197.197 0 0 1-.198-.194l-.5.006c.005.383.317.69.7.688l-.002-.5zm14.303 0H3.238v.5H17.54v-.5zm.208-.091a.197.197 0 0 1-.185.092l-.045.498a.697.697 0 0 0 .655-.327l-.425-.263zm0-.207c.04.063.04.143 0 .207l.425.263a.697.697 0 0 0 0-.733l-.425.263zm-.185-.093a.197.197 0 0 1 .185.093l.425-.263a.697.697 0 0 0-.655-.328l.045.498zm-13.883 0h13.86v-.5H3.68v.5zm-.25-8.745v8.496h.5V3.237h-.5zm-.057-.147c.037.038.058.09.057.142l.5.01a.697.697 0 0 0-.2-.503l-.357.351zm-.141-.059c.053 0 .104.021.141.06l.356-.352a.697.697 0 0 0-.499-.208l.002.5zm12.505.399a.697.697 0 0 0-.484.218l.363.343a.197.197 0 0 1 .137-.061l-.015-.5zm-.242.25h.5-.5zm.903.176a.697.697 0 0 0-.659-.426l.012.5a.197.197 0 0 1 .186.12l.461-.194zm-.155.77a.697.697 0 0 0 .155-.77l-.46.194a.197.197 0 0 1-.044.218l.35.357zm-2.678 2.683 2.68-2.686-.354-.353-2.68 2.686.354.353zm-.986 0a.697.697 0 0 0 .986 0l-.354-.354a.197.197 0 0 1-.279 0l-.353.354zm-1.427-1.425L12.58 7.31l.353-.354-1.426-1.425-.354.354zM9.16 9.018l2.37-3.16-.4-.3-2.37 3.16.4.3zm-.505.279a.697.697 0 0 0 .506-.28l-.402-.298a.197.197 0 0 1-.143.08l.04.498zm-.542-.198a.697.697 0 0 0 .542.198l-.039-.499a.197.197 0 0 1-.153-.056l-.35.357zM6.704 7.692 8.11 9.097l.354-.353-1.406-1.406-.354.354zM5.603 9.885l1.486-2.232-.416-.277-1.486 2.232.416.277zm-.967.195c.32.213.754.126.967-.195l-.416-.277a.198.198 0 0 1-.274.055l-.277.417zm-.195-.968a.698.698 0 0 0 .195.968l.277-.417a.198.198 0 0 1-.056-.274l-.416-.277zm1.79-2.686-1.79 2.686.416.277 1.79-2.686-.416-.277zm.512-.305a.697.697 0 0 0-.511.304l.414.28a.197.197 0 0 1 .145-.086l-.048-.498zm.559.2a.697.697 0 0 0-.56-.2l.049.498a.197.197 0 0 1 .158.056l.353-.354zm1.425 1.427L7.302 6.322l-.353.353 1.425 1.427.353-.354zm2-3.14L8.351 7.774l.4.3 2.376-3.168-.4-.3zm.508-.277a.697.697 0 0 0-.507.276l.399.301a.197.197 0 0 1 .143-.078l-.035-.499zm.541.202a.697.697 0 0 0-.54-.202l.034.5a.197.197 0 0 1 .153.056l.353-.354zm1.473 1.473-1.473-1.473-.353.354 1.472 1.472.354-.353zm2.009-2.363-2.363 2.363.354.353 2.362-2.363-.353-.353zM7.23 17.073c.372-.371.853-.62 1.367-.62v-.5c-.678 0-1.28.327-1.72.767l.353.353zm-.613 1.369c0-.516.244-1 .613-1.369l-.353-.353c-.442.441-.76 1.046-.76 1.722h.5zm0 .89v-.89h-.5v.89h.5zm.195.2a.197.197 0 0 1-.195-.198l-.5-.002a.697.697 0 0 0 .69.7l.005-.5zm7.152 0H6.809v.5h7.155v-.5zm.14-.058a.197.197 0 0 1-.14.057l-.001.5a.697.697 0 0 0 .495-.204l-.353-.353zm.059-.14c0 .052-.021.102-.058.14l.353.353a.697.697 0 0 0 .204-.495l-.5.002zm0-.892v.89h.5v-.89h-.5zm-.62-1.369c.37.371.62.855.62 1.369h.5c0-.678-.327-1.282-.767-1.722l-.354.353zm-1.367-.62c.513 0 .995.249 1.366.62l.354-.353c-.44-.44-1.042-.767-1.72-.767v.5zm-3.579 0h3.579v-.5H8.596v.5zm0 .89h3.579v-.5H8.596v.5zm-.733.35c.229-.229.515-.35.733-.35v-.5c-.378 0-.785.195-1.086.497l.353.353zm-.356.742c0-.217.126-.512.356-.742l-.353-.353c-.3.3-.503.716-.503 1.095h.5zm0 .449v-.45h-.5v.45h.5zm6.007-.25H7.258v.5h6.257v-.5zm-.25-.2v.45h.5v-.45h-.5zm-.35-.74c.228.226.35.521.35.74h.5c0-.375-.193-.792-.496-1.094l-.354.353zm-.74-.35c.22 0 .513.122.74.35l.354-.354c-.302-.303-.717-.496-1.094-.496v.5z"/>
    </g>
</svg>
