<svg xmlns="http://www.w3.org/2000/svg" width="40" height="40" viewBox="0 0 40 40">
    <g fill="none" fill-rule="evenodd">
        <circle cx="20" cy="20" r="20" fill="#DC395F"/>
        <path fill="#FFF" fill-rule="nonzero" d="M20.5 12c-1.38.002-2.498 1.17-2.5 2.613v5.466c0 .934.477 1.797 1.25 2.263.774.467 1.727.467 2.5 0 .774-.466 1.25-1.33 1.25-2.263v-5.463c0-1.444-1.12-2.615-2.5-2.616zm.814 8.079c0 .47-.365.852-.815.852-.45 0-.815-.382-.815-.852v-5.463c0-.47.365-.852.815-.852.45 0 .815.382.815.852v5.463zm-.815 3.694c-1.01 0-1.922.637-2.309 1.614-.387.976-.173 2.1.542 2.848.715.747 1.79.97 2.724.566.934-.404 1.543-1.357 1.543-2.414-.002-1.443-1.12-2.612-2.5-2.614zm0 3.466c-.45 0-.814-.381-.814-.851s.365-.851.814-.851c.45 0 .815.38.815.85-.002.47-.366.85-.815.85v.002z"/>
    </g>
</svg>
