<?xml version="1.0" encoding="UTF-8"?>
<svg width="13px" height="12px" viewBox="0 0 13 12" version="1.1" xmlns="http://www.w3.org/2000/svg" xmlns:xlink="http://www.w3.org/1999/xlink">
    <title>Export</title>
    <g id="Assets" stroke="none" stroke-width="1" fill="none" fill-rule="evenodd">
        <g id="Artboard" transform="translate(-208.000000, -514.000000)" fill="#E5712A" stroke="#E5712A" stroke-width="0.5">
            <g id="Export" transform="translate(209.000000, 515.000000)">
                <path d="M5.95127198,7.46327714 C5.94748534,7.46725311 5.94142672,7.46554912 5.93745075,7.46914643 C5.87269921,7.52992199 5.78731049,7.56740972 5.69245517,7.57043904 C5.69150851,7.57043904 5.69075118,7.57043904 5.68999386,7.5708177 C5.58832259,7.57384701 5.48646198,7.54109258 5.40883587,7.46327714 L3.13893482,4.81528013 C2.98974122,4.66627587 2.98974122,4.42393094 3.13893482,4.27454801 C3.28831775,4.12554374 3.53009468,4.12554374 3.67928828,4.27454801 L5.30129531,6.16729977 L5.30129531,0.378474619 C5.30129531,0.16964145 5.47093676,3.94430453e-31 5.67995926,3.94430453e-31 C5.88917109,3.94430453e-31 6.05881254,0.16964145 6.05881254,0.378474619 L6.05881254,6.16729977 L7.68081958,4.27454801 C7.83001317,4.12554374 8.07197944,4.12554374 8.22117304,4.27454801 C8.37036663,4.42393094 8.37036663,4.66627587 8.22117304,4.81528013 L5.95127198,7.46327714 Z" id="Fill-1" transform="translate(5.680054, 3.785505) rotate(-180.000000) translate(-5.680054, -3.785505) "></path>
                <path d="M10.9812546,10.3125749 L0.378663951,10.3125749 C0.169452118,10.3125749 -2.89190876e-13,10.1435015 -2.89190876e-13,9.93391098 L-2.89190876e-13,6.90478871 C-2.89190876e-13,6.69595554 0.169452118,6.52612476 0.378663951,6.52612476 C0.587686452,6.52612476 0.757327902,6.69595554 0.757327902,6.90478871 L0.757327902,9.55524703 L10.6025906,9.55524703 L10.6025906,6.90478871 C10.6025906,6.69595554 10.7722321,6.52612476 10.9812546,6.52612476 C11.1902771,6.52612476 11.3599185,6.69595554 11.3599185,6.90478871 L11.3599185,9.93391098 C11.3599185,10.1435015 11.1902771,10.3125749 10.9812546,10.3125749 L10.9812546,10.3125749 Z" id="Path"></path>
            </g>
        </g>
    </g>
</svg>