<svg xmlns="http://www.w3.org/2000/svg" width="18" height="18" viewBox="0 0 18 18">
    <g fill="none" fill-rule="evenodd">
        <g fill="#E5712A" fill-rule="nonzero">
            <path d="M272 1323c-4.97 0-9 4.03-9 9s4.03 9 9 9 9-4.03 9-9-4.03-9-9-9zm-1.04 12.885v-4.12c0-.575.466-1.04 1.04-1.04.574 0 1.04.465 1.04 1.04v4.12c0 .574-.466 1.04-1.04 1.04-.574 0-1.04-.466-1.04-1.04zm1.04-6.295c-.506 0-.961-.305-1.155-.772-.193-.467-.086-1.004.271-1.362.358-.357.895-.464 1.362-.27.467.193.772.648.772 1.154 0 .69-.56 1.25-1.25 1.25z" transform="translate(-263 -1323)"/>
        </g>
    </g>
</svg>
