<svg xmlns="http://www.w3.org/2000/svg" width="17" height="17" viewBox="0 0 17 17">
    <g fill="none" fill-rule="evenodd">
        <g fill="#FFF" fill-rule="nonzero">
            <g>
                <g>
                    <path d="M8.295 16.59C3.714 16.59 0 12.876 0 8.295 0 3.714 3.714 0 8.295 0c4.581 0 8.295 3.714 8.295 8.295 0 4.581-3.714 8.295-8.295 8.295zm0-1.58c3.709 0 6.715-3.006 6.715-6.715S12.004 1.58 8.295 1.58 1.58 4.586 1.58 8.295s3.006 6.715 6.715 6.715zm1-7.855v5.174c0 .359-.075.63-.225.813-.151.184-.342.276-.573.276-.232 0-.42-.094-.565-.282-.144-.188-.217-.457-.217-.807V7.208c0-.355.073-.621.217-.8.145-.18.333-.27.565-.27.231 0 .422.09.573.27.15.179.225.428.225.747zm-.885-1.85c-.25 0-.462-.076-.64-.229-.176-.153-.265-.369-.265-.649 0-.253.09-.462.272-.626.182-.164.393-.246.633-.246.232 0 .437.074.616.223.18.149.27.365.27.65 0 .275-.088.49-.263.645-.175.155-.383.233-.623.233z" transform="translate(-836 -260) translate(812 244) translate(24 16)"/>
                </g>
            </g>
        </g>
    </g>
</svg>
