<svg xmlns="http://www.w3.org/2000/svg" xmlns:xlink="http://www.w3.org/1999/xlink" width="141" height="46" viewBox="0 0 141 46">
    <defs>
        <filter id="a" width="315%" height="315%" x="-107.5%" y="-107.5%" filterUnits="objectBoundingBox">
            <feOffset dy="3" in="SourceAlpha" result="shadowOffsetOuter1"/>
            <feGaussianBlur in="shadowOffsetOuter1" result="shadowBlurOuter1" stdDeviation="4"/>
            <feColorMatrix in="shadowBlurOuter1" result="shadowMatrixOuter1" values="0 0 0 0 0.439215686 0 0 0 0 0.470588235 0 0 0 0 0.529411765 0 0 0 0.24 0"/>
            <feMerge>
                <feMergeNode in="shadowMatrixOuter1"/>
                <feMergeNode in="SourceGraphic"/>
            </feMerge>
        </filter>
        <circle id="b" cx="10" cy="10" r="3"/>
    </defs>
    <g fill="none" fill-rule="evenodd">
        <path stroke="#FFE700" stroke-linecap="round" stroke-width="4" d="M2 41.092c2.86 1.646 10.417 4.004 17.014 1.546C25.612 40.18 30.602 30.65 36.04 23.765c4.213-5.333 7.26-9.878 17.11-9.61 5.611.154 10.88 7.407 16.857 13.462 4.516 4.573 9.436 8.462 15.216 8.09a4.718 4.718 0 0 0 1.667-.427c5.515-2.514 10.634-16.572 17.161-16.572 6.527 0 8.974 3.552 17.075 3.552 10.029 0 8.85-14.916 17.073-15.224"/>
        <g filter="url(#a)" transform="translate(39 5)">
            <circle cx="10" cy="10" r="10" fill="#FFF"/>
            <use fill="#FFE700" xlink:href="#b"/>
        </g>
    </g>
</svg>
