<svg xmlns="http://www.w3.org/2000/svg" width="60" height="60" viewBox="0 0 60 60">
    <g fill="#0054FE" fill-rule="evenodd">
        <rect width="60" height="60" opacity=".066" rx="6"/>
        <path fill-rule="nonzero" d="M41.192 27.398h-1.845c-.227-.783-.53-1.516-.91-2.198l1.315-1.314c.328-.328.328-.833 0-1.162l-2.501-2.5c-.329-.33-.834-.33-1.163 0l-1.313 1.313c-.682-.38-1.415-.682-2.198-.91v-1.819c0-.454-.354-.808-.809-.808h-3.536c-.455 0-.809.354-.809.808v1.845c-.783.227-1.516.53-2.198.91l-1.313-1.315c-.329-.328-.834-.328-1.163 0l-2.5 2.501c-.329.329-.329.834 0 1.163l1.313 1.313c-.379.682-.682 1.415-.91 2.198h-1.844c-.454 0-.808.354-.808.809v3.536c0 .455.354.809.808.809h1.845c.227.783.53 1.516.91 2.198l-1.315 1.313c-.328.329-.328.834 0 1.163l2.501 2.5c.329.329.834.329 1.163 0l1.313-1.313c.682.379 1.415.682 2.198.91v1.844c0 .454.354.808.809.808h3.536c.455 0 .809-.354.809-.808v-1.845c.783-.227 1.516-.53 2.198-.91l1.313 1.315c.329.328.834.328 1.163 0l2.5-2.501c.329-.329.329-.834 0-1.163l-1.313-1.313c.379-.682.682-1.415.91-2.198h1.844c.454 0 .808-.354.808-.809v-3.536c0-.455-.354-.834-.808-.834zm-6.847 1.086l-4.648 4.649c-.202.202-.505.328-.809.328-.303 0-.58-.126-.808-.328l-2.425-2.426c-.455-.454-.455-1.162 0-1.616.454-.43 1.162-.43 1.617 0l1.642 1.642 3.84-3.866c.454-.454 1.162-.454 1.591 0 .455.455.455 1.162 0 1.617z"/>
    </g>
</svg>
