<svg width="232" height="42" viewBox="0 0 232 42" fill="none" xmlns="http://www.w3.org/2000/svg">
    <g clip-path="url(#24usxqm93a)">
        <path d="M70.064 36.275a1.785 1.785 0 0 1-1.38-.595 1.916 1.916 0 0 1-.542-1.333V6.173a3.416 3.416 0 0 1 1.083-2.755 3.91 3.91 0 0 1 2.589-.917h9.338c2.61-.038 5.154.817 7.213 2.422 2.083 1.611 3.126 3.918 3.13 6.922 0 3.174-1.016 5.661-3.047 7.463a10.505 10.505 0 0 1-7.213 2.708h-6.671c-1.613 0-2.417.976-2.417 2.916v9.456a1.838 1.838 0 0 1-.595 1.333 2.053 2.053 0 0 1-1.488.554zm4.5-17.425h5.671a9.021 9.021 0 0 0 3.339-.667 6.159 6.159 0 0 0 3.916-6.172c0-2.114-.708-3.644-2.125-4.588a8.44 8.44 0 0 0-4.797-1.416h-6.004c-1.667 0-2.5.972-2.5 2.916v7.016a4.166 4.166 0 0 0 .458 2.214c.304.458.988.697 2.041.697zM96.493 5.752a2.886 2.886 0 0 1-2.124-.791 2.773 2.773 0 0 1-.792-2.048A2.923 2.923 0 0 1 98.61.763a2.922 2.922 0 0 1 .806 2.15 2.773 2.773 0 0 1-.797 2.048 2.893 2.893 0 0 1-2.125.791zm.25 30.518a1.85 1.85 0 0 1-1.916-1.916V13.09a1.626 1.626 0 0 1 .595-1.375c.377-.305.848-.47 1.333-.464.458.004.9.169 1.25.464a1.624 1.624 0 0 1 .595 1.375v21.294c.018.506-.161.998-.5 1.375a1.726 1.726 0 0 1-1.357.511zM104.666 36.273a1.857 1.857 0 0 1-1.353-.537 1.86 1.86 0 0 1-.546-1.35V13.558a1.635 1.635 0 0 1 .595-1.375 2.07 2.07 0 0 1 1.333-.458c.458.002.9.164 1.25.458a1.634 1.634 0 0 1 .595 1.375v1.75a8.792 8.792 0 0 1 3.625-2.976 10.91 10.91 0 0 1 4.546-1.006 9.37 9.37 0 0 1 4.958 1.34 8.412 8.412 0 0 1 3.38 4.082 8.522 8.522 0 0 1 4.178-4.38 12.632 12.632 0 0 1 4.957-1.13 8.932 8.932 0 0 1 6.63 2.755c1.809 1.833 2.714 4.723 2.714 8.67v11.725c.018.507-.163 1-.506 1.374a1.72 1.72 0 0 1-1.333.542 1.854 1.854 0 0 1-1.789-1.172 1.855 1.855 0 0 1-.127-.744V22.96c0-2.833-.542-4.89-1.625-6.171a5.554 5.554 0 0 0-4.463-1.917 6.853 6.853 0 0 0-4.5 1.375 7.921 7.921 0 0 0-2.422 3.38 11.563 11.563 0 0 0-.75 4.047v10.713a1.95 1.95 0 0 1-.5 1.374 1.722 1.722 0 0 1-1.333.542 1.847 1.847 0 0 1-1.787-1.173 1.87 1.87 0 0 1-.129-.743V23.014c0-2.833-.544-4.904-1.631-6.213a5.484 5.484 0 0 0-4.457-1.958 6.866 6.866 0 0 0-4.505 1.374 7.853 7.853 0 0 0-2.417 3.422 11.672 11.672 0 0 0-.749 4.041v10.707c.018.507-.164 1-.506 1.374a1.721 1.721 0 0 1-1.333.512zM156.871 36.278c-3.892 0-7.006-1.153-9.343-3.458-2.337-2.305-3.504-5.489-3.5-9.552a12.297 12.297 0 0 1 1.5-6.046 11.485 11.485 0 0 1 4.208-4.333 12.182 12.182 0 0 1 6.38-1.63c2.226-.087 4.429.48 6.338 1.63a10.493 10.493 0 0 1 4.921 8.713 4.03 4.03 0 0 1-.625 2.333 2.032 2.032 0 0 1-1.785.916h-16.021a2.153 2.153 0 0 0-.708.084c-.137.06-.208.25-.208.595.04 1.09.355 2.153.916 3.089a8.545 8.545 0 0 0 2.631 2.874 7.676 7.676 0 0 0 3.957 1.38c1.604.11 3.215-.06 4.761-.5a12.33 12.33 0 0 0 4.166-2.088c.257-.215.582-.333.917-.333a1.787 1.787 0 0 1 1.666 1.75 2.158 2.158 0 0 1-.75 1.505 13.429 13.429 0 0 1-4.505 2.333c-1.594.485-3.25.733-4.916.738zm5.249-14.343a1.091 1.091 0 0 0 1-.541c.23-.42.29-.912.167-1.375a5.952 5.952 0 0 0-2.25-3.88 7.33 7.33 0 0 0-4.921-1.708 7.738 7.738 0 0 0-3.958 1.041 8.773 8.773 0 0 0-2.881 2.63 5.826 5.826 0 0 0-1.083 3.333c0 .28.25.417.75.417l13.176.083zM174.046 23.677V34.39c.018.505-.162.998-.5 1.375a1.723 1.723 0 0 1-1.333.541 1.865 1.865 0 0 1-1.381-.541 1.887 1.887 0 0 1-.541-1.375V13.56a1.647 1.647 0 0 1 .595-1.375c.38-.303.853-.465 1.339-.458.457.004.898.166 1.25.458a1.647 1.647 0 0 1 .595 1.375v2a6.635 6.635 0 0 1 3.332-3.166 10.488 10.488 0 0 1 4.422-1.09 7.825 7.825 0 0 1 2.5.423c.502.137.929.466 1.19.917a1.854 1.854 0 0 1 .125 1.5 1.784 1.784 0 0 1-2.256 1.333 9.848 9.848 0 0 0-2.499-.417 5.885 5.885 0 0 0-5.047 2.458 10.28 10.28 0 0 0-1.791 6.16zM197.061 36.27a11.94 11.94 0 0 1-6.422-1.708 11.74 11.74 0 0 1-4.255-4.588 13.583 13.583 0 0 1-1.488-6.38 12.502 12.502 0 0 1 1.625-6.38 11.907 11.907 0 0 1 4.38-4.374 12.114 12.114 0 0 1 6.172-1.589c3.392 0 6.116.752 8.171 2.256a1.689 1.689 0 0 1 .75 1.5 1.47 1.47 0 0 1-1.667 1.666 2.385 2.385 0 0 1-.416-.042 2.545 2.545 0 0 1-.5-.125 21.915 21.915 0 0 0-2.631-1.333 8.591 8.591 0 0 0-3.457-.666 8.119 8.119 0 0 0-6.267 2.618 9.302 9.302 0 0 0-2.416 6.547 8.852 8.852 0 0 0 2.291 6.296 9.206 9.206 0 0 0 5.88 2.88 9.988 9.988 0 0 0 4.374-.839 11.904 11.904 0 0 0 3.571-2.25c.3-.262.684-.41 1.083-.416a1.43 1.43 0 0 1 1.125.542c.292.328.454.75.458 1.19a2.704 2.704 0 0 1-.75 1.589 14.02 14.02 0 0 1-4.166 2.625 14.278 14.278 0 0 1-5.445.981zM221.496 36.278c-3.892 0-7.006-1.153-9.343-3.458-2.337-2.305-3.504-5.489-3.5-9.552a12.297 12.297 0 0 1 1.5-6.046 11.485 11.485 0 0 1 4.208-4.333 12.181 12.181 0 0 1 6.379-1.63c2.227-.087 4.43.48 6.339 1.63A10.493 10.493 0 0 1 232 21.602a4.034 4.034 0 0 1-.595 2.333 2.035 2.035 0 0 1-1.785.916h-16.051a2.153 2.153 0 0 0-.708.084c-.137.06-.208.25-.208.595.04 1.09.355 2.153.916 3.089a8.545 8.545 0 0 0 2.631 2.874 7.676 7.676 0 0 0 3.957 1.38c1.604.11 3.215-.06 4.761-.5a12.33 12.33 0 0 0 4.166-2.088c.257-.215.582-.333.917-.333a1.787 1.787 0 0 1 1.666 1.75 2.158 2.158 0 0 1-.75 1.505 13.429 13.429 0 0 1-4.505 2.333c-1.594.485-3.25.733-4.916.738zm5.249-14.343a1.091 1.091 0 0 0 1-.541c.233-.42.293-.913.167-1.375a5.952 5.952 0 0 0-2.25-3.88 7.331 7.331 0 0 0-4.922-1.708 7.737 7.737 0 0 0-3.957 1.041 8.773 8.773 0 0 0-2.881 2.63 5.826 5.826 0 0 0-1.083 3.333c0 .28.25.417.75.417l13.176.083z" fill="#637280"/>
        <path fill-rule="evenodd" clip-rule="evenodd" d="M58.812 33.27a2.166 2.166 0 1 0-4.244.871 2.166 2.166 0 0 0 4.244-.872zM45.29 33.786a2.173 2.173 0 1 0 .862 4.26 2.173 2.173 0 0 0-.861-4.26zM37.256 28.064l17.532-3.571a2.196 2.196 0 0 0-.88-4.297l-27.466 5.6a2.192 2.192 0 0 0 .875 4.297l5.636-1.148.37 1.785a5.357 5.357 0 1 1-10.499 2.142L17.158 5.074V4.96a2.136 2.136 0 0 0-.797-1.262 2.22 2.22 0 0 0-1.369-.488 2.047 2.047 0 0 0-.464.048L1.786 5.818A2.184 2.184 0 0 0 .048 8.383a2.226 2.226 0 0 0 2.63 1.702l10.594-2.113 5.25 25.781a9.746 9.746 0 0 0 19.097-3.892l-.363-1.797z" fill="#0E90E1"/>
        <path fill-rule="evenodd" clip-rule="evenodd" d="m23.675 12.236 27.471-5.594a2.196 2.196 0 0 0-.875-4.303L22.8 7.939a2.192 2.192 0 1 0 .875 4.297z" fill="#0E90E1"/>
    </g>
    <defs>
        <clipPath id="24usxqm93a">
            <path fill="#fff" d="M0 0h232v41.558H0z"/>
        </clipPath>
    </defs>
</svg>
