<svg xmlns="http://www.w3.org/2000/svg" width="44" height="49" viewBox="0 0 44 49">
    <path fill="#0C0053" stroke="#FFF" stroke-width=".5" d="M22.622 26.774c7-.303 12.6-5.989 12.6-12.887C35.222 6.761 29.312 1 22 1 14.689 1 8.778 6.761 8.778 13.887c0 6.898 5.6 12.508 12.6 12.887C9.867 27.154 1 36.098 1 48h3.111c0-10.613 7.7-18.194 17.889-18.194S39.889 37.387 39.889 48H43c0-11.902-8.867-20.847-20.378-21.226zM11.89 13.963c0-5.458 4.511-9.855 10.111-9.855 5.6 0 10.111 4.397 10.111 9.855S27.6 23.818 22 23.818c-5.6 0-10.111-4.473-10.111-9.855z"/>
</svg>
