<svg width="20" height="20" viewBox="0 0 20 20" fill="none" xmlns="http://www.w3.org/2000/svg">
    <g opacity=".7">
        <path d="m4.95 17.432-.318-.224-.384.049-3.11.393.93-2.997.114-.371-.166-.352A9.188 9.188 0 0 1 1.142 10c0-4.997 3.934-9 8.73-9 4.797 0 8.732 4.004 8.732 9s-3.934 9-8.731 9a8.506 8.506 0 0 1-4.924-1.568z" stroke="#637280" stroke-width="2"/>
        <path d="m14.378 8.393-2.244-.788-.863-2.225c-.164-.425-.558-.506-.88-.18L8.68 6.912l-2.27-.154c-.462-.033-.702.285-.537.709l.962 2.494-.727 2.24c-.142.433.115.738.574.68l2.651-.32 2.299 1.337c.397.232.757.055.803-.397l.247-2.34 1.897-1.907c.325-.324.234-.71-.202-.86z" fill="#637280"/>
    </g>
</svg>
