<svg xmlns="http://www.w3.org/2000/svg" width="60" height="60" viewBox="0 0 60 60">
    <g fill="none" fill-rule="evenodd">
        <rect width="60" height="60" fill="#F9CE23" opacity=".102" rx="6"/>
        <g fill="#FDCC0C" fill-rule="nonzero">
            <path d="M20.619 8.776v.619c-.013.051-.03.103-.038.156-.067.451-.249.877-.527 1.238-.111.12-.143.293-.083.445.267.802.14 1.683-.344 2.377-.042.08-.06.169-.052.258.032.27.05.54.054.812-.024.626-.27 1.222-.695 1.683-.048.062-.075.138-.078.216-.003.317-.021.634-.056.949-.113.744-.551 1.399-1.196 1.787-.487.29-1.041.45-1.608.462-.542.027-1.087 0-1.631.02-.956.02-1.91-.094-2.833-.34-.852-.224-1.689-.498-2.532-.76-.643-.206-1.268-.464-1.944-.536-.584-.064-.88-.441-.877-1.052.017-2.616 0-5.235 0-7.853V9.01c.025-.383.312-.699.691-.76.209-.025.403-.119.553-.267.412-.412.81-.824 1.187-1.27.619-.732 1.237-1.484 1.844-2.229.14-.16.267-.331.381-.51.336-.568.437-1.213.56-1.857.125-.643.292-1.237.708-1.762.168-.244.454-.378.749-.353.317.013.633.054.944.124.311.084.608.216.878.391.449.319.755.8.854 1.34.24.96.195 1.968-.132 2.902-.173.464-.412.9-.633 1.352-.07.149-.126.305-.206.483h3.583c.89-.016 1.713.47 2.13 1.255.144.298.261.608.349.926zM0 8.908c.067-.229.219-.423.425-.542.124-.066.26-.105.4-.116h3.711c.49 0 .825.376.825.91v8.051c0 .477-.227.8-.635.901-.097.02-.196.027-.295.023H.928c-.406.05-.788-.204-.897-.598-.01-.012-.02-.023-.031-.033V8.908zm2.462 7.59c.22.003.434-.082.591-.237.157-.155.246-.367.246-.588-.013-.45-.375-.812-.825-.825-.451.01-.815.374-.825.825 0 .45.362.818.813.825z" transform="translate(20 20)"/>
        </g>
    </g>
</svg>
