<svg width="18" height="18" viewBox="0 0 18 18" fill="none" xmlns="http://www.w3.org/2000/svg">
    <path opacity=".7" fill-rule="evenodd" clip-rule="evenodd" d="M16.065 17.663c.427.45 1.147.45 1.598 0 .45-.45.45-1.17 0-1.62l-3.466-3.465a7.91 7.91 0 0 0 1.553-4.703C15.75 3.533 12.217 0 7.875 0 3.533 0 0 3.533 0 7.875c0 4.342 3.533 7.875 7.875 7.875 1.755 0 3.398-.563 4.703-1.553l3.487 3.466zM2.25 7.875A5.627 5.627 0 0 1 7.875 2.25 5.627 5.627 0 0 1 13.5 7.875 5.627 5.627 0 0 1 7.875 13.5 5.627 5.627 0 0 1 2.25 7.875z" fill="#637280"/>
</svg>
