<?xml version="1.0" encoding="UTF-8"?>
<svg width="16px" height="16px" viewBox="0 0 16 16" version="1.1" xmlns="http://www.w3.org/2000/svg" xmlns:xlink="http://www.w3.org/1999/xlink">
    <title>422BBB53-ECB0-4A1C-B82D-58FB4C8AE144</title>
    <g id="Requirement-24" stroke="none" stroke-width="1" fill="none" fill-rule="evenodd">
        <g id="Export-POP_UP_Error-1_31-Aug" transform="translate(-239.000000, -818.000000)" fill="#FF000C" fill-rule="nonzero">
            <g id="Group-5" transform="translate(156.000000, 320.000000)">
                <g id="Group-8-Copy-6" transform="translate(83.000000, 417.000000)">
                    <path d="M8,81 C3.58554217,81 0,84.5855422 0,89 C0,93.4144578 3.58554217,97 8,97 C12.4144578,97 16,93.4144578 16,89 C16,84.5855422 12.4144578,81 8,81 Z M8.77108434,92.5662651 C8.77108434,92.9903614 8.42409639,93.3373494 8,93.3373494 C7.57590361,93.3373494 7.22891566,92.9903614 7.22891566,92.5662651 L7.22891566,92.4891566 C7.22891566,92.0650602 7.57590361,91.7180723 8,91.7180723 C8.42409639,91.7180723 8.77108434,92.0650602 8.77108434,92.4891566 L8.77108434,92.5662651 Z M8.77108434,90.0987952 C8.77108434,90.5228916 8.42409639,90.8698795 8,90.8698795 C7.57590361,90.8698795 7.22891566,90.5228916 7.22891566,90.0987952 L7.22891566,85.3759036 C7.22891566,84.9518072 7.57590361,84.6048193 8,84.6048193 C8.42409639,84.6048193 8.77108434,84.9518072 8.77108434,85.3759036 L8.77108434,90.0987952 Z" id="Shape"></path>
                </g>
            </g>
        </g>
    </g>
</svg>