<svg width="16" height="16" viewBox="0 0 16 16" fill="none" xmlns="http://www.w3.org/2000/svg">
<path d="M8 0C3.58188 0 0 3.58188 0 8C0 12.4181 3.58188 16 8 16C12.4181 16 16 12.4181 16 8C15.9945 3.58393 12.4161 0.00545447 8 0ZM11.6364 8.72715H8.72715V11.6364C8.72715 11.8293 8.65054 12.0142 8.51417 12.1506C8.3778 12.287 8.19285 12.3636 8 12.3636C7.80715 12.3636 7.62219 12.287 7.48583 12.1506C7.34946 12.0142 7.27285 11.8293 7.27285 11.6364V8.72715H4.36357C4.17072 8.72715 3.98577 8.65054 3.8494 8.51417C3.71304 8.3778 3.63643 8.19285 3.63643 8C3.63643 7.80715 3.71304 7.62219 3.8494 7.48583C3.98577 7.34946 4.17072 7.27285 4.36357 7.27285H7.27285V4.36357C7.27285 4.17072 7.34946 3.98577 7.48583 3.8494C7.62219 3.71304 7.80715 3.63643 8 3.63643C8.19285 3.63643 8.3778 3.71304 8.51417 3.8494C8.65054 3.98577 8.72715 4.17072 8.72715 4.36357V7.27285H11.6364C11.8293 7.27285 12.0142 7.34946 12.1506 7.48583C12.287 7.62219 12.3636 7.80715 12.3636 8C12.3636 8.19285 12.287 8.3778 12.1506 8.51417C12.0142 8.65054 11.8293 8.72715 11.6364 8.72715V8.72715Z" fill="black"/>
</svg>
