<svg width="14" height="20" viewBox="0 0 14 20" fill="none" xmlns="http://www.w3.org/2000/svg">
<path d="M9.97933 4.50004C9.97933 6.14539 8.64549 7.47921 7.00016 7.47921C5.35484 7.47921 4.021 6.14539 4.021 4.50004C4.021 2.85469 5.35484 1.52087 7.00016 1.52087C8.64549 1.52087 9.97933 2.85469 9.97933 4.50004Z" stroke="#637280" stroke-width="1.375" fill=""/>
<path d="M12.7293 14.5833C12.7293 15.5693 12.171 16.5268 11.1378 17.2648C10.106 18.0019 8.6453 18.4792 7.00016 18.4792C5.35502 18.4792 3.89432 18.0019 2.86249 17.2648C1.82935 16.5268 1.271 15.5693 1.271 14.5833C1.271 13.5974 1.82935 12.6398 2.86249 11.9019C3.89432 11.1648 5.35502 10.6875 7.00016 10.6875C8.6453 10.6875 10.106 11.1648 11.1378 11.9019C12.171 12.6398 12.7293 13.5974 12.7293 14.5833Z" stroke="#637280" stroke-width="1.375" fill=""/>
</svg>