<svg width="10" height="10" viewBox="0 0 10 10" fill="none" xmlns="http://www.w3.org/2000/svg">
<path d="M8.5 3.58065V8.03226C8.5 8.15934 8.47575 8.28518 8.42864 8.4026C8.38152 8.52001 8.31247 8.62669 8.22541 8.71655C8.13836 8.80642 8.03501 8.8777 7.92127 8.92633C7.80752 8.97497 7.68561 9 7.5625 9H1.9375C1.68886 9 1.4504 8.89804 1.27459 8.71655C1.09877 8.53507 1 8.28892 1 8.03226V2.22581C1 1.96915 1.09877 1.723 1.27459 1.54151C1.4504 1.36002 1.68886 1.25806 1.9375 1.25806H5.86281M7.5 1H9V2.54839M2.9375 7.25806L8 2.03226" stroke="#495057" stroke-linecap="round" stroke-linejoin="round"/>
</svg>
