<svg width="18" height="17" viewBox="0 0 18 17" fill="none" xmlns="http://www.w3.org/2000/svg">
<path d="M16 6V14.625C16 14.8712 15.9515 15.115 15.8573 15.3425C15.763 15.57 15.6249 15.7767 15.4508 15.9508C15.2767 16.1249 15.07 16.263 14.8425 16.3573C14.615 16.4515 14.3712 16.5 14.125 16.5H2.875C2.37772 16.5 1.90081 16.3025 1.54917 15.9508C1.19754 15.5992 1 15.1223 1 14.625V3.375C1 2.87772 1.19754 2.40081 1.54917 2.04917C1.90081 1.69754 2.37772 1.5 2.875 1.5H10.7256M14 1H17V4M4.875 13.125L15 3" stroke="#495057" stroke-linecap="round" stroke-linejoin="round"/>
</svg>
