<svg width="24" height="24" viewBox="0 0 24 24" fill="none" xmlns="http://www.w3.org/2000/svg">
<path d="M3 9V3.85714H4.72869V5.87143C5.46339 4.95714 6.36029 4.25 7.4194 3.75C8.47851 3.25 9.59842 3 10.7791 3C12.94 3 14.7767 3.75 16.2893 5.25C17.8019 6.75 18.5582 8.57143 18.5582 10.7143H16.8295C16.8295 9.04286 16.2424 7.62486 15.068 6.46029C13.8936 5.29571 12.464 4.71371 10.7791 4.71429C9.78511 4.71429 8.85594 4.94286 7.9916 5.4C7.12725 5.85714 6.39976 6.48571 5.80912 7.28571H8.18607V9H3ZM3.04322 11.5714H4.81513C4.988 12.9 5.53916 14.0251 6.46862 14.9469C7.39808 15.8686 8.51078 16.4291 9.80672 16.6286L10.8439 18.4286C8.85594 18.4286 7.11285 17.7751 5.61465 16.4683C4.11645 15.1614 3.2593 13.5291 3.04322 11.5714ZM11.946 13.0714L9.91477 11.0571V6.42857H11.6435V10.3714L12.8535 11.5714L11.946 13.0714ZM15.9436 21L15.6843 19.7143C15.5114 19.6429 15.3492 19.5677 15.1976 19.4889C15.0461 19.41 14.8914 19.3137 14.7335 19.2L13.4802 19.5857L12.6158 18.1286L13.6098 17.2714C13.581 17.0857 13.5666 16.9 13.5666 16.7143C13.5666 16.5286 13.581 16.3429 13.6098 16.1571L12.6158 15.3L13.4802 13.8429L14.7335 14.2286C14.892 14.1143 15.0467 14.018 15.1976 13.9397C15.3486 13.8614 15.5108 13.7863 15.6843 13.7143L15.9436 12.4286H17.6723L17.9316 13.7143C18.1044 13.7857 18.2701 13.868 18.4286 13.9611C18.587 14.0543 18.7383 14.1577 18.8824 14.2714L20.1357 13.8429L21 15.3429L20.006 16.2C20.0348 16.3857 20.0492 16.5643 20.0492 16.7357C20.0492 16.9071 20.0348 17.0857 20.006 17.2714L21 18.1286L20.1357 19.5857L18.8824 19.2C18.7239 19.3143 18.5692 19.4109 18.4182 19.4897C18.2672 19.5686 18.105 19.6434 17.9316 19.7143L17.6723 21H15.9436ZM16.8079 18.4286C17.2833 18.4286 17.6904 18.2606 18.0292 17.9246C18.3681 17.5886 18.5372 17.1851 18.5366 16.7143C18.5366 16.2429 18.3672 15.8391 18.0284 15.5031C17.6896 15.1671 17.283 14.9994 16.8088 15C16.3334 15 15.9263 15.168 15.5875 15.504C15.2486 15.84 15.0795 16.2434 15.0801 16.7143C15.0801 17.1857 15.2495 17.5894 15.5883 17.9254C15.9272 18.2614 16.3331 18.4291 16.8079 18.4286Z" fill="#8C97A1"/>
</svg>
