<svg width="18" height="18" viewBox="0 0 18 18" fill="none" xmlns="http://www.w3.org/2000/svg">
<path d="M1.63636 0C0.740381 0 0 0.740016 0 1.636V16.3636C0 17.2596 0.740381 18 1.63636 18H16.3636C17.2596 18 18 17.2596 18 16.3636V1.636C18 0.740016 17.2596 0 16.3636 0H1.63636ZM1.63636 1.22727H16.3636C16.6011 1.22727 16.7727 1.39894 16.7727 1.636V16.3636C16.7727 16.6011 16.6011 16.7727 16.3636 16.7727H1.63636C1.39894 16.7727 1.22727 16.6011 1.22727 16.3636V1.636C1.22727 1.39858 1.39894 1.22727 1.63636 1.22727ZM4.90909 3.27273C4.01274 3.27273 3.27273 4.01274 3.27273 4.90909C3.27273 5.80544 4.01274 6.54545 4.90909 6.54545C5.80544 6.54545 6.54545 5.80544 6.54545 4.90909C6.54545 4.01274 5.80544 3.27273 4.90909 3.27273ZM7.97727 4.29509C7.81291 4.29253 7.65475 4.35645 7.5375 4.47151C7.42062 4.58693 7.35487 4.74436 7.35487 4.90836C7.35487 5.07236 7.42062 5.23015 7.5375 5.34521C7.65438 5.46063 7.81291 5.52419 7.97727 5.522H14.5227C14.6871 5.52419 14.8453 5.46063 14.9621 5.34521C15.079 5.22979 15.1448 5.07273 15.1448 4.90836C15.1448 4.74399 15.079 4.58693 14.9621 4.47151C14.8453 4.35609 14.6867 4.29253 14.5224 4.29472H7.97727V4.29509ZM4.90909 4.5C5.14213 4.5 5.31818 4.67606 5.31818 4.90909C5.31818 5.14213 5.14213 5.31818 4.90909 5.31818C4.67606 5.31818 4.5 5.14213 4.5 4.90909C4.5 4.67606 4.67606 4.5 4.90909 4.5ZM4.90909 7.36364C4.01274 7.36364 3.27273 8.10365 3.27273 9C3.27273 9.89635 4.01274 10.6364 4.90909 10.6364C5.80544 10.6364 6.54545 9.89635 6.54545 9C6.54545 8.10365 5.80544 7.36364 4.90909 7.36364ZM7.97727 8.386C7.81291 8.38381 7.65475 8.44736 7.5375 8.56278C7.42062 8.67821 7.35487 8.83563 7.35487 8.99963C7.35487 9.16364 7.42062 9.32143 7.5375 9.43649C7.65438 9.55191 7.81291 9.61546 7.97727 9.61327H14.5227C14.6871 9.61546 14.8453 9.55191 14.9621 9.43649C15.079 9.32106 15.1448 9.164 15.1448 8.99963C15.1448 8.83527 15.079 8.67821 14.9621 8.56278C14.8453 8.44736 14.6867 8.38381 14.5224 8.386H7.97727ZM4.90909 8.59091C5.14213 8.59091 5.31818 8.76696 5.31818 9C5.31818 9.23304 5.14213 9.40909 4.90909 9.40909C4.67606 9.40909 4.5 9.23304 4.5 9C4.5 8.76696 4.67606 8.59091 4.90909 8.59091ZM4.90909 11.4545C4.01274 11.4545 3.27273 12.1946 3.27273 13.0909C3.27273 13.9873 4.01274 14.7273 4.90909 14.7273C5.80544 14.7273 6.54545 13.9873 6.54545 13.0909C6.54545 12.1946 5.80544 11.4545 4.90909 11.4545ZM7.97727 12.4769C7.81291 12.4747 7.65475 12.5383 7.5375 12.6537C7.42062 12.7691 7.35487 12.9265 7.35487 13.0905C7.35487 13.2545 7.42062 13.4123 7.5375 13.5274C7.65438 13.6428 7.81291 13.7064 7.97727 13.7042H14.5227C14.6871 13.7064 14.8453 13.6428 14.9621 13.5274C15.079 13.412 15.1448 13.2545 15.1448 13.0905C15.1448 12.9265 15.079 12.7691 14.9621 12.6537C14.8453 12.5383 14.6867 12.4747 14.5224 12.4769H7.97727ZM4.90909 12.6818C5.14213 12.6818 5.31818 12.8579 5.31818 13.0909C5.31818 13.3239 5.14213 13.5 4.90909 13.5C4.67606 13.5 4.5 13.3239 4.5 13.0909C4.5 12.8579 4.67606 12.6818 4.90909 12.6818Z" fill="#8999A6"/>
</svg>
