<svg width="24" height="24" viewBox="0 0 24 24" fill="none" xmlns="http://www.w3.org/2000/svg">
<circle cx="12" cy="12" r="12" fill="black"/>
<path d="M16.8333 10.875H11.9583C11.36 10.875 10.875 11.36 10.875 11.9583V16.8333C10.875 17.4316 11.36 17.9167 11.9583 17.9167H16.8333C17.4316 17.9167 17.9167 17.4316 17.9167 16.8333V11.9583C17.9167 11.36 17.4316 10.875 16.8333 10.875Z" stroke="white" stroke-width="1.5" stroke-linecap="round" stroke-linejoin="round"/>
<path d="M8.70837 14.125H8.16671C7.87939 14.125 7.60384 14.0108 7.40067 13.8077C7.19751 13.6045 7.08337 13.329 7.08337 13.0416V8.16665C7.08337 7.87933 7.19751 7.60378 7.40067 7.40061C7.60384 7.19745 7.87939 7.08331 8.16671 7.08331H13.0417C13.329 7.08331 13.6046 7.19745 13.8077 7.40061C14.0109 7.60378 14.125 7.87933 14.125 8.16665V8.70831" stroke="white" stroke-width="1.5" stroke-linecap="round" stroke-linejoin="round"/>
</svg>
