<svg xmlns="http://www.w3.org/2000/svg" width="40" height="50" viewBox="0 0 40 50">
    <g fill="#0C0053">
        <path d="M21.22 34.12h-1.64c-.169 0-.306.138-.306.307v6.55c0 .17.137.308.307.308h1.638c.17 0 .307-.138.307-.307v-6.55c0-.17-.137-.308-.307-.308z"/>
        <path d="M.307 49.75h39.309c.17 0 .307-.137.307-.307V23.238c0-.17-.137-.307-.307-.307h-5.424v-8.7C34.192 6.383 27.808 0 19.962 0c-7.847 0-14.23 6.384-14.23 14.23v8.701H.306c-.17 0-.307.138-.307.307v26.205c0 .17.138.307.307.307zM19.962 2.253c6.604 0 11.977 5.373 11.977 11.977v8.701H7.984v-8.7c0-6.605 5.373-11.978 11.978-11.978zM2.252 47.5V25.184H37.67v22.317H2.253z"/>
    </g>
</svg>
