<svg width="12" height="13" viewBox="0 0 12 13" fill="none" xmlns="http://www.w3.org/2000/svg">
<path d="M9.84704 12.25C10.2061 12.25 10.5505 12.1209 10.8044 11.8912C11.0582 11.6615 11.2009 11.3499 11.2009 11.025V7.9625L7.81627 10.4125V8.575H3.07781V7.35H7.81627V5.5125L11.2009 7.9625V3.675L7.13935 0H1.72396C1.3649 0 1.02054 0.129062 0.766649 0.358794C0.512754 0.588526 0.370117 0.90011 0.370117 1.225V11.025C0.370117 11.3499 0.512754 11.6615 0.766649 11.8912C1.02054 12.1209 1.3649 12.25 1.72396 12.25H9.84704ZM6.46242 1.225L9.84704 4.2875H6.46242V1.225Z" fill="white"/>
</svg>
