<svg width="16" height="16" viewBox="0 0 16 16" fill="none" xmlns="http://www.w3.org/2000/svg">
<path d="M8 14.75C9.33502 14.75 10.6401 14.3541 11.7501 13.6124C12.8601 12.8707 13.7253 11.8165 14.2362 10.5831C14.7471 9.34972 14.8808 7.99252 14.6203 6.68314C14.3599 5.37377 13.717 4.17104 12.773 3.22703C11.829 2.28303 10.6262 1.64015 9.31686 1.3797C8.00749 1.11925 6.65029 1.25292 5.41689 1.76382C4.18349 2.27471 3.12928 3.13987 2.38758 4.2499C1.64588 5.35994 1.25 6.66498 1.25 8C1.25 9.116 1.52 10.1683 2 11.0953L1.25 14.75L4.90475 14C5.83175 14.48 6.88475 14.75 8 14.75Z" fill="#495057" stroke="#495057" stroke-width="1.5" stroke-linecap="round" stroke-linejoin="round"/>
</svg>
