<svg width="24" height="24" viewBox="0 0 24 24" fill="none" xmlns="http://www.w3.org/2000/svg">
<rect x="6.10352e-05" width="24" height="24" rx="12" fill="#0E90E1"/>
<path fill-rule="evenodd" clip-rule="evenodd" d="M12.5694 7.91675C12.5694 7.79515 12.5147 7.67853 12.4173 7.59254C12.3199 7.50656 12.1878 7.45825 12.05 7.45825C11.9122 7.45825 11.7801 7.50656 11.6827 7.59254C11.5853 7.67853 11.5306 7.79515 11.5306 7.91675V8.37525H8.93333C8.52004 8.37525 8.12367 8.52017 7.83143 8.77813C7.53918 9.03608 7.375 9.38595 7.375 9.75075V15.2528C7.375 15.6176 7.53918 15.9674 7.83143 16.2254C8.12367 16.4833 8.52004 16.6283 8.93333 16.6283H11.5306V17.0868C11.5306 17.2084 11.5853 17.325 11.6827 17.411C11.7801 17.4969 11.9122 17.5453 12.05 17.5453C12.1878 17.5453 12.3199 17.4969 12.4173 17.411C12.5147 17.325 12.5694 17.2084 12.5694 17.0868V16.6283C12.7072 16.6283 12.8393 16.5799 12.9367 16.494C13.0342 16.408 13.0889 16.2914 13.0889 16.1698C13.0889 16.0482 13.0342 15.9315 12.9367 15.8455C12.8393 15.7596 12.7072 15.7113 12.5694 15.7113V9.29225C12.7072 9.29225 12.8393 9.24395 12.9367 9.15796C13.0342 9.07197 13.0889 8.95535 13.0889 8.83375C13.0889 8.71215 13.0342 8.59553 12.9367 8.50954C12.8393 8.42356 12.7072 8.37525 12.5694 8.37525V7.91675ZM14.6472 8.37525C14.5095 8.37525 14.3773 8.42356 14.2799 8.50954C14.1825 8.59553 14.1278 8.71215 14.1278 8.83375C14.1278 8.95535 14.1825 9.07197 14.2799 9.15796C14.3773 9.24395 14.5095 9.29225 14.6472 9.29225H15.1667C15.3044 9.29225 15.4366 9.34056 15.534 9.42654C15.6314 9.51253 15.6861 9.62915 15.6861 9.75075V10.2093C15.6861 10.3309 15.7408 10.4475 15.8383 10.5335C15.9357 10.6194 16.0678 10.6678 16.2056 10.6678C16.3433 10.6678 16.4754 10.6194 16.5729 10.5335C16.6703 10.4475 16.725 10.3309 16.725 10.2093V9.75075C16.725 9.38595 16.5608 9.03608 16.2686 8.77813C15.9763 8.52017 15.58 8.37525 15.1667 8.37525H14.6472ZM16.725 12.0433C16.725 11.9217 16.6703 11.805 16.5729 11.719C16.4754 11.6331 16.3433 11.5848 16.2056 11.5848C16.0678 11.5848 15.9357 11.6331 15.8383 11.719C15.7408 11.805 15.6861 11.9217 15.6861 12.0433V12.9603C15.6861 13.0819 15.7408 13.1985 15.8383 13.2845C15.9357 13.3704 16.0678 13.4188 16.2056 13.4188C16.3433 13.4188 16.4754 13.3704 16.5729 13.2845C16.6703 13.1985 16.725 13.0819 16.725 12.9603V12.0433ZM16.725 14.7943C16.725 14.6727 16.6703 14.556 16.5729 14.47C16.4754 14.3841 16.3433 14.3358 16.2056 14.3358C16.0678 14.3358 15.9357 14.3841 15.8383 14.47C15.7408 14.556 15.6861 14.6727 15.6861 14.7943V15.2528C15.6861 15.3744 15.6314 15.491 15.534 15.577C15.4366 15.6629 15.3044 15.7113 15.1667 15.7113H14.6472C14.5095 15.7113 14.3773 15.7596 14.2799 15.8455C14.1825 15.9315 14.1278 16.0482 14.1278 16.1698C14.1278 16.2914 14.1825 16.408 14.2799 16.494C14.3773 16.5799 14.5095 16.6283 14.6472 16.6283H15.1667C15.58 16.6283 15.9763 16.4833 16.2686 16.2254C16.5608 15.9674 16.725 15.6176 16.725 15.2528V14.7943Z" fill="white"/>
</svg>
