<svg width="21" height="21" viewBox="0 0 21 21" fill="none" xmlns="http://www.w3.org/2000/svg">
<g opacity="0.7">
<path fill-rule="evenodd" clip-rule="evenodd" d="M1 2.33942C1.00001 1.60401 1.60402 1 2.33943 1H18.4388C19.1742 1 19.7782 1.60401 19.7782 2.33942V13.0723C19.7782 13.8077 19.1742 14.4118 18.4388 14.4118H2.33943C1.60402 14.4118 1.00001 13.8077 1 13.0723V2.33942ZM18.4388 1.89844H2.33943C2.08723 1.89844 1.89063 2.08816 1.89062 2.34026V13.0732C1.89063 13.3253 2.08723 13.522 2.33943 13.522H18.4388C18.691 13.522 18.8806 13.3253 18.8806 13.0732V2.34026C18.8806 2.08795 18.691 1.89844 18.4388 1.89844ZM3.23097 2.78125C3.11179 2.78264 2.99809 2.83156 2.91513 2.91714C2.83218 3.00272 2.78682 3.11788 2.78915 3.23705V12.1817C2.79205 12.4272 2.99241 12.6245 3.23795 12.6235H17.5403C17.709 12.6387 17.8717 12.5573 17.9607 12.4132C18.0496 12.2692 18.0496 12.0873 17.9607 11.9432C17.8717 11.7992 17.709 11.7178 17.5403 11.7329H3.67977V3.23705C3.68211 3.11667 3.63581 3.00044 3.55134 2.91466C3.46686 2.82887 3.35136 2.78077 3.23097 2.78125ZM15.4345 3.81958C15.5156 3.7338 15.6273 3.68358 15.7453 3.67987V3.67981C15.9289 3.67551 16.0965 3.78393 16.1678 3.95316C16.2391 4.1224 16.1997 4.31804 16.0684 4.44644L13.3878 7.13229C13.2132 7.30681 12.9302 7.30681 12.7556 7.13229L11.3289 5.70729L8.95913 8.86814C8.88205 8.97196 8.7638 9.03732 8.63489 9.04737C8.50598 9.05742 8.37903 9.01116 8.28679 8.92054L6.881 7.51474L5.39488 9.74655C5.25793 9.95247 4.97998 10.0084 4.77406 9.87141C4.56815 9.73446 4.51225 9.45651 4.6492 9.25059L6.43918 6.56474C6.51383 6.45419 6.63394 6.38275 6.76671 6.36991C6.89948 6.35708 7.03105 6.40419 7.12549 6.4984L8.55049 7.92515L10.9272 4.75732C11.0051 4.65424 11.1238 4.5899 11.2527 4.58087C11.3816 4.57183 11.5081 4.61899 11.5996 4.7102L13.0717 6.18236L15.4345 3.81958ZM8.59725 16.2031C8.00117 16.2031 7.45904 16.491 7.0535 16.8964C6.64795 17.3019 6.36719 17.8458 6.36719 18.4419V19.3325C6.36624 19.5781 6.56348 19.7784 6.80901 19.7813H13.9637C14.0829 19.7818 14.1973 19.7347 14.2816 19.6504C14.3658 19.5661 14.413 19.4517 14.4125 19.3325V18.4419C14.4125 17.8458 14.1248 17.3019 13.7192 16.8964C13.3137 16.4909 12.7715 16.2031 12.1755 16.2031H8.59725ZM12.1755 17.0938H8.59724C8.2992 17.0938 7.95245 17.2514 7.68741 17.5164C7.42236 17.7814 7.25781 18.1369 7.25781 18.4349V18.8837H13.5149V18.4349C13.5149 18.1369 13.3573 17.7813 13.0923 17.5164C12.8272 17.2514 12.4735 17.0938 12.1755 17.0938Z" fill="#637280"/>
<path d="M1 2.33942L0.75 2.33942V2.33942H1ZM19.7782 2.33942H20.0282V2.33942L19.7782 2.33942ZM19.7782 13.0723L20.0282 13.0723V13.0723H19.7782ZM1 13.0723H0.75V13.0723L1 13.0723ZM1.89062 2.34026L1.64062 2.34025V2.34026H1.89062ZM1.89062 13.0732H1.64062V13.0732L1.89062 13.0732ZM18.8806 13.0732L19.1306 13.0732V13.0732H18.8806ZM18.8806 2.34026H19.1306V2.34025L18.8806 2.34026ZM2.91513 2.91714L2.73563 2.74313L2.73563 2.74313L2.91513 2.91714ZM3.23097 2.78125L3.22997 2.53125L3.22806 2.53127L3.23097 2.78125ZM2.78915 3.23705H3.0392L3.0391 3.23217L2.78915 3.23705ZM2.78915 12.1817H2.53913L2.53917 12.1847L2.78915 12.1817ZM3.23795 12.6235V12.3735L3.23698 12.3735L3.23795 12.6235ZM17.5403 12.6235L17.5627 12.3745L17.5515 12.3735H17.5403V12.6235ZM17.5403 11.7329V11.9829H17.5515L17.5627 11.9819L17.5403 11.7329ZM3.67977 11.7329H3.42977V11.9829H3.67977V11.7329ZM3.67977 3.23705L3.42977 3.23219V3.23705H3.67977ZM3.55134 2.91466L3.3732 3.09006L3.3732 3.09006L3.55134 2.91466ZM15.7453 3.67987L15.7532 3.92975L15.9953 3.92215V3.67987H15.7453ZM15.4345 3.81958L15.6113 3.99642L15.6162 3.99134L15.4345 3.81958ZM15.7453 3.67981L15.7395 3.42988L15.4953 3.43559V3.67981H15.7453ZM16.0684 4.44644L15.8936 4.2677L15.8915 4.26984L16.0684 4.44644ZM13.3878 7.13229L13.5645 7.30911L13.5648 7.3089L13.3878 7.13229ZM12.7556 7.13229L12.9324 6.95548L12.9323 6.95541L12.7556 7.13229ZM11.3289 5.70729L11.5056 5.53041L11.3017 5.3268L11.1289 5.55733L11.3289 5.70729ZM8.95913 8.86814L8.7591 8.71818L8.7584 8.71911L8.95913 8.86814ZM8.63489 9.04737L8.65431 9.29662L8.65431 9.29661L8.63489 9.04737ZM8.28679 8.92054L8.11001 9.09732L8.11158 9.09886L8.28679 8.92054ZM6.881 7.51474L7.05778 7.33797L6.84203 7.12221L6.67292 7.37618L6.881 7.51474ZM5.39488 9.74655L5.18679 9.60799L5.18672 9.6081L5.39488 9.74655ZM4.77406 9.87141L4.63561 10.0796H4.63561L4.77406 9.87141ZM4.6492 9.25059L4.44117 9.11195L4.44104 9.11214L4.6492 9.25059ZM6.43918 6.56474L6.23199 6.42484L6.23115 6.4261L6.43918 6.56474ZM6.76671 6.36991L6.74265 6.12107L6.76671 6.36991ZM7.12549 6.4984L7.30237 6.32173L7.30205 6.32141L7.12549 6.4984ZM8.55049 7.92515L8.3736 8.10182L8.57739 8.30586L8.75046 8.07519L8.55049 7.92515ZM10.9272 4.75732L10.7278 4.6066L10.7273 4.60729L10.9272 4.75732ZM11.2527 4.58087L11.2352 4.33148L11.2527 4.58087ZM11.5996 4.7102L11.7763 4.53342L11.7761 4.53313L11.5996 4.7102ZM13.0717 6.18236L12.8949 6.35913L13.0717 6.53591L13.2485 6.35913L13.0717 6.18236ZM7.0535 16.8964L6.87674 16.7196L6.87672 16.7196L7.0535 16.8964ZM6.36719 19.3325L6.61719 19.3335V19.3325H6.36719ZM6.80901 19.7813L6.80606 20.0313H6.80901V19.7813ZM13.9637 19.7813L13.9647 19.5313H13.9637V19.7813ZM14.2816 19.6504L14.4583 19.8272L14.4583 19.8272L14.2816 19.6504ZM14.4125 19.3325H14.1625L14.1625 19.3335L14.4125 19.3325ZM13.7192 16.8964L13.5424 17.0732L13.5424 17.0732L13.7192 16.8964ZM7.68741 17.5164L7.51066 17.3396L7.51063 17.3396L7.68741 17.5164ZM7.25781 18.8837H7.00781V19.1337H7.25781V18.8837ZM13.5149 18.8837V19.1337H13.7649V18.8837H13.5149ZM13.0923 17.5164L12.9155 17.6932L12.9155 17.6932L13.0923 17.5164ZM2.33943 0.75C1.46595 0.75 0.750011 1.46594 0.75 2.33942L1.25 2.33943C1.25001 1.74208 1.74209 1.25 2.33943 1.25V0.75ZM18.4388 0.75H2.33943V1.25H18.4388V0.75ZM20.0282 2.33942C20.0282 1.46594 19.3123 0.75 18.4388 0.75V1.25C19.0361 1.25 19.5282 1.74208 19.5282 2.33943L20.0282 2.33942ZM20.0282 13.0723V2.33942H19.5282V13.0723H20.0282ZM18.4388 14.6618C19.3123 14.6618 20.0282 13.9458 20.0282 13.0723L19.5282 13.0723C19.5282 13.6697 19.0361 14.1618 18.4388 14.1618V14.6618ZM2.33943 14.6618H18.4388V14.1618H2.33943V14.6618ZM0.75 13.0723C0.750011 13.9458 1.46595 14.6618 2.33943 14.6618V14.1618C1.7421 14.1618 1.25001 13.6697 1.25 13.0723L0.75 13.0723ZM0.75 2.33942V13.0723H1.25V2.33942H0.75ZM2.33943 2.14844H18.4388V1.64844H2.33943V2.14844ZM2.14062 2.34026C2.14063 2.23132 2.22016 2.14844 2.33943 2.14844V1.64844C1.95431 1.64844 1.64063 1.945 1.64062 2.34025L2.14062 2.34026ZM2.14062 13.0732V2.34026H1.64062V13.0732H2.14062ZM2.33943 13.272C2.22533 13.272 2.14063 13.1872 2.14062 13.0732L1.64062 13.0732C1.64063 13.4633 1.94914 13.772 2.33943 13.772V13.272ZM18.4388 13.272H2.33943V13.772H18.4388V13.272ZM18.6306 13.0732C18.6306 13.1924 18.5477 13.272 18.4388 13.272V13.772C18.8342 13.772 19.1306 13.4581 19.1306 13.0732L18.6306 13.0732ZM18.6306 2.34026V13.0732H19.1306V2.34026H18.6306ZM18.4388 2.14844C18.5529 2.14844 18.6306 2.22606 18.6306 2.34026L19.1306 2.34025C19.1306 1.94985 18.829 1.64844 18.4388 1.64844V2.14844ZM3.09464 3.09114C3.13121 3.05341 3.18133 3.03185 3.23387 3.03124L3.22806 2.53127C3.04224 2.53343 2.86497 2.6097 2.73563 2.74313L3.09464 3.09114ZM3.0391 3.23217C3.03808 3.17964 3.05807 3.12887 3.09464 3.09114L2.73563 2.74313C2.60628 2.87657 2.53557 3.05612 2.5392 3.24192L3.0391 3.23217ZM3.03915 12.1817V3.23705H2.53915V12.1817H3.03915ZM3.23698 12.3735C3.12874 12.374 3.04041 12.287 3.03913 12.1788L2.53917 12.1847C2.54369 12.5675 2.85608 12.875 3.23892 12.8735L3.23698 12.3735ZM17.5403 12.3735H3.23795V12.8735H17.5403V12.3735ZM17.748 12.2818C17.7087 12.3453 17.637 12.3812 17.5627 12.3745L17.518 12.8725C17.7809 12.8961 18.0346 12.7692 18.1733 12.5446L17.748 12.2818ZM17.748 12.0746C17.7872 12.1381 17.7872 12.2183 17.748 12.2818L18.1733 12.5446C18.3121 12.3201 18.3121 12.0364 18.1733 11.8118L17.748 12.0746ZM17.5627 11.9819C17.637 11.9752 17.7087 12.0111 17.748 12.0746L18.1733 11.8118C18.0346 11.5873 17.7809 11.4603 17.518 11.4839L17.5627 11.9819ZM3.67977 11.9829H17.5403V11.4829H3.67977V11.9829ZM3.42977 3.23705V11.7329H3.92977V3.23705H3.42977ZM3.3732 3.09006C3.41044 3.12788 3.43085 3.17912 3.42982 3.23219L3.92973 3.24191C3.93338 3.05423 3.86118 2.87301 3.72947 2.73925L3.3732 3.09006ZM3.23197 3.03125C3.28504 3.03104 3.33596 3.05224 3.3732 3.09006L3.72947 2.73925C3.59777 2.60549 3.41768 2.53051 3.22997 2.53126L3.23197 3.03125ZM15.7375 3.43C15.5535 3.43577 15.3793 3.51407 15.2528 3.64782L15.6162 3.99134C15.6519 3.95352 15.7012 3.93138 15.7532 3.92975L15.7375 3.43ZM15.4953 3.67981V3.67987H15.9953V3.67981H15.4953ZM16.3982 3.85608C16.287 3.59221 16.0258 3.42318 15.7395 3.42988L15.7512 3.92974C15.8321 3.92785 15.906 3.97564 15.9374 4.05025L16.3982 3.85608ZM16.2432 4.62518C16.4479 4.42498 16.5094 4.11995 16.3982 3.85608L15.9374 4.05025C15.9689 4.12486 15.9515 4.2111 15.8936 4.26771L16.2432 4.62518ZM13.5648 7.3089L16.2454 4.62305L15.8915 4.26984L13.2109 6.95569L13.5648 7.3089ZM12.5789 7.30911C12.8511 7.58121 13.2923 7.58121 13.5645 7.30911L13.2111 6.95548C13.1341 7.03242 13.0093 7.03242 12.9324 6.95548L12.5789 7.30911ZM11.1522 5.88418L12.579 7.30918L12.9323 6.95541L11.5056 5.53041L11.1522 5.88418ZM9.15916 9.01811L11.5289 5.85726L11.1289 5.55733L8.7591 8.71818L9.15916 9.01811ZM8.65431 9.29661C8.85531 9.28095 9.03968 9.17904 9.15985 9.01717L8.7584 8.71911C8.72442 8.76488 8.67229 8.7937 8.61546 8.79813L8.65431 9.29661ZM8.11158 9.09886C8.25538 9.24016 8.45332 9.31228 8.65431 9.29662L8.61546 8.79813C8.55863 8.80256 8.50267 8.78216 8.46201 8.74221L8.11158 9.09886ZM6.70423 7.69152L8.11002 9.09731L8.46357 8.74376L7.05778 7.33797L6.70423 7.69152ZM5.60297 9.88511L7.08909 7.65331L6.67292 7.37618L5.18679 9.60799L5.60297 9.88511ZM4.63561 10.0796C4.95649 10.293 5.38963 10.2059 5.60304 9.885L5.18672 9.6081C5.12623 9.69905 5.00346 9.72374 4.91251 9.66325L4.63561 10.0796ZM4.44104 9.11214C4.22762 9.43302 4.31473 9.86616 4.63561 10.0796L4.91251 9.66325C4.82156 9.60276 4.79687 9.47999 4.85736 9.38904L4.44104 9.11214ZM6.23115 6.4261L4.44117 9.11195L4.85724 9.38924L6.64722 6.70339L6.23115 6.4261ZM6.74265 6.12107C6.53564 6.14108 6.34838 6.25248 6.23199 6.42485L6.64638 6.70464C6.67928 6.65591 6.73223 6.62441 6.79076 6.61875L6.74265 6.12107ZM7.30205 6.32141C7.1548 6.17453 6.94967 6.10106 6.74265 6.12107L6.79076 6.61875C6.8493 6.61309 6.9073 6.63386 6.94893 6.6754L7.30205 6.32141ZM8.72737 7.74848L7.30237 6.32173L6.9486 6.67507L8.3736 8.10182L8.72737 7.74848ZM10.7273 4.60729L8.35052 7.77512L8.75046 8.07519L11.1272 4.90736L10.7273 4.60729ZM11.2352 4.33148C11.0343 4.34556 10.8492 4.44588 10.7278 4.6066L11.1267 4.90804C11.161 4.8626 11.2133 4.83424 11.2702 4.83025L11.2352 4.33148ZM11.7761 4.53313C11.6334 4.39093 11.4362 4.31739 11.2352 4.33148L11.2702 4.83025C11.327 4.82627 11.3827 4.84706 11.4231 4.88727L11.7761 4.53313ZM13.2485 6.00558L11.7763 4.53342L11.4228 4.88698L12.8949 6.35913L13.2485 6.00558ZM15.2577 3.6428L12.8949 6.00558L13.2485 6.35913L15.6113 3.99636L15.2577 3.6428ZM7.23025 17.0732C7.60159 16.702 8.08346 16.4531 8.59725 16.4531V15.9531C7.91888 15.9531 7.31649 16.28 6.87674 16.7196L7.23025 17.0732ZM6.61719 18.4419C6.61719 17.9261 6.8607 17.4427 7.23027 17.0732L6.87672 16.7196C6.43521 17.1611 6.11719 17.7655 6.11719 18.4419H6.61719ZM6.61719 19.3325V18.4419H6.11719V19.3325H6.61719ZM6.81196 19.5314C6.70372 19.5301 6.61677 19.4417 6.61719 19.3335L6.11719 19.3316C6.11571 19.7144 6.42325 20.0268 6.80606 20.0313L6.81196 19.5314ZM13.9637 19.5313H6.80901V20.0313H13.9637V19.5313ZM14.1048 19.4736C14.0676 19.5108 14.0172 19.5315 13.9647 19.5313L13.9627 20.0313C14.1485 20.032 14.3269 19.9586 14.4583 19.8272L14.1048 19.4736ZM14.1625 19.3335C14.1627 19.386 14.1419 19.4365 14.1048 19.4736L14.4583 19.8272C14.5897 19.6958 14.6632 19.5174 14.6625 19.3316L14.1625 19.3335ZM14.1625 18.4419V19.3325H14.6625V18.4419H14.1625ZM13.5424 17.0732C13.9136 17.4443 14.1625 17.9279 14.1625 18.4419H14.6625C14.6625 17.7638 14.336 17.1596 13.896 16.7196L13.5424 17.0732ZM12.1755 16.4531C12.6893 16.4531 13.1711 16.7019 13.5424 17.0732L13.896 16.7196C13.4562 16.2798 12.8538 15.9531 12.1755 15.9531V16.4531ZM8.59725 16.4531H12.1755V15.9531H8.59725V16.4531ZM8.59724 17.3438H12.1755V16.8438H8.59724V17.3438ZM7.86415 17.6932C8.09302 17.4644 8.37922 17.3438 8.59724 17.3438V16.8438C8.21918 16.8438 7.81189 17.0384 7.51066 17.3396L7.86415 17.6932ZM7.50781 18.4349C7.50781 18.2181 7.6343 17.923 7.86418 17.6931L7.51063 17.3396C7.21043 17.6398 7.00781 18.0556 7.00781 18.4349H7.50781ZM7.50781 18.8837V18.4349H7.00781V18.8837H7.50781ZM13.5149 18.6337H7.25781V19.1337H13.5149V18.6337ZM13.2649 18.4349V18.8837H13.7649V18.4349H13.2649ZM12.9155 17.6932C13.1428 17.9204 13.2649 18.2152 13.2649 18.4349H13.7649C13.7649 18.0587 13.5718 17.6422 13.269 17.3396L12.9155 17.6932ZM12.1755 17.3438C12.3949 17.3438 12.6878 17.4656 12.9155 17.6932L13.269 17.3396C12.9666 17.0373 12.5521 16.8438 12.1755 16.8438V17.3438Z" fill="#637280"/>
</g>
</svg>
