<svg width="9" height="10" viewBox="0 0 9 10" fill="none" xmlns="http://www.w3.org/2000/svg">
<path d="M1 2.6001H1.8H8.2" stroke="black" stroke-width="0.5" stroke-linecap="round" stroke-linejoin="round"/>
<path d="M3.00005 2.6V1.8C3.00005 1.58783 3.08433 1.38434 3.23436 1.23431C3.38439 1.08429 3.58788 1 3.80005 1H5.40005C5.61222 1 5.81571 1.08429 5.96573 1.23431C6.11576 1.38434 6.20005 1.58783 6.20005 1.8V2.6M7.40005 2.6V8.2C7.40005 8.41217 7.31576 8.61566 7.16573 8.76569C7.01571 8.91571 6.81222 9 6.60005 9H2.60005C2.38788 9 2.18439 8.91571 2.03436 8.76569C1.88433 8.61566 1.80005 8.41217 1.80005 8.2V2.6H7.40005Z" stroke="black" stroke-width="0.5" stroke-linecap="round" stroke-linejoin="round"/>
</svg>
