<svg width="16" height="16" viewBox="0 0 16 16" fill="none" xmlns="http://www.w3.org/2000/svg">
<path d="M13.6572 2.34255C12.5384 1.22397 11.113 0.462237 9.56135 0.153655C8.00966 -0.154927 6.40132 0.00349826 4.93966 0.6089C3.47801 1.2143 2.22867 2.2395 1.3496 3.55487C0.470536 4.87024 0.00121552 6.41672 0.000976562 7.9988C0.000976563 10.1205 0.84383 12.1554 2.34412 13.6557C3.84441 15.1559 5.87923 15.9988 8.00096 15.9988C10.1227 15.9988 12.1575 15.1559 13.6578 13.6557C15.1581 12.1554 16.0009 10.1205 16.0009 7.9988C16.0037 6.94786 15.7979 5.90682 15.3956 4.93593C14.9933 3.96504 14.4024 3.08357 13.6572 2.34255ZM11.4603 10.3547C11.535 10.4268 11.5945 10.513 11.6354 10.6083C11.6764 10.7036 11.6979 10.8062 11.6988 10.9099C11.6997 11.0136 11.6799 11.1165 11.6407 11.2125C11.6014 11.3085 11.5434 11.3958 11.47 11.4691C11.3967 11.5425 11.3094 11.6005 11.2134 11.6398C11.1174 11.679 11.0145 11.6988 10.9108 11.6979C10.8071 11.697 10.7046 11.6754 10.6092 11.6345C10.5139 11.5936 10.4277 11.534 10.3556 11.4594L8.00034 9.10443L5.64503 11.4597C5.4985 11.6063 5.29976 11.6886 5.09253 11.6886C4.8853 11.6886 4.68656 11.6063 4.54003 11.4597C4.3935 11.3132 4.31118 11.1145 4.31118 10.9072C4.31118 10.7 4.3935 10.5013 4.54003 10.3547L6.89534 7.9988L4.54003 5.64349C4.3946 5.49673 4.31322 5.29835 4.3137 5.09174C4.31418 4.88513 4.39649 4.68713 4.5426 4.54105C4.68871 4.39498 4.88674 4.31273 5.09335 4.31231C5.29996 4.31189 5.49832 4.39332 5.64503 4.5388L8.00034 6.8938L10.3556 4.5388C10.4277 4.46418 10.5139 4.40466 10.6092 4.36372C10.7046 4.32277 10.8071 4.30122 10.9108 4.30032C11.0145 4.29942 11.1174 4.31919 11.2134 4.35847C11.3094 4.39775 11.3967 4.45576 11.47 4.52911C11.5434 4.60247 11.6014 4.6897 11.6407 4.78571C11.6799 4.88172 11.6997 4.9846 11.6988 5.08833C11.6979 5.19206 11.6764 5.29458 11.6354 5.38989C11.5945 5.48521 11.535 5.57142 11.4603 5.64349L9.10502 7.9988L11.4603 10.3547Z" fill="black"/>
</svg>
