<svg width="21" height="17" viewBox="0 0 21 17" fill="none" xmlns="http://www.w3.org/2000/svg">
<path d="M12.1413 7.25H10.75V3.70833C10.75 3.31875 10.3563 3 9.875 3H6.375C5.89375 3 5.5 3.31875 5.5 3.70833V7.25H4.10875C3.33 7.25 2.93625 8.015 3.4875 8.46125L7.50375 11.7125C7.845 11.9888 8.39625 11.9888 8.7375 11.7125L12.7538 8.46125C13.305 8.015 12.92 7.25 12.1413 7.25ZM2 14.3333C2 14.7229 2.39375 15.0417 2.875 15.0417H13.375C13.8563 15.0417 14.25 14.7229 14.25 14.3333C14.25 13.9438 13.8563 13.625 13.375 13.625H2.875C2.39375 13.625 2 13.9438 2 14.3333Z" fill="white"/>
</svg>
