<svg width="21" height="17" viewBox="0 0 21 17" fill="none" xmlns="http://www.w3.org/2000/svg">
<path d="M14.5163 6.375H13.125V2.83333C13.125 2.44375 12.7313 2.125 12.25 2.125H8.75C8.26875 2.125 7.875 2.44375 7.875 2.83333V6.375H6.48375C5.705 6.375 5.31125 7.14 5.8625 7.58625L9.87875 10.8375C10.22 11.1138 10.7713 11.1138 11.1125 10.8375L15.1288 7.58625C15.68 7.14 15.295 6.375 14.5163 6.375ZM4.375 13.4583C4.375 13.8479 4.76875 14.1667 5.25 14.1667H15.75C16.2313 14.1667 16.625 13.8479 16.625 13.4583C16.625 13.0688 16.2313 12.75 15.75 12.75H5.25C4.76875 12.75 4.375 13.0688 4.375 13.4583Z" fill="#495057"/>
</svg>
