<svg width="8" height="8" viewBox="0 0 8 8" fill="none" xmlns="http://www.w3.org/2000/svg">
<path d="M3.66663 1.33325H1.33329C1.15648 1.33325 0.986912 1.40349 0.861888 1.52851C0.736864 1.65354 0.666626 1.82311 0.666626 1.99992V6.66659C0.666626 6.8434 0.736864 7.01297 0.861888 7.13799C0.986912 7.26301 1.15648 7.33325 1.33329 7.33325H5.99996C6.17677 7.33325 6.34634 7.26301 6.47136 7.13799C6.59639 7.01297 6.66663 6.8434 6.66663 6.66659V4.33325" stroke="black" stroke-width="0.5" stroke-linecap="round" stroke-linejoin="round"/>
<path d="M6.16663 0.833327C6.29923 0.700719 6.47909 0.626221 6.66663 0.626221C6.85416 0.626221 7.03402 0.700719 7.16663 0.833327C7.29923 0.965936 7.37373 1.14579 7.37373 1.33333C7.37373 1.52086 7.29923 1.70072 7.16663 1.83333L3.99996 4.99999L2.66663 5.33333L2.99996 3.99999L6.16663 0.833327Z" stroke="black" stroke-width="0.5" stroke-linecap="round" stroke-linejoin="round"/>
</svg>
