<svg width="24" height="24" viewBox="0 0 24 24" fill="none" xmlns="http://www.w3.org/2000/svg">
<ellipse cx="12" cy="11.9766" rx="12" ry="11.9766" fill="#F5F5F5"/>
<path d="M11.2819 8.66666H8.55707C8.3506 8.66666 8.15258 8.75445 8.00658 8.91073C7.86059 9.06701 7.77856 9.27898 7.77856 9.49999V15.3333C7.77856 15.5543 7.86059 15.7663 8.00658 15.9226C8.15258 16.0789 8.3506 16.1667 8.55707 16.1667H14.0066C14.2131 16.1667 14.4111 16.0789 14.5571 15.9226C14.7031 15.7663 14.7851 15.5543 14.7851 15.3333V12.4167" stroke="black" stroke-width="0.5" stroke-linecap="round" stroke-linejoin="round"/>
<path d="M14.2012 8.04166C14.356 7.8759 14.5661 7.78278 14.7851 7.78278C15.0041 7.78278 15.2141 7.8759 15.3689 8.04166C15.5238 8.20742 15.6108 8.43224 15.6108 8.66666C15.6108 8.90108 15.5238 9.1259 15.3689 9.29166L11.671 13.25L10.114 13.6667L10.5033 12L14.2012 8.04166Z" stroke="black" stroke-width="0.5" stroke-linecap="round" stroke-linejoin="round"/>
</svg>
