<svg width="19" height="18" viewBox="0 0 19 18" fill="none" xmlns="http://www.w3.org/2000/svg">
<path d="M8.65405 3H3.40405C3.00623 3 2.6247 3.15804 2.34339 3.43934C2.06209 3.72064 1.90405 4.10218 1.90405 4.5V15C1.90405 15.3978 2.06209 15.7794 2.34339 16.0607C2.6247 16.342 3.00623 16.5 3.40405 16.5H13.9041C14.3019 16.5 14.6834 16.342 14.9647 16.0607C15.246 15.7794 15.4041 15.3978 15.4041 15V9.75" stroke="black" stroke-width="1.5" stroke-linecap="round" stroke-linejoin="round"/>
<path d="M14.2791 1.87502C14.5774 1.57665 14.9821 1.40903 15.4041 1.40903C15.826 1.40903 16.2307 1.57665 16.5291 1.87502C16.8274 2.17339 16.995 2.57806 16.995 3.00002C16.995 3.42197 16.8274 3.82665 16.5291 4.12502L9.40405 11.25L6.40405 12L7.15405 9.00002L14.2791 1.87502Z" stroke="black" stroke-width="1.5" stroke-linecap="round" stroke-linejoin="round"/>
</svg>