<svg width="10" height="10" viewBox="0 0 10 10" fill="none" xmlns="http://www.w3.org/2000/svg">
<path d="M4.28185 1.66666H1.55707C1.3506 1.66666 1.15258 1.75445 1.00658 1.91073C0.860586 2.06701 0.778564 2.27898 0.778564 2.49999V8.33332C0.778564 8.55434 0.860586 8.7663 1.00658 8.92258C1.15258 9.07886 1.3506 9.16666 1.55707 9.16666H7.00663C7.21311 9.16666 7.41112 9.07886 7.55712 8.92258C7.70312 8.7663 7.78514 8.55434 7.78514 8.33332V5.41666" stroke="black" stroke-width="0.5" stroke-linecap="round" stroke-linejoin="round"/>
<path d="M7.20118 1.04166C7.35604 0.875899 7.56607 0.782776 7.78507 0.782776C8.00406 0.782776 8.21409 0.875899 8.36895 1.04166C8.5238 1.20742 8.6108 1.43224 8.6108 1.66666C8.6108 1.90108 8.5238 2.1259 8.36895 2.29166L4.67103 6.24999L3.11401 6.66666L3.50327 4.99999L7.20118 1.04166Z" stroke="black" stroke-width="0.5" stroke-linecap="round" stroke-linejoin="round"/>
</svg>
