<?xml version="1.0" encoding="UTF-8"?>
<svg width="16" height="16" viewBox="0 0 16 16" fill="none" xmlns="http://www.w3.org/2000/svg">
<path d="M14.1632 0.643908C13.7501 0.231578 13.1902 0 12.6066 0C12.0229 0 11.4631 0.231578 11.0499 0.643908L10.2703 1.42778L1.97498 9.71921L1.95735 9.7372C1.95312 9.74143 1.95312 9.74601 1.94854 9.74601C1.93972 9.75906 1.92668 9.77211 1.91786 9.78551C1.91786 9.78974 1.91328 9.78974 1.91328 9.79432C1.90446 9.80737 1.90023 9.81618 1.89141 9.82958C1.88718 9.83381 1.88718 9.83805 1.8826 9.84263C1.87837 9.85603 1.87378 9.86485 1.8692 9.87789C1.8692 9.88212 1.86497 9.88212 1.86497 9.88671L0.0243072 15.4228C-0.00210065 15.5 -0.00618239 15.5831 0.0125315 15.6625C0.0312454 15.7419 0.0719948 15.8144 0.130092 15.8717C0.213289 15.9541 0.325771 16.0001 0.442864 15.9997C0.490699 15.999 0.538196 15.9916 0.58391 15.9775L6.11471 14.1326C6.11894 14.1326 6.11894 14.1326 6.12352 14.1283C6.13737 14.1241 6.15064 14.1182 6.16302 14.1107C6.16612 14.1098 6.16893 14.1081 6.17113 14.1058C6.18417 14.097 6.20181 14.0881 6.21485 14.0793C6.2279 14.0705 6.2413 14.0575 6.2547 14.0486C6.25893 14.0441 6.26316 14.0441 6.26316 14.0398C6.26316 14.0356 6.27656 14.031 6.28114 14.0222L15.3564 4.94619C15.7688 4.53307 16.0004 3.97324 16.0004 3.38956C16.0004 2.80588 15.7688 2.24605 15.3564 1.83293L14.1632 0.643908ZM5.9726 13.0966L2.90801 10.032L10.5788 2.36151L13.6434 5.4261L5.9726 13.0966ZM2.47641 10.8465L5.15383 13.524L1.13399 14.8639L2.47641 10.8465ZM14.7355 4.32946L14.2686 4.80091L11.204 1.73596L11.6751 1.26487C11.7978 1.14209 11.9435 1.04468 12.1038 0.978228C12.2641 0.911773 12.436 0.877568 12.6096 0.877568C12.7831 0.877568 12.955 0.911773 13.1153 0.978228C13.2757 1.04468 13.4213 1.14209 13.544 1.26487L14.7429 2.46377C14.988 2.71286 15.1247 3.0487 15.1233 3.39814C15.1219 3.74758 14.9825 4.08232 14.7355 4.32946Z" fill="black"/>
</svg>
