<?xml version="1.0" encoding="UTF-8"?>
<svg width="16px" height="16px" viewBox="0 0 16 16" fill="none" xmlns="http://www.w3.org/2000/svg">
<path d="M8 0C6.94943 0 5.90914 0.206926 4.93853 0.608964C3.96793 1.011 3.08601 1.60028 2.34315 2.34315C0.842855 3.84344 0 5.87827 0 8C0 10.1217 0.842855 12.1566 2.34315 13.6569C3.08601 14.3997 3.96793 14.989 4.93853 15.391C5.90914 15.7931 6.94943 16 8 16C10.1217 16 12.1566 15.1571 13.6569 13.6569C15.1571 12.1566 16 10.1217 16 8C16 5.87827 15.1571 3.84344 13.6569 2.34315C12.1566 0.842855 10.1217 0 8 0V0ZM11.8027 5.7568L11.0432 6.5168L9.49653 4.97013L8.90987 5.5568L10.4565 7.10347L6.66293 10.8965L5.11627 9.34987L4.5296 9.93653L6.07627 11.4832L5.69813 11.8608L5.6912 11.8539C5.67019 11.8885 5.6424 11.9184 5.60949 11.942C5.57658 11.9655 5.53925 11.9822 5.49973 11.9909L4.05973 12.3109C4.03843 12.316 4.01658 12.3186 3.99467 12.3184C3.95506 12.3186 3.91581 12.3109 3.87919 12.2958C3.84257 12.2807 3.80931 12.2584 3.78133 12.2304C3.74564 12.1947 3.71954 12.1506 3.70546 12.1021C3.69139 12.0536 3.68978 12.0023 3.7008 11.9531L4.0208 10.5131C4.02981 10.4737 4.04663 10.4365 4.07026 10.4037C4.0939 10.3709 4.12387 10.3431 4.1584 10.3221L4.15093 10.3152L10.256 4.21013C10.2991 4.16727 10.3574 4.14321 10.4181 4.14321C10.4789 4.14321 10.5372 4.16727 10.5803 4.21013L11.8027 5.432C11.824 5.4533 11.841 5.47862 11.8526 5.50648C11.8641 5.53435 11.8701 5.56423 11.8701 5.5944C11.8701 5.62457 11.8641 5.65445 11.8526 5.68232C11.841 5.71018 11.824 5.7355 11.8027 5.7568Z" fill="black"/>
</svg>
