<svg width="18" height="16" viewBox="0 0 18 16" fill="none" xmlns="http://www.w3.org/2000/svg">
<g opacity="0.7">
<path d="M13.8178 7.27281H10.1817C10.0849 7.27491 9.98859 7.25764 9.89852 7.22203C9.80844 7.18642 9.72638 7.13319 9.65715 7.06544C9.58792 6.99769 9.53292 6.91681 9.49537 6.82752C9.45782 6.73823 9.43848 6.64235 9.43848 6.54549C9.43848 6.44863 9.45782 6.35274 9.49537 6.26345C9.53292 6.17417 9.58792 6.09328 9.65715 6.02553C9.72638 5.95779 9.80844 5.90455 9.89852 5.86894C9.98859 5.83333 10.0849 5.81607 10.1817 5.81816H13.8178C13.9146 5.81607 14.0109 5.83333 14.101 5.86894C14.1911 5.90455 14.2731 5.95779 14.3423 6.02553C14.4116 6.09328 14.4666 6.17417 14.5041 6.26345C14.5417 6.35274 14.561 6.44863 14.561 6.54549C14.561 6.64235 14.5417 6.73823 14.5041 6.82752C14.4666 6.91681 14.4116 6.99769 14.3423 7.06544C14.2731 7.13319 14.1911 7.18642 14.101 7.22203C14.0109 7.25764 13.9146 7.27491 13.8178 7.27281Z" fill="#637280"/>
<path d="M13.8178 10.1819H10.1817C10.0849 10.184 9.98859 10.1667 9.89852 10.1311C9.80844 10.0955 9.72638 10.0422 9.65715 9.9745C9.58792 9.90675 9.53292 9.82586 9.49537 9.73658C9.45782 9.64729 9.43848 9.5514 9.43848 9.45454C9.43848 9.35768 9.45782 9.2618 9.49537 9.17251C9.53292 9.08322 9.58792 9.00234 9.65715 8.93459C9.72638 8.86685 9.80844 8.81361 9.89852 8.778C9.98859 8.74239 10.0849 8.72512 10.1817 8.72722H13.8178C13.9146 8.72512 14.0109 8.74239 14.101 8.778C14.1911 8.81361 14.2731 8.86685 14.3423 8.93459C14.4116 9.00234 14.4666 9.08322 14.5041 9.17251C14.5417 9.2618 14.561 9.35768 14.561 9.45454C14.561 9.5514 14.5417 9.64729 14.5041 9.73658C14.4666 9.82586 14.4116 9.90675 14.3423 9.9745C14.2731 10.0422 14.1911 10.0955 14.101 10.1311C14.0109 10.1667 13.9146 10.184 13.8178 10.1819Z" fill="#637280"/>
<path d="M13.8183 13.0905H10.1822C9.98937 13.0905 9.80442 13.0139 9.66805 12.8775C9.53169 12.7412 9.45508 12.5562 9.45508 12.3634C9.45508 12.1705 9.53169 11.9856 9.66805 11.8492C9.80442 11.7128 9.98937 11.6362 10.1822 11.6362H13.8183C13.9138 11.6362 14.0083 11.655 14.0966 11.6916C14.1848 11.7281 14.2649 11.7817 14.3325 11.8492C14.4 11.9167 14.4536 11.9969 14.4901 12.0851C14.5266 12.1733 14.5454 12.2679 14.5454 12.3634C14.5454 12.4589 14.5266 12.5534 14.4901 12.6416C14.4536 12.7299 14.4 12.81 14.3325 12.8775C14.2649 12.9451 14.1848 12.9986 14.0966 13.0352C14.0083 13.0717 13.9138 13.0905 13.8183 13.0905Z" fill="#637280"/>
<path d="M6.72681 8.72702H4.18162C3.84416 8.72675 3.5206 8.59259 3.28194 8.35401C3.04329 8.11542 2.90905 7.79189 2.90869 7.45442V6.36353C2.90905 6.02607 3.04329 5.70254 3.28194 5.46395C3.5206 5.22537 3.84416 5.09121 4.18162 5.09094H6.72681C7.06427 5.09121 7.38783 5.22537 7.62649 5.46395C7.86514 5.70254 7.99938 6.02607 7.99974 6.36353V7.45442C7.99938 7.79189 7.86514 8.11542 7.62649 8.35401C7.38783 8.59259 7.06427 8.72675 6.72681 8.72702Z" fill="#637280"/>
<path d="M6.72681 13.8182H4.18162C3.84413 13.8178 3.52057 13.6836 3.28192 13.4449C3.04328 13.2063 2.90905 12.8827 2.90869 12.5452V11.4544C2.90914 11.1169 3.04341 10.7934 3.28204 10.5549C3.52068 10.3163 3.84419 10.1821 4.18162 10.1818H6.72681C7.06424 10.1821 7.38775 10.3163 7.62639 10.5549C7.86502 10.7934 7.99929 11.1169 7.99974 11.4544V12.5452C7.99938 12.8827 7.86515 13.2063 7.62651 13.4449C7.38787 13.6836 7.0643 13.8178 6.72681 13.8182Z" fill="#637280"/>
<path d="M15.2725 0H2.18178C1.60336 0.000721678 1.04883 0.23082 0.639826 0.639828C0.230819 1.04884 0.000721676 1.60336 0 2.18179V13.8182C0.000721676 14.3966 0.230819 14.9512 0.639826 15.3602C1.04883 15.7692 1.60336 15.9993 2.18178 16H15.2725C15.8509 15.9993 16.4054 15.7692 16.8144 15.3602C17.2234 14.9512 17.4535 14.3966 17.4542 13.8182V2.18179C17.4535 1.60336 17.2234 1.04884 16.8144 0.639828C16.4054 0.23082 15.8509 0.000721678 15.2725 0ZM15.2725 14.5454H2.18178C1.98901 14.5451 1.80422 14.4684 1.66791 14.3321C1.5316 14.1958 1.4549 14.011 1.45463 13.8182V3.63643H15.9996V13.8182C15.9993 14.011 15.9226 14.1958 15.7863 14.3321C15.65 14.4684 15.4652 14.5451 15.2725 14.5454Z" fill="#637280"/>
</g>
</svg>
