<svg width="10" height="10" viewBox="0 0 10 10" fill="none" xmlns="http://www.w3.org/2000/svg">
<path d="M5.89062 1V3H8.55729" stroke="#495057" stroke-width="0.5"/>
<path d="M6.33464 4.19922L3.66797 6.59922" stroke="#495057" stroke-width="0.5"/>
<path d="M3.66797 4.19922L6.33464 6.59922" stroke="#495057" stroke-width="0.5"/>
<path d="M5.89062 1V3H8.55729" stroke="#495057"/>
<path d="M6.33464 4.19922L3.66797 6.59922" stroke="#495057"/>
<path d="M3.66797 4.19922L6.33464 6.59922" stroke="#495057"/>
<path d="M2 1H5.59519C5.78694 1 5.97465 1.05513 6.13594 1.15882L8.54076 2.70477C8.82698 2.88877 9 3.20569 9 3.54595V8C9 8.55228 8.55228 9 8 9H2C1.44772 9 1 8.55228 1 8V2C1 1.44772 1.44772 1 2 1Z" stroke="#495057"/>
</svg>
