<svg width="12" height="16" viewBox="0 0 12 16" fill="none" xmlns="http://www.w3.org/2000/svg">
<g clip-path="url(#clip0_152_4339)">
<path d="M11.5897 4.38215V14.9695C11.5899 15.1048 11.5633 15.2389 11.5116 15.364C11.4598 15.4891 11.3839 15.6028 11.2882 15.6985C11.1925 15.7943 11.0788 15.8702 10.9537 15.9219C10.8286 15.9736 10.6945 16.0002 10.5591 16H1.03054C0.895164 16.0002 0.761082 15.9736 0.635977 15.9219C0.510871 15.8702 0.397199 15.7943 0.301472 15.6985C0.205744 15.6028 0.129842 15.4891 0.0781104 15.364C0.0263792 15.2389 -0.000164132 15.1048 7.63589e-07 14.9695V1.03054C-0.000164132 0.895162 0.0263792 0.761081 0.0781104 0.635975C0.129842 0.51087 0.205744 0.397199 0.301472 0.301471C0.397199 0.205744 0.510871 0.129841 0.635977 0.0781101C0.761082 0.026379 0.895164 -0.000164132 1.03054 7.6359e-07H7.20753L11.5897 4.38215Z" fill="#23A566"/>
<path d="M8.32866 7.96552H3.26054C3.17331 7.96552 3.08965 8.00017 3.02797 8.06185C2.96629 8.12353 2.93164 8.20718 2.93164 8.29441V12.7079C2.93164 12.7951 2.96629 12.8788 3.02797 12.9404C3.08965 13.0021 3.17331 13.0368 3.26054 13.0368H8.3318C8.41903 13.0368 8.50268 13.0021 8.56436 12.9404C8.62604 12.8788 8.66069 12.7951 8.66069 12.7079V8.29754C8.65956 8.20984 8.62421 8.12604 8.56219 8.06402C8.50016 8.002 8.41637 7.96665 8.32866 7.96552ZM3.58943 10.083H5.4657V10.9193H3.58943V10.083ZM6.1235 10.083H7.99977V10.9193H6.1235V10.083ZM7.99977 9.42519H6.1235V8.62644H7.99977V9.42519ZM5.4657 8.62644V9.42519H3.58943V8.62644H5.4657ZM3.58943 11.5802H5.4657V12.379H3.58943V11.5802ZM6.1235 12.379V11.5802H7.99977V12.379H6.1235Z" fill="white"/>
<path opacity="0.19" d="M7.79639 4.22239L11.5897 7.29521V4.41033L9.43773 3.16052L7.79639 4.22239Z" fill="black"/>
<path d="M11.5897 4.38215H8.23806C8.10268 4.38231 7.9686 4.35577 7.8435 4.30404C7.71839 4.25231 7.60472 4.1764 7.50899 4.08067C7.41326 3.98495 7.33736 3.87128 7.28563 3.74617C7.2339 3.62107 7.20736 3.48698 7.20752 3.35161V0L11.5897 4.38215Z" fill="#8ED1B1"/>
</g>
<defs>
<clipPath id="clip0_152_4339">
<rect width="11.5897" height="16" fill="white"/>
</clipPath>
</defs>
</svg>
