<svg width="18" height="20" viewBox="0 0 18 20" fill="none" xmlns="http://www.w3.org/2000/svg">
<path d="M16.8937 5.85631L11.6437 0.606312C11.5937 0.552084 11.5327 0.509026 11.4649 0.479949C11.397 0.450872 11.3238 0.436428 11.25 0.437562H2.25C1.9019 0.437562 1.56806 0.575843 1.32192 0.821984C1.07578 1.06813 0.9375 1.40197 0.9375 1.75006V18.2501C0.9375 18.5982 1.07578 18.932 1.32192 19.1781C1.56806 19.4243 1.9019 19.5626 2.25 19.5626H15.75C16.0981 19.5626 16.4319 19.4243 16.6781 19.1781C16.9242 18.932 17.0625 18.5982 17.0625 18.2501V6.25006C17.0636 6.17626 17.0492 6.10304 17.0201 6.03519C16.991 5.96734 16.948 5.90639 16.8937 5.85631ZM11.8125 2.35944L15.1406 5.68756H11.8125V2.35944ZM15.75 18.4376H2.25C2.20027 18.4376 2.15258 18.4178 2.11742 18.3826C2.08225 18.3475 2.0625 18.2998 2.0625 18.2501V1.75006C2.0625 1.70033 2.08225 1.65264 2.11742 1.61748C2.15258 1.58232 2.20027 1.56256 2.25 1.56256H10.6875V6.25006C10.6875 6.39925 10.7468 6.54232 10.8523 6.64781C10.9577 6.7533 11.1008 6.81256 11.25 6.81256H15.9375V18.2501C15.9375 18.2998 15.9177 18.3475 15.8826 18.3826C15.8474 18.4178 15.7997 18.4376 15.75 18.4376ZM11.6437 10.3938L9.79688 12.2501L11.6437 14.1063C11.6955 14.158 11.7365 14.2194 11.7645 14.287C11.7924 14.3545 11.8068 14.4269 11.8068 14.5001C11.8068 14.5732 11.7924 14.6456 11.7645 14.7132C11.7365 14.7807 11.6955 14.8421 11.6437 14.8938C11.592 14.9455 11.5307 14.9865 11.4631 15.0145C11.3955 15.0425 11.3231 15.0569 11.25 15.0569C11.1769 15.0569 11.1045 15.0425 11.0369 15.0145C10.9693 14.9865 10.908 14.9455 10.8563 14.8938L9 13.0469L7.14375 14.8938C7.03932 14.9982 6.89768 15.0569 6.75 15.0569C6.60232 15.0569 6.46068 14.9982 6.35625 14.8938C6.25182 14.7894 6.19315 14.6477 6.19315 14.5001C6.19315 14.3524 6.25182 14.2107 6.35625 14.1063L8.20312 12.2501L6.35625 10.3938C6.25182 10.2894 6.19315 10.1477 6.19315 10.0001C6.19315 9.85238 6.25182 9.71074 6.35625 9.60631C6.46068 9.50188 6.60232 9.44322 6.75 9.44322C6.89768 9.44322 7.03932 9.50188 7.14375 9.60631L9 11.4532L10.8563 9.60631C10.9607 9.50188 11.1023 9.44322 11.25 9.44322C11.3977 9.44322 11.5393 9.50188 11.6437 9.60631C11.7482 9.71074 11.8068 9.85238 11.8068 10.0001C11.8068 10.1477 11.7482 10.2894 11.6437 10.3938Z" fill="#495057"/>
</svg>
