<svg width="16" height="16" viewBox="0 0 16 16" fill="none" xmlns="http://www.w3.org/2000/svg">
<path d="M7.992 16C3.57477 15.9956 -0.00294046 12.4119 1.81347e-06 7.99467C0.00294772 3.57743 3.58543 -0.00147003 8.00267 4.52979e-07C12.4199 0.00147185 16 3.58276 16 8C15.9974 12.4203 12.4123 16.0018 7.992 16ZM1.6 8.1376C1.63785 11.6586 4.51289 14.4876 8.03403 14.4688C11.5552 14.4498 14.3996 11.59 14.3996 8.06879C14.3996 4.5476 11.5552 1.68782 8.03403 1.66879C4.51289 1.64996 1.63785 4.479 1.6 8V8.1376ZM8.8 12H7.2V10.4H8.8V12ZM8.8 8.8H7.2V4H8.8V8.8Z" fill="#212529"/>
</svg>
