<?xml version="1.0" encoding="UTF-8"?>
<svg width="700pt" height="700pt" version="1.1" viewBox="0 0 700 700" xmlns="http://www.w3.org/2000/svg">
 <g>
  <path d="m455 455h-315v-315h105v-70h-140c-19.32 0-35 15.68-35 35v385c0 19.355 15.68 35 35 35h385c19.355 0 35-15.645 35-35v-173.91h-70z"/>
  <path d="m623 143.5-140-105c-5.25-3.9883-12.391-4.6211-18.305-1.6445-5.9492 2.9727-9.6953 9.0312-9.6953 15.645v52.5h-52.5c-106.16 0-192.5 86.344-192.5 192.5 0 8.1211 5.6016 15.191 13.477 17.047 1.3281 0.3125 2.6953 0.45312 4.0234 0.45312 6.5117 0 12.637-3.6406 15.645-9.6602l4.1289-8.2266c26.848-53.723 80.816-87.113 140.88-87.113h66.852v52.5c0 6.6133 3.7461 12.672 9.6602 15.645 5.9141 2.9766 13.055 2.3438 18.34-1.6445l140-105c4.4102-3.2891 7-8.5039 7-14s-2.5898-10.711-7-14z"/>
 </g>
</svg>
