<svg width="11" height="13" viewBox="0 0 11 13" fill="none" xmlns="http://www.w3.org/2000/svg">
<path d="M9.625 12.25C9.98967 12.25 10.3394 12.1209 10.5973 11.8912C10.8551 11.6615 11 11.3499 11 11.025V7.9625L7.5625 10.4125V8.575H2.75V7.35H7.5625V5.5125L11 7.9625V3.675L6.875 0H1.375C1.01033 0 0.660591 0.129062 0.402728 0.358794C0.144866 0.588526 0 0.90011 0 1.225V11.025C0 11.3499 0.144866 11.6615 0.402728 11.8912C0.660591 12.1209 1.01033 12.25 1.375 12.25H9.625ZM6.1875 1.225L9.625 4.2875H6.1875V1.225Z" fill="#495057"/>
</svg>
