<svg width="24" height="24" viewBox="0 0 24 24" fill="none" xmlns="http://www.w3.org/2000/svg">
<rect x="6.10352e-05" width="24" height="24" rx="12" fill="#F3F3F3"/>
<g clip-path="url(#clip0_28_597)">
<path d="M17.0286 14.1175L16.7321 6.12303L19.397 6.02421L19.6934 14.0187L17.0286 14.1175ZM14.0673 6.22184C14.4207 6.20874 14.7648 6.33655 15.0239 6.57716C15.2831 6.81777 15.436 7.15147 15.4491 7.50485L15.6962 14.1669C15.7098 14.5334 15.5755 14.8719 15.3379 15.1209L11.1171 19.6737L10.3847 18.9937C10.1982 18.8205 10.0758 18.5782 10.0654 18.2984L10.0777 18.0912L10.5977 15.0231L6.39395 15.179C6.04057 15.1921 5.69646 15.0643 5.43732 14.8237C5.17817 14.5831 5.02523 14.2494 5.01212 13.896L4.96272 12.5636C4.95629 12.3904 4.98368 12.2292 5.03795 12.0738L6.87574 7.3024C7.05782 6.81532 7.51848 6.46468 8.07143 6.44417L14.0673 6.22184ZM14.1167 7.55426L8.10085 7.77733L6.29513 12.5142L6.34454 13.8466L12.1939 13.6297L11.5725 17.2018L14.363 14.1964L14.1167 7.55426Z" fill="#495057"/>
</g>
<defs>
<clipPath id="clip0_28_597">
<rect width="16" height="16" fill="white" transform="translate(4.00006 4.59375) rotate(-2.12358)"/>
</clipPath>
</defs>
</svg>
