<svg width="16" height="14" viewBox="0 0 16 14" fill="none" xmlns="http://www.w3.org/2000/svg">
<g clip-path="url(#clip0_152_4852)">
<path fill-rule="evenodd" clip-rule="evenodd" d="M0.921301 -0.00134277H15.0803C15.3243 -0.000656282 15.5581 0.0965609 15.7306 0.269068C15.9031 0.441575 16.0003 0.675347 16.001 0.919308V12.8217C16.0002 13.0657 15.9029 13.2993 15.7305 13.4718C15.558 13.6442 15.3242 13.7414 15.0803 13.7421H0.921301C0.677427 13.7414 0.443738 13.6442 0.271292 13.4718C0.098846 13.2993 0.00166305 13.0656 0.000976562 12.8217V0.919308C0.00166264 0.675403 0.0988353 0.44168 0.271272 0.269182C0.443709 0.0966843 0.677397 -0.000570527 0.921301 -0.00134277V-0.00134277Z" fill="#80D6FB"/>
<path fill-rule="evenodd" clip-rule="evenodd" d="M0 2.38402H16V0.920609C15.9997 0.676423 15.9026 0.442317 15.73 0.269529C15.5575 0.0967416 15.3235 -0.000654923 15.0793 -0.00134277H0.921301C0.677397 -0.000570527 0.443709 0.0966843 0.271272 0.269182C0.0988353 0.44168 0.00166264 0.675403 0.000976562 0.919308L0 2.38402Z" fill="#6E83B7"/>
<path d="M3.04987 1.54504C3.24528 1.54504 3.40369 1.38663 3.40369 1.19122C3.40369 0.995813 3.24528 0.837402 3.04987 0.837402C2.85446 0.837402 2.69604 0.995813 2.69604 1.19122C2.69604 1.38663 2.85446 1.54504 3.04987 1.54504Z" fill="#FFD54F"/>
<path d="M4.45018 1.54531C4.64541 1.54531 4.80367 1.38704 4.80367 1.19181C4.80367 0.996583 4.64541 0.838318 4.45018 0.838318C4.25495 0.838318 4.09668 0.996583 4.09668 1.19181C4.09668 1.38704 4.25495 1.54531 4.45018 1.54531Z" fill="#88BF57"/>
<path d="M1.64752 1.54535C1.84294 1.54535 2.00135 1.38694 2.00135 1.19153C2.00135 0.996118 1.84294 0.837708 1.64752 0.837708C1.45211 0.837708 1.2937 0.996118 1.2937 1.19153C1.2937 1.38694 1.45211 1.54535 1.64752 1.54535Z" fill="#EB745E"/>
<path fill-rule="evenodd" clip-rule="evenodd" d="M2.39519 5.38568H13.6043C13.647 5.38568 13.6893 5.39409 13.7287 5.41044C13.7682 5.42678 13.804 5.45073 13.8342 5.48093C13.8644 5.51113 13.8884 5.54698 13.9047 5.58643C13.9211 5.62589 13.9295 5.66818 13.9295 5.71088V10.4166C13.9295 10.5028 13.8952 10.5855 13.8342 10.6465C13.7733 10.7075 13.6905 10.7418 13.6043 10.7418H2.39454C2.30829 10.7418 2.22557 10.7075 2.16459 10.6465C2.1036 10.5855 2.06934 10.5028 2.06934 10.4166V5.71088C2.06934 5.66812 2.07777 5.62578 2.09415 5.58628C2.11054 5.54679 2.13455 5.51091 2.16482 5.4807C2.19508 5.4505 2.23101 5.42655 2.27054 5.41025C2.31007 5.39394 2.35243 5.3856 2.39519 5.38568V5.38568Z" fill="#FFD54F"/>
<path fill-rule="evenodd" clip-rule="evenodd" d="M4.35207 9.34147C4.35207 9.42772 4.3178 9.51044 4.25682 9.57143C4.19583 9.63241 4.11311 9.66668 4.02686 9.66668C3.94061 9.66668 3.8579 9.63241 3.79691 9.57143C3.73592 9.51044 3.70166 9.42772 3.70166 9.34147V6.78602C3.70166 6.74331 3.71007 6.70102 3.72642 6.66157C3.74276 6.62211 3.76671 6.58626 3.79691 6.55607C3.82711 6.52587 3.86296 6.50191 3.90241 6.48557C3.94187 6.46923 3.98416 6.46082 4.02686 6.46082H5.84117C5.88388 6.46082 5.92617 6.46923 5.96562 6.48557C6.00508 6.50191 6.04093 6.52587 6.07113 6.55607C6.10132 6.58626 6.12528 6.62211 6.14162 6.66157C6.15796 6.70102 6.16638 6.74331 6.16638 6.78602C6.16638 6.87227 6.13211 6.95499 6.07113 7.01597C6.01014 7.07696 5.92742 7.11122 5.84117 7.11122H4.35207V7.73854H5.21386C5.3001 7.73854 5.38282 7.7728 5.44381 7.83379C5.5048 7.89478 5.53906 7.9775 5.53906 8.06375C5.53906 8.15 5.5048 8.23271 5.44381 8.2937C5.38282 8.35469 5.3001 8.38895 5.21386 8.38895H4.35207V9.34147ZM10.4834 9.34147C10.4834 9.42772 10.4492 9.51044 10.3882 9.57143C10.3272 9.63241 10.2445 9.66668 10.1582 9.66668C10.072 9.66668 9.98928 9.63241 9.92829 9.57143C9.86731 9.51044 9.83304 9.42772 9.83304 9.34147V6.78602C9.83304 6.74331 9.84145 6.70102 9.8578 6.66157C9.87414 6.62211 9.89809 6.58626 9.92829 6.55607C9.95849 6.52587 9.99434 6.50191 10.0338 6.48557C10.0733 6.46923 10.1155 6.46082 10.1582 6.46082H11.3339C11.4604 6.46082 11.5857 6.48581 11.7026 6.53436C11.8194 6.58291 11.9255 6.65407 12.0148 6.74374C12.1047 6.83326 12.176 6.9397 12.2246 7.05691C12.2731 7.17413 12.298 7.2998 12.2978 7.42667C12.2978 7.55322 12.2728 7.67852 12.2242 7.79538C12.1757 7.91224 12.1045 8.01836 12.0148 8.10765C11.9255 8.19732 11.8194 8.26848 11.7026 8.31703C11.5857 8.36558 11.4604 8.39058 11.3339 8.39058H10.4821L10.4834 9.34147ZM10.4834 7.11122V7.73854H11.3339C11.375 7.73845 11.4157 7.73025 11.4536 7.7144C11.4916 7.69855 11.526 7.67537 11.555 7.64618C11.5842 7.61721 11.6074 7.58277 11.6232 7.54482C11.6391 7.50687 11.6473 7.46617 11.6474 7.42505C11.6473 7.38387 11.6391 7.34312 11.6232 7.30512C11.6074 7.26712 11.5842 7.23261 11.555 7.20358C11.526 7.17439 11.4916 7.15121 11.4536 7.13536C11.4157 7.11951 11.375 7.11131 11.3339 7.11122H10.4834ZM8.32508 9.34147C8.32508 9.42772 8.29081 9.51044 8.22983 9.57143C8.16884 9.63241 8.08612 9.66668 7.99987 9.66668C7.91362 9.66668 7.83091 9.63241 7.76992 9.57143C7.70893 9.51044 7.67467 9.42772 7.67467 9.34147V7.11122H7.09255C7.00631 7.11122 6.92359 7.07696 6.8626 7.01597C6.80161 6.95499 6.76735 6.87227 6.76735 6.78602C6.76735 6.74331 6.77576 6.70102 6.79211 6.66157C6.80845 6.62211 6.8324 6.58626 6.8626 6.55607C6.8928 6.52587 6.92865 6.50191 6.96811 6.48557C7.00756 6.46923 7.04985 6.46082 7.09255 6.46082H8.90686C8.94957 6.46082 8.99186 6.46923 9.03131 6.48557C9.07077 6.50191 9.10662 6.52587 9.13682 6.55607C9.16702 6.58626 9.19097 6.62211 9.20731 6.66157C9.22366 6.70102 9.23207 6.74331 9.23207 6.78602C9.23207 6.87227 9.1978 6.95499 9.13682 7.01597C9.07583 7.07696 8.99311 7.11122 8.90686 7.11122H8.32508V9.34147Z" fill="#666666"/>
</g>
<defs>
<clipPath id="clip0_152_4852">
<rect width="16" height="13.7437" fill="white"/>
</clipPath>
</defs>
</svg>
