<svg width="42" height="42" viewBox="0 0 42 42" fill="none" xmlns="http://www.w3.org/2000/svg">
<circle cx="21" cy="21" r="21" fill="#FBFBFB"/>
<path d="M25.8333 18.875H20.9583C20.36 18.875 19.875 19.36 19.875 19.9583V24.8333C19.875 25.4316 20.36 25.9167 20.9583 25.9167H25.8333C26.4316 25.9167 26.9167 25.4316 26.9167 24.8333V19.9583C26.9167 19.36 26.4316 18.875 25.8333 18.875Z" stroke="black" stroke-width="1.5" stroke-linecap="round" stroke-linejoin="round"/>
<path d="M17.7085 22.1252H17.1668C16.8795 22.1252 16.604 22.011 16.4008 21.8079C16.1976 21.6047 16.0835 21.3291 16.0835 21.0418V16.1668C16.0835 15.8795 16.1976 15.604 16.4008 15.4008C16.604 15.1976 16.8795 15.0835 17.1668 15.0835H22.0418C22.3291 15.0835 22.6047 15.1976 22.8079 15.4008C23.011 15.604 23.1252 15.8795 23.1252 16.1668V16.7085" stroke="black" stroke-width="1.5" stroke-linecap="round" stroke-linejoin="round"/>
</svg>