<svg width="24" height="24" viewBox="0 0 24 24" fill="none" xmlns="http://www.w3.org/2000/svg">
<rect width="24" height="24" rx="12" fill="#F3F3F3"/>
<path d="M16.7684 16.093L17.9263 17.3497C18.0105 17.441 18.1158 17.4867 18.2421 17.4867C18.3684 17.4867 18.4737 17.441 18.5579 17.3497C18.6421 17.2583 18.6842 17.144 18.6842 17.0069C18.6842 16.8698 18.6421 16.7556 18.5579 16.6642L17.4211 15.4304L18.5789 14.1738C18.6632 14.0824 18.7053 13.9682 18.7053 13.8311C18.7053 13.694 18.6632 13.5798 18.5789 13.4884C18.4947 13.397 18.3895 13.3513 18.2632 13.3513C18.1368 13.3513 18.0316 13.397 17.9474 13.4884L16.7895 14.745L15.6316 13.4884C15.5474 13.397 15.4421 13.3513 15.3158 13.3513C15.1895 13.3513 15.0842 13.397 15 13.4884C14.9158 13.5798 14.8737 13.694 14.8737 13.8311C14.8737 13.9682 14.9158 14.0824 15 14.1738L16.1579 15.4304L14.9789 16.7099C14.8947 16.8013 14.8563 16.9079 14.8636 17.0298C14.8703 17.1516 14.9158 17.2583 15 17.3497C15.0842 17.441 15.1861 17.4867 15.3057 17.4867C15.4247 17.4867 15.5263 17.441 15.6105 17.3497L16.7684 16.093ZM5 16.8013C5 17.1364 5.12632 17.3914 5.37895 17.5662C5.63158 17.7417 5.89825 17.7685 6.17895 17.6467L10.8947 15.4761V15.4304C10.8947 15.0649 10.9228 14.7106 10.9789 14.3676C11.0351 14.0251 11.1193 13.6788 11.2316 13.3284L6.68421 15.4304V12.2317L11.7368 10.8609L6.68421 9.49V6.2913L14.1368 9.71848C14.5439 9.50523 14.9649 9.33768 15.4 9.21583C15.8351 9.09397 16.2982 9.03304 16.7895 9.03304H17.0421L6.15789 4.07506C5.87719 3.95321 5.61418 3.97971 5.36884 4.15458C5.12295 4.33005 5 4.58533 5 4.92043V16.8013ZM16.7895 20C15.6246 20 14.6317 19.5546 13.8109 18.6639C12.9896 17.7725 12.5789 16.6947 12.5789 15.4304C12.5789 14.1662 12.9896 13.0884 13.8109 12.197C14.6317 11.3062 15.6246 10.8609 16.7895 10.8609C17.9544 10.8609 18.9475 11.3062 19.7688 12.197C20.5896 13.0884 21 14.1662 21 15.4304C21 16.6947 20.5896 17.7725 19.7688 18.6639C18.9475 19.5546 17.9544 20 16.7895 20ZM6.68421 13.3284V15.4304V6.2913V13.3284Z" fill="#495057"/>
</svg>
