<svg width="21" height="14" viewBox="0 0 21 14" fill="none" xmlns="http://www.w3.org/2000/svg">
<g opacity="0.7" clip-path="url(#clip0_1612_1180)">
<path d="M12.0175 8.57215L8.08012 4.85335C8.01475 4.79198 7.96265 4.71786 7.92704 4.63557C7.89142 4.55329 7.87305 4.46457 7.87305 4.37491C7.87305 4.28524 7.89142 4.19653 7.92704 4.11424C7.96265 4.03196 8.01475 3.95784 8.08012 3.89647L12.0175 0.177662C12.4355 -0.213619 13.1249 0.0820974 13.1249 0.656304V2.62501H17.7186C18.2406 2.62447 18.741 2.41688 19.1101 2.04779C19.4792 1.67871 19.6868 1.17827 19.6873 0.656304C19.6873 0.48226 19.7565 0.315343 19.8795 0.192275C20.0026 0.069207 20.1695 6.78548e-05 20.3436 6.78548e-05C20.5176 6.78548e-05 20.6845 0.069207 20.8076 0.192275C20.9307 0.315343 20.9998 0.48226 20.9998 0.656304V1.96878C20.9985 3.07062 20.5602 4.12697 19.7811 4.90609C19.002 5.68522 17.9456 6.1235 16.8438 6.1248H13.1249V8.09351C13.1249 8.67018 12.4347 8.96262 12.0175 8.57215Z" fill="#637280"/>
<path d="M20.1247 12.2499H19.2495V7.35686C18.6946 7.60587 18.1043 7.7668 17.4998 7.83386V12.2499H3.4998V3.49982H6.29824C6.42492 3.16893 6.62325 2.87017 6.87901 2.62497L7.80553 1.75012H3.49897C3.03506 1.75056 2.59027 1.93504 2.26224 2.26308C1.9342 2.59111 1.74972 3.0359 1.74928 3.49982V12.2499H0.874846C0.642823 12.2499 0.420302 12.3421 0.256237 12.5062C0.092171 12.6702 0 12.8928 0 13.1248C0 13.3568 0.092171 13.5793 0.256237 13.7434C0.420302 13.9075 0.642823 13.9996 0.874846 13.9996H20.1247C20.3568 13.9996 20.5793 13.9075 20.7434 13.7434C20.9074 13.5793 20.9996 13.3568 20.9996 13.1248C20.9996 12.8928 20.9074 12.6702 20.7434 12.5062C20.5793 12.3421 20.3568 12.2499 20.1247 12.2499Z" fill="#637280"/>
</g>
<defs>
<clipPath id="clip0_1612_1180">
<rect width="20.9996" height="14" fill="white"/>
</clipPath>
</defs>
</svg>
