<svg width="12" height="13" viewBox="0 0 12 13" fill="none" xmlns="http://www.w3.org/2000/svg">
<path d="M1.75 12.25C1.38533 12.25 1.03559 12.1209 0.777728 11.8912C0.519866 11.6615 0.375 11.3499 0.375 11.025V7.9625L3.8125 10.4125V8.575H8.625V7.35H3.8125V5.5125L0.375 7.9625V3.675L4.5 0H10C10.3647 0 10.7144 0.129062 10.9723 0.358794C11.2301 0.588526 11.375 0.90011 11.375 1.225V11.025C11.375 11.3499 11.2301 11.6615 10.9723 11.8912C10.7144 12.1209 10.3647 12.25 10 12.25H1.75ZM5.1875 1.225L1.75 4.2875H5.1875V1.225Z" fill="white"/>
</svg>
