<svg width="16" height="16" viewBox="0 0 16 16" fill="none" xmlns="http://www.w3.org/2000/svg">
<g clip-path="url(#clip0_152_4844)">
<path d="M0 11.3684V0.842105C0 0.618765 0.0887216 0.404572 0.246647 0.246647C0.404572 0.0887216 0.618765 0 0.842105 0H15.1579C15.3812 0 15.5954 0.0887216 15.7534 0.246647C15.9113 0.404572 16 0.618765 16 0.842105V11.3684C16 11.5918 15.9113 11.806 15.7534 11.9639C15.5954 12.1218 15.3812 12.2105 15.1579 12.2105H0.842105C0.618765 12.2105 0.404572 12.1218 0.246647 11.9639C0.0887216 11.806 0 11.5918 0 11.3684V11.3684Z" fill="#80D6FB"/>
<path d="M0 11.3684V10.1895H16V11.3684C16 11.5917 15.9113 11.8059 15.7534 11.9639C15.5954 12.1218 15.3812 12.2105 15.1579 12.2105H0.842105C0.618765 12.2105 0.404572 12.1218 0.246647 11.9639C0.0887216 11.8059 0 11.5917 0 11.3684V11.3684Z" fill="#6E83B7"/>
<path d="M5.89478 12.2105H10.1053V14.3158H5.89478V12.2105Z" fill="#466089"/>
<path d="M4.21045 14.3158H11.7894V15.4947H4.21045V14.3158Z" fill="#6E83B7"/>
</g>
<defs>
<clipPath id="clip0_152_4844">
<rect width="16" height="15.4947" fill="white"/>
</clipPath>
</defs>
</svg>
