<svg xmlns="http://www.w3.org/2000/svg" width="85" height="35" viewBox="0 0 85 35">
    <g fill="none" fill-rule="evenodd">
        <path fill="#E5712A" d="M27.275 6.098a1.87 1.87 0 0 0-1.87 1.87v23.9a1.87 1.87 0 1 0 3.74 0v-23.9a1.87 1.87 0 0 0-1.87-1.87"/>
        <path fill="#E5712A" d="M32.584 0H8.308C3.728 0 0 3.727 0 8.308c0 4.581 3.727 8.308 8.308 8.308h1.566v15.253a1.87 1.87 0 1 0 3.74 0v-23.9a1.87 1.87 0 0 0-3.74 0v4.907H8.308A4.573 4.573 0 0 1 3.74 8.308 4.573 4.573 0 0 1 8.308 3.74h24.276a1.87 1.87 0 0 0 0-3.74M35.911 20.325v6.06c0 .42-.1.737-.3.952a.993.993 0 0 1-.76.322.947.947 0 0 1-.749-.33c-.192-.22-.288-.535-.288-.945v-5.998c0-.414.096-.727.288-.937a.968.968 0 0 1 .749-.314c.307 0 .56.105.76.314.2.21.3.503.3.876zm-1.037-2.166c-.292 0-.541-.09-.749-.269-.207-.179-.31-.432-.31-.76 0-.297.105-.541.318-.733a1.07 1.07 0 0 1 .741-.288c.271 0 .512.087.722.261.21.174.315.427.315.76 0 .323-.103.575-.307.757a1.064 1.064 0 0 1-.73.272z"/>
        <path fill="#100F2C" d="M42.024 25.77l-1.805-7.173v7.772c0 .43-.095.753-.288.968-.192.215-.446.322-.763.322a.975.975 0 0 1-.753-.318c-.195-.213-.292-.537-.292-.972V17.46c0-.49.127-.823.384-.994.256-.172.602-.258 1.036-.258h.707c.425 0 .734.039.926.116a.778.778 0 0 1 .426.415c.092.2.197.524.315.975l1.635 6.167 1.637-6.167c.117-.45.222-.776.314-.975a.778.778 0 0 1 .427-.415c.192-.077.5-.116.925-.116h.706c.436 0 .781.087 1.038.258.255.171.383.503.383.994v8.909c0 .43-.096.753-.288.968-.192.215-.449.322-.771.322a.961.961 0 0 1-.746-.322c-.194-.215-.291-.538-.291-.968v-7.772l-1.805 7.173c-.118.466-.214.808-.288 1.025a1.413 1.413 0 0 1-.411.595c-.2.18-.476.27-.83.27-.266 0-.491-.058-.675-.173a1.24 1.24 0 0 1-.43-.442 2.501 2.501 0 0 1-.242-.595c-.06-.218-.12-.444-.18-.68M52.93 22.721h3.802c-.052-.717-.245-1.253-.58-1.609-.336-.356-.777-.534-1.325-.534-.523 0-.951.181-1.287.542-.335.36-.538.895-.61 1.601zm4.101 1.19H52.93c.005.477.1.897.288 1.26.187.364.435.638.745.822.31.184.651.276 1.025.276a2.231 2.231 0 0 0 1.29-.365c.195-.125.374-.26.538-.403.164-.143.376-.338.638-.583.107-.093.26-.138.46-.138a.76.76 0 0 1 .522.176c.133.118.2.284.2.5 0 .189-.074.41-.223.663a2.634 2.634 0 0 1-.671.73c-.3.233-.676.426-1.13.58-.453.154-.974.23-1.562.23-1.347 0-2.394-.384-3.142-1.152-.747-.768-1.12-1.81-1.12-3.126 0-.619.091-1.194.276-1.723.184-.53.453-.985.806-1.364.353-.378.789-.669 1.306-.872a4.693 4.693 0 0 1 1.72-.303c.82 0 1.522.173 2.108.519.586.345 1.026.792 1.317 1.34.292.548.438 1.106.438 1.674 0 .527-.151.87-.453 1.025-.302.157-.727.235-1.275.235zM62.607 24.634v1.75c0 .426-.1.744-.3.957a1 1 0 0 1-.76.318.96.96 0 0 1-.745-.322c-.195-.215-.292-.533-.292-.953v-5.836c0-.942.34-1.413 1.022-1.413.348 0 .599.11.752.33.154.22.238.545.254.975.25-.43.508-.755.772-.975.263-.22.615-.33 1.055-.33.44 0 .868.11 1.283.33.415.22.622.512.622.875a.832.832 0 0 1-.265.634c-.176.167-.367.25-.572.25-.077 0-.262-.048-.557-.143a2.596 2.596 0 0 0-.78-.141c-.306 0-.557.08-.752.241-.194.161-.345.4-.453.718a5.028 5.028 0 0 0-.223 1.133 17.52 17.52 0 0 0-.061 1.602M74.526 25.063c0 .262-.078.541-.234.838-.156.297-.394.58-.714.849-.32.268-.723.484-1.21.648a5.132 5.132 0 0 1-1.644.246c-1.295 0-2.306-.377-3.033-1.133-.727-.755-1.09-1.767-1.09-3.037 0-.86.166-1.62.499-2.281a3.584 3.584 0 0 1 1.443-1.532c.63-.361 1.383-.542 2.259-.542a4.5 4.5 0 0 1 1.493.238c.453.159.837.364 1.152.615.315.25.556.518.722.802.166.285.25.55.25.795 0 .251-.094.464-.28.638a.962.962 0 0 1-.68.26.684.684 0 0 1-.434-.134 2.119 2.119 0 0 1-.388-.434c-.256-.389-.524-.68-.802-.875-.28-.195-.634-.292-1.064-.292-.62 0-1.119.242-1.498.726-.38.484-.568 1.146-.568 1.985 0 .394.048.756.146 1.087.097.33.238.612.422.845.185.233.407.41.668.53.262.12.548.18.86.18.42 0 .78-.097 1.08-.292.299-.194.564-.491.794-.89.128-.236.267-.42.415-.554.149-.133.33-.2.545-.2a.81.81 0 0 1 .638.293.936.936 0 0 1 .253.621M78.105 22.721h3.802c-.052-.717-.245-1.253-.58-1.609-.336-.356-.777-.534-1.325-.534-.522 0-.951.181-1.286.542-.335.36-.54.895-.61 1.601zm4.102 1.19h-4.102c.005.477.101.897.288 1.26.187.364.435.638.745.822.31.184.651.276 1.025.276.251 0 .48-.03.688-.088.207-.059.408-.15.603-.276.194-.126.373-.26.537-.404.164-.143.376-.338.638-.583.107-.093.26-.138.46-.138.215 0 .39.058.522.176.134.118.2.284.2.5 0 .189-.074.41-.222.663a2.634 2.634 0 0 1-.672.73c-.3.233-.676.426-1.13.58-.453.154-.973.23-1.562.23-1.347 0-2.394-.384-3.141-1.152-.748-.768-1.122-1.81-1.122-3.126 0-.619.093-1.194.277-1.723.184-.53.453-.985.806-1.364.354-.378.789-.669 1.306-.872a4.693 4.693 0 0 1 1.72-.303c.82 0 1.522.173 2.109.519.586.345 1.025.792 1.317 1.34.291.548.437 1.106.437 1.674 0 .527-.15.87-.453 1.025-.302.157-.727.235-1.274.235z"/>
        <path fill="#4D4E4C" d="M33.096 33.434h.37v-2.799h-.37zM34.075 33.434v-2.027h.31v.288a.727.727 0 0 1 .645-.334.85.85 0 0 1 .337.066c.102.043.18.101.23.172a.664.664 0 0 1 .107.254 2 2 0 0 1 .019.334v1.247h-.343v-1.233a.921.921 0 0 0-.04-.314.331.331 0 0 0-.143-.166.453.453 0 0 0-.24-.063.558.558 0 0 0-.379.14c-.106.093-.16.27-.16.529v1.107h-.343M37 33.127l.05.303a1.25 1.25 0 0 1-.26.03.588.588 0 0 1-.29-.058.33.33 0 0 1-.145-.156c-.028-.064-.042-.2-.042-.405v-1.167h-.252v-.267h.252v-.503l.342-.206v.709H37v.267h-.345v1.185c0 .098.005.161.018.19.012.028.032.05.059.066a.228.228 0 0 0 .118.025c.038 0 .088-.004.15-.013M37.596 32.226h1.132c-.015-.17-.058-.299-.13-.384a.528.528 0 0 0-.426-.199.545.545 0 0 0-.397.159.627.627 0 0 0-.18.424zm1.128.555l.355.044a.864.864 0 0 1-.31.483c-.152.115-.346.172-.581.172-.297 0-.532-.091-.706-.274-.173-.182-.26-.439-.26-.769 0-.34.088-.605.263-.794a.891.891 0 0 1 .684-.282c.271 0 .492.092.664.277.172.184.258.444.258.779 0 .02 0 .05-.002.091h-1.512c.013.223.076.393.189.512a.561.561 0 0 0 .423.177.526.526 0 0 0 .323-.099.657.657 0 0 0 .212-.317zM39.503 33.434h.344v-2.799h-.344zM40.372 33.434h.343v-2.799h-.343zM41.25 33.434h.364v-2.027h-.364v2.027zm0-2.404h.364v-.395h-.364v.395zM42.338 32.384c0 .266.053.46.158.582a.504.504 0 0 0 .397.184c.158 0 .29-.061.398-.183.107-.121.16-.312.16-.571 0-.249-.055-.436-.165-.561a.51.51 0 0 0-.788-.004c-.106.125-.16.309-.16.553zm-.285 1.218l.335.05c.014.103.053.178.116.225a.57.57 0 0 0 .35.096c.159 0 .281-.032.368-.096a.472.472 0 0 0 .176-.267c.017-.07.026-.217.024-.441a.707.707 0 0 1-.56.265c-.28 0-.495-.1-.648-.301a1.164 1.164 0 0 1-.23-.724c0-.193.036-.372.106-.536a.838.838 0 0 1 .304-.378.822.822 0 0 1 .469-.134c.24 0 .437.096.592.29v-.244h.317v1.752c0 .316-.032.54-.097.671a.702.702 0 0 1-.305.312c-.14.077-.311.115-.514.115-.242 0-.438-.054-.587-.163-.148-.109-.22-.273-.216-.492zM44.55 32.226h1.133c-.016-.17-.059-.299-.13-.384a.528.528 0 0 0-.426-.199.546.546 0 0 0-.398.159.628.628 0 0 0-.178.424zm1.129.555l.355.044a.866.866 0 0 1-.311.483c-.151.115-.345.172-.58.172-.297 0-.533-.091-.706-.274-.174-.182-.26-.439-.26-.769 0-.34.087-.605.263-.794a.89.89 0 0 1 .683-.282c.271 0 .493.092.664.277.172.184.258.444.258.779 0 .02 0 .05-.002.091h-1.511c.012.223.075.393.189.512a.561.561 0 0 0 .423.177.527.527 0 0 0 .323-.099.657.657 0 0 0 .212-.317zM46.465 33.434v-2.027h.31v.288a.727.727 0 0 1 .645-.334.85.85 0 0 1 .337.066c.102.043.18.101.23.172a.664.664 0 0 1 .107.254 2 2 0 0 1 .019.334v1.247h-.344v-1.233a.931.931 0 0 0-.04-.314.331.331 0 0 0-.142-.166.453.453 0 0 0-.24-.063.558.558 0 0 0-.379.14c-.106.093-.16.27-.16.529v1.107h-.343M49.39 33.127l.05.303c-.097.02-.183.03-.26.03a.588.588 0 0 1-.29-.058.33.33 0 0 1-.145-.156c-.028-.064-.042-.2-.042-.405v-1.167h-.252v-.267h.252v-.503l.341-.206v.709h.346v.267h-.346v1.185c0 .098.006.161.019.19.012.028.032.05.059.066a.228.228 0 0 0 .117.025c.039 0 .089-.004.151-.013M52.854 32.453l.37.093c-.078.304-.217.537-.42.696-.2.16-.447.24-.74.24-.3 0-.546-.061-.735-.184a1.15 1.15 0 0 1-.431-.534 1.905 1.905 0 0 1-.149-.75c0-.292.056-.546.168-.763a1.14 1.14 0 0 1 .475-.494c.205-.113.432-.17.679-.17.28 0 .515.072.706.215.191.142.324.342.4.6l-.365.087c-.065-.204-.16-.352-.283-.445a.754.754 0 0 0-.466-.14.906.906 0 0 0-.54.155.818.818 0 0 0-.304.415 1.672 1.672 0 0 0-.088.538c0 .238.035.446.105.623.069.178.177.31.323.398a.906.906 0 0 0 .475.132c.208 0 .383-.06.527-.18.144-.12.242-.297.293-.532M53.861 32.42c0 .26.057.454.17.583.114.13.256.194.428.194a.54.54 0 0 0 .426-.195c.113-.13.17-.327.17-.593 0-.25-.057-.44-.171-.57a.544.544 0 0 0-.425-.194.548.548 0 0 0-.428.193c-.113.128-.17.323-.17.582zm-.353 0c0-.375.105-.653.313-.834a.944.944 0 0 1 .638-.225.91.91 0 0 1 .684.274c.177.183.265.435.265.756 0 .262-.04.467-.117.617a.834.834 0 0 1-.342.348.997.997 0 0 1-.49.124c-.284 0-.513-.091-.688-.273-.175-.182-.263-.444-.263-.787zM55.81 33.434v-2.027h.308v.284a.724.724 0 0 1 .615-.33c.15 0 .273.03.37.093.096.063.163.15.202.262.161-.237.37-.355.627-.355.2 0 .356.055.464.167.108.111.162.283.162.514v1.392h-.342v-1.277a.936.936 0 0 0-.033-.297.287.287 0 0 0-.121-.146.48.48 0 0 0-.561.087c-.095.094-.142.247-.142.455v1.178h-.344v-1.317c0-.153-.028-.267-.083-.344-.056-.076-.148-.115-.275-.115a.498.498 0 0 0-.269.077.432.432 0 0 0-.178.223c-.037.098-.056.24-.056.424v1.052h-.343M59.068 33.434v-2.027h.307v.284a.724.724 0 0 1 .615-.33c.15 0 .273.03.37.093.095.063.163.15.202.262.161-.237.37-.355.626-.355.202 0 .356.055.465.167.108.111.162.283.162.514v1.392h-.342v-1.277a.949.949 0 0 0-.033-.297.29.29 0 0 0-.121-.146.48.48 0 0 0-.561.087c-.095.094-.142.247-.142.455v1.178h-.344v-1.317c0-.153-.028-.267-.084-.344-.056-.076-.147-.115-.275-.115a.498.498 0 0 0-.268.077.432.432 0 0 0-.178.223c-.037.098-.056.24-.056.424v1.052h-.343M62.584 32.226h1.133c-.016-.17-.059-.299-.13-.384a.528.528 0 0 0-.426-.199.546.546 0 0 0-.398.159.628.628 0 0 0-.179.424zm1.129.555l.355.044a.866.866 0 0 1-.311.483c-.151.115-.345.172-.58.172-.297 0-.533-.091-.706-.274-.174-.182-.26-.439-.26-.769 0-.34.087-.605.263-.794a.89.89 0 0 1 .683-.282c.271 0 .493.092.664.277.172.184.258.444.258.779 0 .02 0 .05-.002.091h-1.512c.013.223.076.393.19.512a.561.561 0 0 0 .423.177.527.527 0 0 0 .323-.099.657.657 0 0 0 .212-.317zM64.496 33.434v-2.027h.309v.307c.079-.144.151-.239.219-.285a.382.382 0 0 1 .22-.068c.116 0 .234.037.353.11l-.118.32a.491.491 0 0 0-.252-.075.327.327 0 0 0-.203.068.368.368 0 0 0-.128.188 1.33 1.33 0 0 0-.057.4v1.062h-.343M67.124 32.691l.338.045a.873.873 0 0 1-.283.546.825.825 0 0 1-.56.198c-.278 0-.501-.09-.67-.272-.169-.181-.253-.442-.253-.78 0-.22.037-.41.109-.575a.76.76 0 0 1 .331-.37.986.986 0 0 1 .484-.122c.22 0 .4.055.54.167.14.111.23.27.27.474l-.334.052a.553.553 0 0 0-.17-.308.438.438 0 0 0-.292-.103.534.534 0 0 0-.422.186c-.109.125-.163.32-.163.59 0 .272.052.47.157.593a.51.51 0 0 0 .409.185.482.482 0 0 0 .337-.124c.09-.082.148-.21.172-.382M68.016 32.226h1.132c-.015-.17-.058-.299-.13-.384a.529.529 0 0 0-.425-.199.545.545 0 0 0-.399.159.628.628 0 0 0-.178.424zm1.128.555l.355.044a.866.866 0 0 1-.31.483.934.934 0 0 1-.581.172c-.297 0-.532-.091-.706-.274-.173-.182-.26-.439-.26-.769 0-.34.088-.605.263-.794a.892.892 0 0 1 .684-.282c.27 0 .492.092.664.277.172.184.258.444.258.779 0 .02 0 .05-.002.091h-1.512c.013.223.075.393.189.512a.561.561 0 0 0 .423.177.527.527 0 0 0 .323-.099.662.662 0 0 0 .212-.317zM70.935 32.535l.35-.03c.016.14.054.254.115.344.06.09.154.162.282.218.127.055.27.083.429.083.141 0 .266-.021.374-.063a.52.52 0 0 0 .242-.173.402.402 0 0 0 .079-.24.365.365 0 0 0-.076-.23.563.563 0 0 0-.253-.165 4.966 4.966 0 0 0-.498-.136 2.553 2.553 0 0 1-.54-.175.756.756 0 0 1-.299-.26.638.638 0 0 1-.098-.35c0-.14.04-.272.12-.395a.747.747 0 0 1 .351-.28c.155-.064.326-.095.514-.095.208 0 .39.033.549.1a.79.79 0 0 1 .366.295c.085.13.13.277.137.44l-.355.028c-.02-.177-.084-.311-.194-.402-.11-.09-.273-.135-.488-.135-.224 0-.387.041-.49.123a.37.37 0 0 0-.153.297c0 .1.036.183.109.248.071.065.257.131.558.2.301.068.508.127.62.178.162.075.283.17.36.286a.693.693 0 0 1 .117.398.76.76 0 0 1-.128.42.84.84 0 0 1-.367.308c-.16.073-.34.11-.54.11-.253 0-.465-.037-.637-.111a.895.895 0 0 1-.402-.333.947.947 0 0 1-.154-.503M73.85 32.42c0 .26.057.454.17.583.114.13.256.194.428.194a.54.54 0 0 0 .426-.195c.113-.13.17-.327.17-.593 0-.25-.057-.44-.171-.57a.544.544 0 0 0-.425-.194.546.546 0 0 0-.428.193c-.113.128-.17.323-.17.582zm-.353 0c0-.375.105-.653.313-.834a.944.944 0 0 1 .638-.225.91.91 0 0 1 .684.274c.177.183.265.435.265.756 0 .262-.04.467-.117.617a.834.834 0 0 1-.342.348.997.997 0 0 1-.49.124c-.284 0-.513-.091-.688-.273-.175-.182-.263-.444-.263-.787zM75.792 33.434h.344v-2.799h-.344zM77.997 33.434v-.298a.742.742 0 0 1-.644.344.82.82 0 0 1-.334-.069.55.55 0 0 1-.231-.172.652.652 0 0 1-.106-.255 1.752 1.752 0 0 1-.022-.321v-1.256h.344v1.124c0 .18.007.3.021.363.022.09.068.161.138.213.07.051.156.077.26.077.102 0 .199-.027.29-.08a.44.44 0 0 0 .191-.215c.038-.09.057-.223.057-.396v-1.086h.343v2.027h-.307M79.593 33.127l.05.303c-.097.02-.183.03-.26.03a.588.588 0 0 1-.29-.058.33.33 0 0 1-.145-.156c-.028-.064-.042-.2-.042-.405v-1.167h-.252v-.267h.252v-.503l.342-.206v.709h.345v.267h-.345v1.185c0 .098.005.161.018.19.011.028.032.05.059.066a.228.228 0 0 0 .117.025c.038 0 .089-.004.151-.013M79.93 33.434h.365v-2.027h-.364v2.027zm0-2.404h.365v-.395h-.364v.395zM81.023 32.42c0 .26.056.454.17.583.113.13.256.194.427.194a.54.54 0 0 0 .426-.195c.114-.13.17-.327.17-.593 0-.25-.057-.44-.17-.57a.544.544 0 0 0-.426-.194.548.548 0 0 0-.427.193c-.114.128-.17.323-.17.582zm-.353 0c0-.375.104-.653.313-.834a.944.944 0 0 1 .637-.225.91.91 0 0 1 .684.274c.177.183.265.435.265.756 0 .262-.039.467-.117.617a.83.83 0 0 1-.342.348.995.995 0 0 1-.49.124c-.283 0-.513-.091-.687-.273-.176-.182-.263-.444-.263-.787zM82.972 33.434v-2.027h.31v.288a.727.727 0 0 1 .645-.334.85.85 0 0 1 .337.066c.102.043.18.101.23.172a.664.664 0 0 1 .107.254 2 2 0 0 1 .019.334v1.247h-.344v-1.233a.921.921 0 0 0-.04-.314.331.331 0 0 0-.142-.166.453.453 0 0 0-.24-.063.558.558 0 0 0-.379.14c-.106.093-.16.27-.16.529v1.107h-.343"/>
    </g>
</svg>
