<svg width="16" height="14" viewBox="0 0 16 14" fill="none" xmlns="http://www.w3.org/2000/svg">
<g opacity="0.7" clip-path="url(#clip0_1612_1185)">
<path d="M3.5 0H0.5C0.367569 0.000503664 0.240726 0.046759 0.147082 0.128697C0.0534386 0.210635 0.000575616 0.321623 0 0.4375V3.0625C0.000575616 3.17838 0.0534386 3.28936 0.147082 3.3713C0.240726 3.45324 0.367569 3.4995 0.5 3.5H3.5C3.63261 3.5 3.75979 3.45391 3.85355 3.37186C3.94732 3.28981 4 3.17853 4 3.0625V0.4375C4 0.321468 3.94732 0.210188 3.85355 0.128141C3.75979 0.0460936 3.63261 0 3.5 0V0Z" fill="#637280"/>
<path d="M3.5 5.25H0.5C0.367569 5.2505 0.240726 5.29676 0.147082 5.3787C0.0534386 5.46063 0.000575616 5.57162 0 5.6875V8.31249C0.000575616 8.42836 0.0534386 8.53935 0.147082 8.62129C0.240726 8.70323 0.367569 8.74948 0.5 8.74998H3.5C3.63261 8.74998 3.75979 8.70389 3.85355 8.62184C3.94732 8.5398 4 8.42852 4 8.31249V5.6875C4 5.57147 3.94732 5.46019 3.85355 5.37814C3.75979 5.29609 3.63261 5.25 3.5 5.25Z" fill="#637280"/>
<path d="M3.5 10.5H0.5C0.367569 10.5005 0.240726 10.5468 0.147082 10.6287C0.0534386 10.7106 0.000575616 10.8216 0 10.9375V13.5625C0.000575616 13.6784 0.0534386 13.7894 0.147082 13.8713C0.240726 13.9532 0.367569 13.9995 0.5 14H3.5C3.63261 14 3.75979 13.9539 3.85355 13.8719C3.94732 13.7898 4 13.6785 4 13.5625V10.9375C4 10.8215 3.94732 10.7102 3.85355 10.6281C3.75979 10.5461 3.63261 10.5 3.5 10.5Z" fill="#637280"/>
<path d="M15.5 0H6.5C6.36757 0.000503664 6.24073 0.046759 6.14708 0.128697C6.05344 0.210635 6.00058 0.321623 6 0.4375V3.0625C6.00058 3.17838 6.05344 3.28936 6.14708 3.3713C6.24073 3.45324 6.36757 3.4995 6.5 3.5H15.5C15.6326 3.5 15.7598 3.45391 15.8536 3.37186C15.9473 3.28981 16 3.17853 16 3.0625V0.4375C16 0.321468 15.9473 0.210188 15.8536 0.128141C15.7598 0.0460936 15.6326 0 15.5 0V0Z" fill="#637280"/>
<path d="M15.5 5.25H6.5C6.36757 5.2505 6.24073 5.29676 6.14708 5.3787C6.05344 5.46063 6.00058 5.57162 6 5.6875V8.31249C6.00058 8.42836 6.05344 8.53935 6.14708 8.62129C6.24073 8.70323 6.36757 8.74948 6.5 8.74998H15.5C15.6326 8.74998 15.7598 8.70389 15.8536 8.62184C15.9473 8.5398 16 8.42852 16 8.31249V5.6875C16 5.57147 15.9473 5.46019 15.8536 5.37814C15.7598 5.29609 15.6326 5.25 15.5 5.25Z" fill="#637280"/>
<path d="M15.5 10.5H6.5C6.36757 10.5005 6.24073 10.5468 6.14708 10.6287C6.05344 10.7106 6.00058 10.8216 6 10.9375V13.5625C6.00058 13.6784 6.05344 13.7894 6.14708 13.8713C6.24073 13.9532 6.36757 13.9995 6.5 14H15.5C15.6326 14 15.7598 13.9539 15.8536 13.8719C15.9473 13.7898 16 13.6785 16 13.5625V10.9375C16 10.8215 15.9473 10.7102 15.8536 10.6281C15.7598 10.5461 15.6326 10.5 15.5 10.5Z" fill="#637280"/>
</g>
<defs>
<clipPath id="clip0_1612_1185">
<rect width="16" height="14" fill="white"/>
</clipPath>
</defs>
</svg>
