<svg width="14" height="15" viewBox="0 0 14 15" fill="none" xmlns="http://www.w3.org/2000/svg">
<g clip-path="url(#clip0_152_4917)">
<path d="M2.18461 14.8451H11.6162C11.6975 14.8451 11.7779 14.8291 11.8529 14.7981C11.928 14.767 11.9962 14.7215 12.0536 14.6641C12.1111 14.6066 12.1567 14.5385 12.1878 14.4634C12.2188 14.3884 12.2349 14.308 12.2349 14.2267V12.25H13.3832C13.4645 12.2501 13.545 12.2341 13.6201 12.203C13.6952 12.1719 13.7634 12.1262 13.8207 12.0686C13.8781 12.0111 13.9235 11.9427 13.9543 11.8675C13.9851 11.7923 14.0007 11.7117 14.0003 11.6304V0.878012C14.0006 0.796706 13.9848 0.716148 13.9538 0.640979C13.9228 0.565811 13.8772 0.49752 13.8197 0.440042C13.7622 0.382565 13.6939 0.337038 13.6187 0.306087C13.5435 0.275136 13.463 0.259372 13.3817 0.259704H5.60273C4.99205 0.257877 4.40289 0.485115 3.95161 0.896539C3.88417 0.807909 3.81161 0.723293 3.7343 0.643124C3.53096 0.438605 3.28907 0.276456 3.02263 0.166064C2.75619 0.055672 2.4705 -0.000769429 2.1821 7.92159e-06C0.982223 7.92159e-06 -0.000976562 0.983209 -0.000976562 2.18905V11.6131C-0.000976562 11.6157 -0.000976562 11.6175 -0.000976562 11.6201V12.662C-0.000477073 13.2412 0.23003 13.7966 0.639871 14.206C1.04971 14.6154 1.60534 14.8452 2.18461 14.8451ZM6.227 2.73325H10.9081C11.072 2.73366 11.2291 2.79893 11.345 2.91479C11.4609 3.03064 11.5262 3.18767 11.5267 3.35156C11.5262 3.51544 11.4609 3.67247 11.345 3.78833C11.2291 3.90419 11.072 3.96945 10.9081 3.96987H6.227C6.06317 3.96937 5.90619 3.90407 5.79034 3.78822C5.67449 3.67237 5.60919 3.51539 5.6087 3.35156C5.60919 3.18773 5.67449 3.03074 5.79034 2.9149C5.90619 2.79905 6.06317 2.73375 6.227 2.73325ZM6.227 5.63952H10.9081C10.9905 5.63766 11.0724 5.65228 11.1491 5.68253C11.2258 5.71278 11.2956 5.75804 11.3545 5.81565C11.4135 5.87326 11.4603 5.94207 11.4922 6.01803C11.5242 6.09399 11.5407 6.17557 11.5407 6.25798C11.5407 6.34039 11.5242 6.42197 11.4922 6.49793C11.4603 6.57389 11.4135 6.6427 11.3545 6.70031C11.2956 6.75793 11.2258 6.80319 11.1491 6.83343C11.0724 6.86368 10.9905 6.8783 10.9081 6.87645H6.227C6.06539 6.87281 5.91162 6.80605 5.79861 6.69046C5.6856 6.57487 5.62232 6.41964 5.62232 6.25798C5.62232 6.09633 5.6856 5.94109 5.79861 5.82551C5.91162 5.70992 6.06539 5.64316 6.227 5.63952ZM6.227 8.5461H8.57023C8.73421 8.5461 8.89148 8.61124 9.00744 8.7272C9.12339 8.84315 9.18854 9.00042 9.18854 9.16441C9.18854 9.32839 9.12339 9.48566 9.00744 9.60162C8.89148 9.71757 8.73421 9.78271 8.57023 9.78271H6.227C6.06302 9.78271 5.90575 9.71757 5.78979 9.60162C5.67384 9.48566 5.6087 9.32839 5.6087 9.16441C5.6087 9.00042 5.67384 8.84315 5.78979 8.7272C5.90575 8.61124 6.06302 8.5461 6.227 8.5461ZM3.75534 12.2516H10.9964V13.6088H2.18461C1.9338 13.6081 1.69345 13.5082 1.51609 13.3308C1.33874 13.1535 1.23881 12.9131 1.23815 12.6623V11.6166C1.23848 11.3657 1.33832 11.1252 1.51575 10.9478C1.69318 10.7705 1.93372 10.6707 2.18461 10.6705C2.40486 10.6705 2.61825 10.747 2.78835 10.887C2.95845 11.0269 3.0747 11.2215 3.11725 11.4376C3.12039 11.4536 3.12008 11.469 3.12228 11.4866C3.20424 12.0289 3.43504 12.2531 3.75534 12.2531V12.2516ZM1.23689 2.18748C1.23697 1.93611 1.33652 1.69498 1.5138 1.51676C1.69107 1.33854 1.93167 1.23772 2.18304 1.23631C2.30817 1.23614 2.43211 1.26068 2.54774 1.30851C2.66337 1.35634 2.76842 1.42652 2.85688 1.51503C2.94533 1.60354 3.01544 1.70864 3.06319 1.8243C3.11095 1.93997 3.1354 2.06392 3.13515 2.18905V9.64674C2.56489 9.37951 1.83196 9.3613 1.23689 9.64674V2.18748Z" fill="#A0AEC0"/>
</g>
<defs>
<clipPath id="clip0_152_4917">
<rect width="14" height="14.845" fill="white"/>
</clipPath>
</defs>
</svg>
