<svg width="24" height="24" viewBox="0 0 24 24" fill="none" xmlns="http://www.w3.org/2000/svg">
<circle cx="12" cy="12" r="12" fill="black"/>
<g clip-path="url(#clip0_434_1594)">
<path fill-rule="evenodd" clip-rule="evenodd" d="M14.3171 8.27188C14.1696 8.27188 14.0254 8.33181 13.9213 8.43588C13.8169 8.54031 13.7573 8.68456 13.7573 8.83169V11.3343H10.1027C9.83146 9.60574 8.34222 8.32176 6.57452 8.32176C4.60335 8.32212 3 9.9244 3 11.8941C3 13.8639 4.60335 15.4665 6.57416 15.4665C8.34151 15.4665 9.8311 14.1825 10.102 12.4539H13.7566V14.9548C13.7566 15.1023 13.8165 15.2465 13.9206 15.3506C14.0254 15.455 14.1693 15.5146 14.3164 15.5146H20.4395C20.5862 15.5146 20.7305 15.455 20.8346 15.3517C20.9397 15.2462 20.9996 15.1019 20.9996 14.9548V8.83169C20.9996 8.68456 20.9401 8.54066 20.836 8.43624C20.7309 8.33145 20.5866 8.27188 20.4398 8.27188H14.3167H14.3171ZM19.8804 9.3915V14.395H14.8769V12.4543H17.3795C17.5274 12.4543 17.6713 12.3954 17.7754 12.2932C17.8816 12.1888 17.9422 12.0434 17.9422 11.8945C17.9422 11.7456 17.8812 11.6002 17.7754 11.4958C17.6716 11.3935 17.527 11.3347 17.3795 11.3347H14.8769V9.39186H19.8804V9.3915ZM6.5738 14.3469C5.22057 14.3469 4.11926 13.2466 4.11926 11.8945C4.11926 10.5423 5.22021 9.4421 6.5738 9.4421C7.19964 9.4421 7.79498 9.67679 8.25 10.1024C8.60419 10.434 8.85251 10.8653 8.96232 11.3347H6.5738C6.42632 11.3347 6.28206 11.3935 6.17799 11.4958C6.07177 11.6002 6.01112 11.7456 6.01112 11.8945C6.01112 12.0434 6.07177 12.1888 6.17799 12.2932C6.28206 12.3954 6.42632 12.4543 6.5738 12.4543H8.96232C8.85251 12.9233 8.60454 13.355 8.25036 13.6866C7.79533 14.1126 7.2 14.3472 6.57416 14.3472L6.5738 14.3469Z" fill="white"/>
</g>
<defs>
<clipPath id="clip0_434_1594">
<rect width="18" height="7.2427" fill="white" transform="matrix(1 0 0 -1 3 15.5146)"/>
</clipPath>
</defs>
</svg>
