<svg width="4" height="14" viewBox="0 0 4 14" fill="none" xmlns="http://www.w3.org/2000/svg">
<path d="M2.01562 2.25C2.42984 2.25 2.76562 1.91421 2.76562 1.5C2.76562 1.08579 2.42984 0.75 2.01562 0.75C1.60141 0.75 1.26562 1.08579 1.26562 1.5C1.26562 1.91421 1.60141 2.25 2.01562 2.25Z" stroke="white" stroke-width="1.5" stroke-linecap="round" stroke-linejoin="round"/>
<path d="M2.01562 7.75C2.42984 7.75 2.76562 7.41421 2.76562 7C2.76562 6.58579 2.42984 6.25 2.01562 6.25C1.60141 6.25 1.26562 6.58579 1.26562 7C1.26562 7.41421 1.60141 7.75 2.01562 7.75Z" stroke="white" stroke-width="1.5" stroke-linecap="round" stroke-linejoin="round"/>
<path d="M2.01562 13.25C2.42984 13.25 2.76562 12.9142 2.76562 12.5C2.76562 12.0858 2.42984 11.75 2.01562 11.75C1.60141 11.75 1.26562 12.0858 1.26562 12.5C1.26562 12.9142 1.60141 13.25 2.01562 13.25Z" stroke="white" stroke-width="1.5" stroke-linecap="round" stroke-linejoin="round"/>
</svg>
