<svg width="56" height="62" viewBox="0 0 56 62" fill="none" xmlns="http://www.w3.org/2000/svg">
<path fill-rule="evenodd" clip-rule="evenodd" d="M5.82568 10.1945V59.7075C5.82568 60.0939 5.97916 60.4644 6.25235 60.7376C6.52555 61.0108 6.89608 61.1643 7.28243 61.1643H48.0591C48.4452 61.1639 48.8154 61.0103 49.0883 60.7371C49.3612 60.464 49.5145 60.0936 49.5145 59.7075V50.9698C49.5029 50.5913 49.3444 50.2322 49.0726 49.9686C48.8008 49.705 48.437 49.5576 48.0584 49.5576C47.6798 49.5576 47.316 49.705 47.0442 49.9686C46.7724 50.2322 46.6139 50.5913 46.6023 50.9698V58.2521H8.73918V10.1945C8.73918 9.80813 8.5857 9.4376 8.31251 9.1644C8.03931 8.89121 7.66878 8.73773 7.28243 8.73773C6.89608 8.73773 6.52555 8.89121 6.25235 9.1644C5.97916 9.4376 5.82568 9.80813 5.82568 10.1945Z" fill="black"/>
<path fill-rule="evenodd" clip-rule="evenodd" d="M49.5144 37.8631V16.0187C49.5136 15.6327 49.3611 15.2625 49.0898 14.9879L34.5264 0.42455C34.2521 0.152828 33.8817 0.000255416 33.4956 -4.97454e-05H11.6512C11.4563 -0.00602046 11.2621 0.027224 11.0802 0.0977116C10.8983 0.168199 10.7325 0.274494 10.5925 0.410292C10.4524 0.54609 10.3411 0.708626 10.2651 0.888257C10.1891 1.06789 10.1499 1.26096 10.1499 1.45601C10.1499 1.65107 10.1891 1.84414 10.2651 2.02377C10.3411 2.2034 10.4524 2.36594 10.5925 2.50174C10.7325 2.63754 10.8983 2.74383 11.0802 2.81432C11.2621 2.88481 11.4563 2.91805 11.6512 2.91208H32.8922L46.6023 16.6222V37.8631C46.5963 38.0581 46.6295 38.2522 46.7 38.4341C46.7705 38.616 46.8768 38.7818 47.0126 38.9219C47.1484 39.0619 47.3109 39.1732 47.4906 39.2492C47.6702 39.3253 47.8633 39.3644 48.0583 39.3644C48.2534 39.3644 48.4464 39.3253 48.6261 39.2492C48.8057 39.1732 48.9682 39.0619 49.104 38.9219C49.2398 38.7818 49.3461 38.616 49.4166 38.4341C49.4871 38.2522 49.5204 38.0581 49.5144 37.8631Z" fill="black"/>
<path fill-rule="evenodd" clip-rule="evenodd" d="M48.0589 17.4755C48.347 17.4751 48.6284 17.3895 48.8678 17.2293C49.1072 17.0691 49.2938 16.8417 49.4041 16.5756C49.5144 16.3095 49.5434 16.0167 49.4874 15.7341C49.4314 15.4516 49.2931 15.192 49.0897 14.988L34.5263 0.424596C34.3223 0.221165 34.0625 0.0827596 33.7798 0.0268535C33.4972 -0.0290526 33.2043 4.71937e-05 32.9381 0.110479C32.672 0.220911 32.4445 0.407723 32.2845 0.64733C32.1244 0.886937 32.0389 1.16859 32.0388 1.45674V16.0188C32.0388 16.4051 32.1923 16.7756 32.4655 17.0488C32.7387 17.322 33.1092 17.4755 33.4956 17.4755H48.0589ZM44.5434 14.5634H34.9523V4.97232L44.5434 14.5634Z" fill="black"/>
<path fill-rule="evenodd" clip-rule="evenodd" d="M0.426031 5.39966L52.8525 57.8262C52.9879 57.9616 53.1486 58.0691 53.3255 58.1424C53.5024 58.2158 53.692 58.2536 53.8835 58.2536C54.075 58.2537 54.2647 58.216 54.4416 58.1428C54.6185 58.0696 54.7793 57.9622 54.9148 57.8269C55.0502 57.6915 55.1577 57.5308 55.2311 57.3539C55.3044 57.177 55.3422 56.9874 55.3422 56.7959C55.3423 56.6044 55.3046 56.4147 55.2314 56.2378C55.1582 56.0609 55.0508 55.9001 54.9155 55.7646L2.48896 3.33809C2.3536 3.20264 2.19288 3.09517 2.01598 3.02183C1.83909 2.94849 1.64948 2.91071 1.45798 2.91064C1.26648 2.91058 1.07685 2.94824 0.899902 3.02146C0.722958 3.09468 0.562168 3.20204 0.426715 3.33741C0.291261 3.47277 0.183795 3.63349 0.110453 3.81039C0.037112 3.98728 -0.000668953 4.17689 -0.000732342 4.36839C-0.000860361 4.75514 0.152651 5.12609 0.426031 5.39966Z" fill="black"/>
</svg>

