<svg width="24" height="24" viewBox="0 0 24 24" fill="none" xmlns="http://www.w3.org/2000/svg">
<rect x="6.10352e-05" width="24" height="24" rx="12" fill="#F3F3F3"/>
<g clip-path="url(#clip0_28_572)">
<path d="M7.33341 10V18H4.66674V10H7.33341ZM10.0001 18C9.64645 18 9.30731 17.8595 9.05726 17.6095C8.80721 17.3594 8.66674 17.0203 8.66674 16.6667V10C8.66674 9.63333 8.81341 9.3 9.06007 9.06L13.4467 4.66667L14.1534 5.37333C14.3334 5.55333 14.4467 5.8 14.4467 6.08L14.4267 6.28667L13.7934 9.33333H18.0001C18.3537 9.33333 18.6928 9.47381 18.9429 9.72386C19.1929 9.97391 19.3334 10.313 19.3334 10.6667V12C19.3334 12.1733 19.3001 12.3333 19.2401 12.4867L17.2267 17.1867C17.0267 17.6667 16.5534 18 16.0001 18H10.0001ZM10.0001 16.6667H16.0201L18.0001 12V10.6667H12.1467L12.9001 7.12L10.0001 10.02V16.6667Z" fill="#495057"/>
</g>
<defs>
<clipPath id="clip0_28_572">
<rect width="16" height="16" fill="white" transform="translate(20.0001 20) rotate(-180)"/>
</clipPath>
</defs>
</svg>
