<svg width="12" height="16" viewBox="0 0 12 16" fill="none" xmlns="http://www.w3.org/2000/svg">
<path fill-rule="evenodd" clip-rule="evenodd" d="M2.08313 5.86772e-07H7.4325L11.9663 4.72563V13.9172C11.9665 14.1905 11.9129 14.4611 11.8086 14.7137C11.7042 14.9662 11.5511 15.1958 11.3581 15.3892C11.165 15.5826 10.9358 15.7361 10.6834 15.8409C10.431 15.9457 10.1605 15.9998 9.88719 16H2.08313C1.80953 16.0002 1.53859 15.9465 1.28578 15.8419C1.03297 15.7373 0.803259 15.5839 0.609786 15.3904C0.416313 15.197 0.262873 14.9673 0.15824 14.7145C0.0536078 14.4617 -0.000163996 14.1908 3.75706e-07 13.9172V2.08281C-0.000163996 1.80922 0.0536078 1.53828 0.15824 1.28549C0.262873 1.0327 0.416313 0.803009 0.609786 0.609565C0.803259 0.416121 1.03297 0.262715 1.28578 0.158121C1.53859 0.0535262 1.80953 -0.000204831 2.08313 5.86772e-07Z" fill="#E5252A"/>
<path opacity="0.3" fill-rule="evenodd" clip-rule="evenodd" d="M7.42871 0V4.68969H11.9665L7.42871 0Z" fill="white"/>
<path d="M2.31494 11.9375V9.0156H3.55838C3.86619 9.0156 4.10994 9.09935 4.294 9.27123C4.47807 9.4431 4.56994 9.66717 4.56994 9.95092C4.56994 10.2347 4.47775 10.4628 4.294 10.6306C4.11025 10.7984 3.86619 10.8865 3.55838 10.8865H3.06244V11.9375H2.31494ZM3.06244 10.25H3.47432C3.58619 10.25 3.67432 10.2259 3.73432 10.17C3.76341 10.1412 3.78651 10.107 3.80227 10.0693C3.81803 10.0315 3.82615 9.99103 3.82615 9.95014C3.82615 9.90924 3.81803 9.86875 3.80227 9.83101C3.78651 9.79327 3.76341 9.75904 3.73432 9.73029C3.67432 9.67435 3.58619 9.65029 3.47432 9.65029H3.06244V10.25ZM4.87775 11.9375V9.0156H5.91307C6.10843 9.01353 6.30283 9.04319 6.48869 9.10342C6.6656 9.16007 6.83084 9.24815 6.9765 9.36342C7.12775 9.4838 7.24602 9.64056 7.32025 9.81904C7.48569 10.2419 7.48569 10.7115 7.32025 11.1344C7.24593 11.3129 7.12768 11.4697 6.9765 11.5903C6.83082 11.7055 6.66558 11.7934 6.48869 11.85C6.30281 11.9101 6.10841 11.9396 5.91307 11.9375H4.87775ZM5.60807 11.3025H5.82682C5.93605 11.3039 6.04496 11.2904 6.15057 11.2625C6.24892 11.2332 6.34204 11.1886 6.4265 11.1303C6.51562 11.0654 6.58479 10.9768 6.62619 10.8747C6.72245 10.6182 6.72245 10.3355 6.62619 10.079C6.5847 9.97684 6.51555 9.88821 6.4265 9.8231C6.34209 9.76481 6.24895 9.7203 6.15057 9.69123C6.04499 9.66312 5.93606 9.64967 5.82682 9.65123H5.60807V11.3025ZM7.82025 11.9375V9.0156H9.899V9.65123H8.56775V10.12H9.63025V10.75H8.56775V11.9375H7.82025Z" fill="white"/>
</svg>
