<svg width="18" height="18" viewBox="0 0 18 18" fill="none" xmlns="http://www.w3.org/2000/svg">
<path d="M0 6V0.857143H1.72869V2.87143C2.46339 1.95714 3.36029 1.25 4.4194 0.75C5.47851 0.25 6.59842 0 7.77911 0C9.93998 0 11.7767 0.75 13.2893 2.25C14.8019 3.75 15.5582 5.57143 15.5582 7.71429H13.8295C13.8295 6.04286 13.2424 4.62486 12.068 3.46029C10.8936 2.29571 9.46401 1.71371 7.77911 1.71429C6.78511 1.71429 5.85594 1.94286 4.9916 2.4C4.12725 2.85714 3.39976 3.48571 2.80912 4.28571H5.18607V6H0ZM0.0432172 8.57143H1.81513C1.988 9.9 2.53916 11.0251 3.46862 11.9469C4.39808 12.8686 5.51078 13.4291 6.80672 13.6286L7.84394 15.4286C5.85594 15.4286 4.11285 14.7751 2.61465 13.4683C1.11645 12.1614 0.259304 10.5291 0.0432172 8.57143ZM8.94598 10.0714L6.91477 8.05714V3.42857H8.64346V7.37143L9.85354 8.57143L8.94598 10.0714ZM12.9436 18L12.6843 16.7143C12.5114 16.6429 12.3492 16.5677 12.1976 16.4889C12.0461 16.41 11.8914 16.3137 11.7335 16.2L10.4802 16.5857L9.61585 15.1286L10.6098 14.2714C10.581 14.0857 10.5666 13.9 10.5666 13.7143C10.5666 13.5286 10.581 13.3429 10.6098 13.1571L9.61585 12.3L10.4802 10.8429L11.7335 11.2286C11.892 11.1143 12.0467 11.018 12.1976 10.9397C12.3486 10.8614 12.5108 10.7863 12.6843 10.7143L12.9436 9.42857H14.6723L14.9316 10.7143C15.1044 10.7857 15.2701 10.868 15.4286 10.9611C15.587 11.0543 15.7383 11.1577 15.8824 11.2714L17.1357 10.8429L18 12.3429L17.006 13.2C17.0348 13.3857 17.0492 13.5643 17.0492 13.7357C17.0492 13.9071 17.0348 14.0857 17.006 14.2714L18 15.1286L17.1357 16.5857L15.8824 16.2C15.7239 16.3143 15.5692 16.4109 15.4182 16.4897C15.2672 16.5686 15.105 16.6434 14.9316 16.7143L14.6723 18H12.9436ZM13.8079 15.4286C14.2833 15.4286 14.6904 15.2606 15.0292 14.9246C15.3681 14.5886 15.5372 14.1851 15.5366 13.7143C15.5366 13.2429 15.3672 12.8391 15.0284 12.5031C14.6896 12.1671 14.283 11.9994 13.8088 12C13.3334 12 12.9263 12.168 12.5875 12.504C12.2486 12.84 12.0795 13.2434 12.0801 13.7143C12.0801 14.1857 12.2495 14.5894 12.5883 14.9254C12.9272 15.2614 13.3331 15.4291 13.8079 15.4286Z" fill="#0E90E1"/>
</svg>
