<svg width="30" height="21" viewBox="0 0 30 21" fill="none" xmlns="http://www.w3.org/2000/svg">
<path fill-rule="evenodd" clip-rule="evenodd" d="M29.8567 15.8922C29.8129 15.6793 29.707 15.484 29.5523 15.3313C29.3976 15.1785 29.2011 15.075 28.9877 15.0338C28.7742 14.9926 28.5533 15.0157 28.3529 15.1C28.1525 15.1843 27.9816 15.3262 27.8618 15.5076C27.742 15.689 27.6786 15.9019 27.6797 16.1193C27.6808 16.3367 27.7463 16.5489 27.868 16.7291C27.9896 16.9093 28.162 17.0493 28.3632 17.1316C28.5645 17.2139 28.7856 17.2347 28.9986 17.1914C29.1403 17.1626 29.275 17.1061 29.3948 17.0251C29.5147 16.9442 29.6174 16.8404 29.6971 16.7198C29.7768 16.5991 29.8319 16.4639 29.8593 16.3219C29.8867 16.1799 29.8858 16.0339 29.8567 15.8922V15.8922Z" fill="#0E90E1"/>
<path fill-rule="evenodd" clip-rule="evenodd" d="M22.9922 16.155C22.7783 16.1983 22.5821 16.304 22.4284 16.4587C22.2746 16.6135 22.1702 16.8104 22.1284 17.0245C22.0865 17.2386 22.1092 17.4604 22.1934 17.6616C22.2776 17.8629 22.4196 18.0346 22.6014 18.1552C22.7833 18.2757 22.9968 18.3396 23.215 18.3387C23.4331 18.3379 23.6462 18.2723 23.8271 18.1504C24.008 18.0285 24.1486 17.8556 24.2313 17.6537C24.3139 17.4518 24.3348 17.2299 24.2913 17.0161C24.2629 16.8741 24.2066 16.7392 24.1258 16.619C24.0451 16.4988 23.9413 16.3957 23.8206 16.3157C23.6999 16.2357 23.5646 16.1803 23.4224 16.1527C23.2803 16.1252 23.134 16.126 22.9922 16.155V16.155Z" fill="#0E90E1"/>
<path fill-rule="evenodd" clip-rule="evenodd" d="M18.9135 13.2485L27.8143 11.4357C28.0909 11.364 28.3293 11.1888 28.4804 10.9463C28.6315 10.7038 28.6838 10.4126 28.6264 10.1327C28.5691 9.85284 28.4064 9.60566 28.1721 9.44221C27.9378 9.27876 27.6496 9.2115 27.3672 9.25433L13.4238 12.0974C13.2806 12.1265 13.1445 12.1836 13.0233 12.2654C12.9021 12.3471 12.7983 12.452 12.7176 12.5739C12.6369 12.6958 12.5811 12.8324 12.5532 12.9759C12.5253 13.1193 12.526 13.2669 12.5552 13.4101C12.5843 13.5534 12.6414 13.6895 12.7232 13.8106C12.8049 13.9318 12.9097 14.0357 13.0316 14.1163C13.1535 14.197 13.2901 14.2529 13.4336 14.2807C13.5771 14.3086 13.7247 14.3079 13.8679 14.2788L16.7291 13.6957L16.9164 14.6021C17.0607 15.3088 16.9182 16.0439 16.5205 16.6456C16.1227 17.2474 15.5022 17.6665 14.7955 17.8107C14.0887 17.9549 13.3536 17.8125 12.7519 17.4147C12.1501 17.017 11.7311 16.3965 11.5868 15.6897L8.71053 1.57716C8.71053 1.55903 8.71053 1.53788 8.71053 1.51975C8.65697 1.26452 8.51325 1.03713 8.30568 0.879234C8.1084 0.721024 7.86365 0.633761 7.61078 0.631484C7.53156 0.630532 7.45249 0.638642 7.37511 0.655655L0.906473 1.95482C0.762835 1.98198 0.625985 2.03728 0.503797 2.11752C0.381609 2.19777 0.276495 2.30139 0.194502 2.42241C0.112509 2.54344 0.0552562 2.67948 0.0260373 2.82271C-0.00318151 2.96594 -0.00378958 3.11354 0.0242481 3.25701C0.08801 3.54798 0.264084 3.802 0.51417 3.96382C0.764256 4.12564 1.06812 4.18217 1.35967 4.12111L6.73762 3.04854L9.40242 16.1369C9.66444 17.4226 10.4265 18.5515 11.5209 19.2754C12.6153 19.9992 13.9524 20.2586 15.2381 19.9966C16.5238 19.7346 17.6527 18.9726 18.3766 17.8782C19.1004 16.7838 19.3598 15.4466 19.0978 14.1609L18.9135 13.2485Z" fill="#0E90E1"/>
<path fill-rule="evenodd" clip-rule="evenodd" d="M12.0187 5.21183L25.9651 2.3718C26.249 2.30705 26.4962 2.13386 26.654 1.88925C26.8118 1.64463 26.8677 1.348 26.8097 1.06273C26.7517 0.777459 26.5844 0.526191 26.3436 0.362623C26.1028 0.199055 25.8076 0.136159 25.521 0.187382L11.5746 3.03044C11.2853 3.08934 11.0313 3.26074 10.8684 3.50693C10.7055 3.75312 10.6471 4.05393 10.706 4.34321C10.7649 4.63248 10.9363 4.8865 11.1825 5.0494C11.4286 5.2123 11.7295 5.27073 12.0187 5.21183V5.21183Z" fill="#0E90E1"/>
</svg>
