<svg width="30" height="21" viewBox="0 0 30 21" fill="none" xmlns="http://www.w3.org/2000/svg">
<path fill-rule="evenodd" clip-rule="evenodd" d="M29.8531 15.8922C29.8094 15.6793 29.7034 15.484 29.5488 15.3313C29.3941 15.1785 29.1976 15.075 28.9841 15.0338C28.7706 14.9926 28.5497 15.0157 28.3493 15.1C28.149 15.1843 27.9781 15.3262 27.8582 15.5076C27.7384 15.689 27.6751 15.9019 27.6762 16.1193C27.6773 16.3367 27.7428 16.5489 27.8644 16.7291C27.9861 16.9093 28.1584 17.0493 28.3597 17.1316C28.5609 17.2139 28.782 17.2347 28.9951 17.1914C29.1368 17.1626 29.2714 17.1061 29.3913 17.0251C29.5112 16.9442 29.6139 16.8404 29.6936 16.7198C29.7733 16.5991 29.8284 16.4639 29.8558 16.3219C29.8832 16.1799 29.8823 16.0339 29.8531 15.8922Z" fill="#0E90E1"/>
<path fill-rule="evenodd" clip-rule="evenodd" d="M22.9886 16.155C22.7748 16.1982 22.5786 16.3039 22.4248 16.4587C22.2711 16.6134 22.1667 16.8103 22.1248 17.0245C22.083 17.2386 22.1056 17.4603 22.1898 17.6616C22.274 17.8628 22.4161 18.0346 22.5979 18.1551C22.7798 18.2756 22.9933 18.3395 23.2114 18.3387C23.4296 18.3378 23.6426 18.2723 23.8235 18.1503C24.0044 18.0284 24.1451 17.8555 24.2277 17.6536C24.3104 17.4517 24.3313 17.2298 24.2878 17.0161C24.2593 16.8741 24.2031 16.7391 24.1223 16.6189C24.0415 16.4987 23.9378 16.3956 23.8171 16.3156C23.6964 16.2356 23.5611 16.1803 23.4189 16.1527C23.2767 16.1251 23.1305 16.1259 22.9886 16.155Z" fill="#0E90E1"/>
<path fill-rule="evenodd" clip-rule="evenodd" d="M18.9099 13.2484L27.8107 11.4357C28.0872 11.3639 28.3256 11.1887 28.4768 10.9462C28.6279 10.7038 28.6801 10.4125 28.6228 10.1327C28.5654 9.85278 28.4028 9.6056 28.1684 9.44215C27.9341 9.2787 27.646 9.21144 27.3635 9.25426L13.4201 12.0973C13.2769 12.1265 13.1408 12.1836 13.0196 12.2653C12.8985 12.3471 12.7946 12.4519 12.7139 12.5738C12.6333 12.6957 12.5774 12.8323 12.5495 12.9758C12.5217 13.1193 12.5223 13.2669 12.5515 13.4101C12.5807 13.5533 12.6377 13.6894 12.7195 13.8106C12.8013 13.9317 12.9061 14.0356 13.028 14.1163C13.1499 14.1969 13.2865 14.2528 13.43 14.2807C13.5735 14.3085 13.721 14.3079 13.8643 14.2787L16.7254 13.6956L16.9128 14.602C17.057 15.3087 16.9146 16.0438 16.5168 16.6456C16.1191 17.2473 15.4986 17.6664 14.7918 17.8106C14.0851 17.9549 13.35 17.8124 12.7482 17.4147C12.1465 17.0169 11.7274 16.3964 11.5832 15.6897L8.70687 1.5771C8.70687 1.55897 8.70687 1.53782 8.70687 1.51969C8.65331 1.26446 8.50958 1.03706 8.30202 0.879173C8.10474 0.720963 7.85998 0.6337 7.60711 0.631423C7.52789 0.630471 7.44883 0.638581 7.37145 0.655594L0.902811 1.95476C0.759173 1.98192 0.622323 2.03722 0.500135 2.11746C0.377947 2.19771 0.272832 2.30133 0.19084 2.42235C0.108847 2.54338 0.051594 2.67941 0.0223752 2.82265C-0.00684362 2.96588 -0.00745169 3.11348 0.020586 3.25695C0.0843479 3.54792 0.260422 3.80194 0.510508 3.96376C0.760594 4.12558 1.06446 4.18211 1.35601 4.12105L6.73395 3.04848L9.39876 16.1368C9.66078 17.4225 10.4228 18.5515 11.5172 19.2753C12.6116 19.9991 13.9487 20.2586 15.2344 19.9966C16.5201 19.7345 17.6491 18.9725 18.3729 17.8781C19.0967 16.7837 19.3562 15.4466 19.0942 14.1609L18.9099 13.2484Z" fill="#0E90E1"/>
<path fill-rule="evenodd" clip-rule="evenodd" d="M12.0153 5.21177L25.9617 2.37174C26.2455 2.30699 26.4928 2.1338 26.6506 1.88919C26.8084 1.64457 26.8643 1.34793 26.8063 1.06267C26.7483 0.777398 26.581 0.52613 26.3402 0.362562C26.0994 0.198994 25.8041 0.136098 25.5176 0.187321L11.5712 3.03038C11.2819 3.08928 11.0279 3.26067 10.865 3.50687C10.7021 3.75306 10.6437 4.05387 10.7026 4.34314C10.7615 4.63241 10.9328 4.88644 11.179 5.04934C11.4252 5.21224 11.726 5.27067 12.0153 5.21177Z" fill="#0E90E1"/>
</svg>
