<svg width="96" height="38" viewBox="0 0 96 38" fill="none" xmlns="http://www.w3.org/2000/svg">
<path fill-rule="evenodd" clip-rule="evenodd" d="M31.1231 6.76101C30.8479 6.75976 30.5751 6.81248 30.3204 6.91614C30.0658 7.0198 29.8342 7.17235 29.6392 7.36504C29.4441 7.55773 29.2893 7.78676 29.1837 8.03898C29.0781 8.2912 29.0237 8.56164 29.0237 8.83477V35.3486C29.0237 35.9011 29.2449 36.431 29.6386 36.8217C30.0323 37.2123 30.5663 37.4318 31.1231 37.4318C31.6799 37.4318 32.2139 37.2123 32.6077 36.8217C33.0014 36.431 33.2226 35.9011 33.2226 35.3486V8.83477C33.2201 8.2839 32.9977 7.75646 32.6043 7.36782C32.2108 6.97918 31.6783 6.761 31.1231 6.76101Z" fill="#E5712A"/>
<path fill-rule="evenodd" clip-rule="evenodd" d="M37.078 0H9.82337C7.36076 0 4.99901 0.970711 3.25768 2.69859C1.51635 4.42646 0.538086 6.76997 0.538086 9.21355C0.538086 11.6571 1.51635 14.0006 3.25768 15.7285C4.99901 17.4564 7.36076 18.4271 9.82337 18.4271H11.5888V35.3486C11.5888 35.9011 11.81 36.431 12.2037 36.8217C12.5975 37.2124 13.1315 37.4318 13.6883 37.4318C14.2451 37.4318 14.7791 37.2124 15.1728 36.8217C15.5665 36.431 15.7877 35.9011 15.7877 35.3486V8.83479C15.7877 8.28228 15.5665 7.7524 15.1728 7.36172C14.7791 6.97104 14.2451 6.75156 13.6883 6.75156C13.1315 6.75156 12.5975 6.97104 12.2037 7.36172C11.81 7.7524 11.5888 8.28228 11.5888 8.83479V14.2796H9.82337C8.46931 14.2796 7.17072 13.7458 6.21325 12.7958C5.25579 11.8457 4.7179 10.5572 4.7179 9.21355C4.7179 7.86996 5.25579 6.58139 6.21325 5.63133C7.17072 4.68126 8.46931 4.14752 9.82337 4.14752H37.078C37.6323 4.14752 38.1639 3.92904 38.5558 3.54013C38.9477 3.15122 39.1679 2.62376 39.1679 2.07376C39.1679 1.52376 38.9477 0.996296 38.5558 0.60739C38.1639 0.218485 37.6323 0 37.078 0" fill="#E5712A"/>
<path fill-rule="evenodd" clip-rule="evenodd" d="M40.8188 22.5462V29.2694C40.8404 29.6426 40.7214 30.0105 40.4848 30.3015C40.3762 30.4193 40.2432 30.5125 40.095 30.5746C39.9467 30.6367 39.7867 30.6663 39.6259 30.6613C39.467 30.6656 39.3092 30.6346 39.164 30.5708C39.0187 30.5069 38.8896 30.4117 38.7861 30.292C38.5498 29.9977 38.4339 29.6258 38.4616 29.2504V22.622C38.4339 22.2466 38.5498 21.8747 38.7861 21.5803C38.8934 21.4667 39.0236 21.3767 39.1683 21.3163C39.313 21.2559 39.469 21.2265 39.6259 21.23C39.7855 21.2273 39.944 21.2571 40.0917 21.3173C40.2394 21.3775 40.3731 21.4671 40.4848 21.5803C40.7162 21.8482 40.8357 22.1938 40.8188 22.5462ZM39.6259 20.141C39.319 20.1497 39.0198 20.0451 38.7861 19.8475C38.6732 19.7405 38.5834 19.6119 38.522 19.4695C38.4606 19.3271 38.429 19.1738 38.429 19.0189C38.429 18.864 38.4606 18.7108 38.522 18.5683C38.5834 18.4259 38.6732 18.2973 38.7861 18.1904C39.01 17.9798 39.3079 17.8642 39.6163 17.8684C39.9139 17.8641 40.2026 17.9686 40.4275 18.162C40.547 18.2666 40.6408 18.3969 40.702 18.5429C40.7632 18.6889 40.7901 18.8469 40.7806 19.0047C40.7884 19.1601 40.7617 19.3153 40.7023 19.4593C40.643 19.6033 40.5524 19.7326 40.437 19.838C40.2131 20.0403 39.9191 20.1488 39.6163 20.141H39.6259Z" fill="#E5712A"/>
<path fill-rule="evenodd" clip-rule="evenodd" d="M47.6803 28.5876L45.6572 20.6335V29.2505C45.6838 29.6256 45.5756 29.998 45.3518 30.3016C45.2444 30.4209 45.1117 30.5152 44.9632 30.5774C44.8146 30.6396 44.654 30.6683 44.4929 30.6614C44.3343 30.6668 44.1764 30.6383 44.0299 30.5779C43.8833 30.5174 43.7516 30.4264 43.6436 30.311C43.4031 30.0042 43.2873 29.619 43.3191 29.2315V19.3646C43.2925 19.1605 43.3178 18.953 43.3928 18.7611C43.4678 18.5692 43.5902 18.399 43.7486 18.2662C44.1001 18.0602 44.505 17.9614 44.9128 17.9821H45.7049C46.0562 17.9632 46.4081 18.0048 46.7451 18.1052C46.8521 18.1465 46.9495 18.2089 47.0315 18.2887C47.1135 18.3684 47.1784 18.4639 47.2222 18.5692C47.3741 18.9171 47.4924 19.2786 47.5753 19.6487L49.398 26.5139L51.2302 19.6771C51.3176 19.3082 51.4357 18.9471 51.5833 18.5976C51.6745 18.3866 51.846 18.2198 52.0605 18.1336C52.3965 18.0276 52.7483 17.9795 53.1007 17.9916H53.9404C54.3483 17.9697 54.7535 18.0686 55.1047 18.2756C55.2662 18.4064 55.3914 18.5759 55.4682 18.7682C55.545 18.9605 55.571 19.169 55.5436 19.3741V29.2505C55.5513 29.6339 55.4192 30.0072 55.1715 30.3016C55.0631 30.4222 54.9288 30.5172 54.7785 30.5795C54.6282 30.6418 54.4657 30.6697 54.3031 30.6614C54.1449 30.6675 53.9873 30.6383 53.842 30.5761C53.6967 30.5138 53.5673 30.42 53.4633 30.3016C53.2234 29.998 53.1076 29.616 53.1388 29.2315V20.6145L51.0775 28.5876C50.9439 29.099 50.8294 29.4777 50.7531 29.7239C50.657 29.981 50.496 30.2092 50.2855 30.3868C50.0176 30.6034 49.6756 30.7086 49.3312 30.6803C49.064 30.6877 48.8 30.6222 48.5678 30.4909C48.3719 30.3663 48.2084 30.1976 48.0906 29.9985C47.9699 29.7904 47.8769 29.5676 47.8139 29.3357C47.7471 29.099 47.6803 28.8433 47.6135 28.5876" fill="#100F2C"/>
<path fill-rule="evenodd" clip-rule="evenodd" d="M59.9239 25.2071H64.1895C64.1869 24.5542 63.9577 23.9222 63.5406 23.4174C63.3502 23.2183 63.1184 23.0627 62.8614 22.9613C62.6043 22.86 62.3281 22.8153 62.0519 22.8303C61.7829 22.8233 61.5155 22.8728 61.2671 22.9757C61.0188 23.0785 60.7952 23.2322 60.6109 23.4268C60.1881 23.9275 59.9462 24.5542 59.9239 25.2071ZM64.5331 26.5138H59.9239C59.9218 26.9995 60.0328 27.4791 60.2483 27.9153C60.4283 28.284 60.7108 28.594 61.0625 28.8087C61.4142 29.0235 61.8204 29.134 62.2332 29.1273C62.4941 29.1321 62.7543 29.1002 63.0062 29.0326C63.2444 28.9613 63.4721 28.8594 63.6838 28.7296C63.8955 28.5935 64.0965 28.4415 64.285 28.2751L65.0007 27.6312C65.1487 27.5211 65.3315 27.4674 65.516 27.4797C65.7297 27.4708 65.9395 27.538 66.1077 27.6691C66.1836 27.7403 66.2427 27.8273 66.2807 27.9239C66.3186 28.0205 66.3345 28.1243 66.3272 28.2277C66.313 28.4916 66.2272 28.7468 66.079 28.9663C65.881 29.2793 65.6253 29.5524 65.3251 29.7712C64.9437 30.0585 64.514 30.2765 64.0559 30.4151C63.4887 30.5952 62.8955 30.6815 62.3 30.6708C61.6561 30.7092 61.011 30.6155 60.4052 30.3956C59.7993 30.1756 59.2456 29.8342 58.7787 29.3925C58.346 28.9276 58.0116 28.3814 57.7952 27.7862C57.5788 27.1909 57.4849 26.5586 57.519 25.9267C57.5162 25.2831 57.6194 24.6434 57.8244 24.0329C58.0351 23.4686 58.3598 22.953 58.7787 22.5178C59.193 22.0994 59.6946 21.7762 60.2483 21.5709C60.8592 21.3474 61.5058 21.2351 62.1569 21.2395C62.9827 21.2158 63.7999 21.412 64.5235 21.8076C65.1473 22.1558 65.6598 22.6709 66.0027 23.2943C66.3287 23.873 66.4996 24.5251 66.4989 25.1881C66.5301 25.4055 66.4993 25.6272 66.4099 25.8281C66.3205 26.0289 66.1761 26.2009 65.9932 26.3244C65.5416 26.5157 65.0522 26.6031 64.5617 26.5801L64.5331 26.5138Z" fill="#100F2C"/>
<path fill-rule="evenodd" clip-rule="evenodd" d="M70.7932 27.3282V29.2694C70.816 29.6444 70.6931 30.0138 70.4496 30.3015C70.3417 30.4169 70.2099 30.5079 70.0634 30.5684C69.9168 30.6288 69.7589 30.6573 69.6003 30.6519C69.4421 30.658 69.2846 30.6288 69.1393 30.5665C68.9939 30.5043 68.8645 30.4105 68.7605 30.292C68.5227 29.9948 68.4069 29.6194 68.4361 29.241V22.7924C68.4361 21.7508 68.8178 21.2205 69.5812 21.2205C69.7428 21.2054 69.9055 21.2313 70.0541 21.2959C70.2027 21.3605 70.3323 21.4617 70.4306 21.5898C70.6261 21.9155 70.7222 22.2905 70.7073 22.6693C70.9355 22.2649 71.2289 21.9003 71.5757 21.5898C71.9134 21.331 72.3329 21.2001 72.759 21.2205C73.263 21.2218 73.7585 21.3488 74.2 21.5898C74.3962 21.6648 74.5668 21.7937 74.6919 21.9614C74.8169 22.1291 74.8913 22.3287 74.9062 22.5367C74.9062 22.7879 74.8057 23.0287 74.6267 23.2063C74.4477 23.3839 74.205 23.4837 73.9519 23.4837C73.7399 23.4571 73.5318 23.4062 73.3316 23.3322C73.0498 23.2312 72.7532 23.1768 72.4537 23.1712C72.1479 23.1574 71.8471 23.2513 71.6043 23.4363C71.3655 23.6504 71.1905 23.9256 71.0986 24.2317C70.9648 24.6655 70.8847 25.1139 70.86 25.5669C70.86 26.0498 70.7932 26.6464 70.7932 27.3471" fill="#100F2C"/>
<path fill-rule="evenodd" clip-rule="evenodd" d="M84.1724 27.8016C84.1689 28.1351 84.0767 28.4617 83.9052 28.7485C83.7038 29.1137 83.4313 29.4356 83.1036 29.6955C82.6987 30.0136 82.2398 30.2573 81.7485 30.4151C81.1528 30.6006 80.5309 30.6901 79.9067 30.6803C79.2825 30.7174 78.6574 30.6255 78.071 30.4103C77.4845 30.1952 76.9495 29.8614 76.4998 29.4303C76.0796 28.9775 75.7543 28.4463 75.5429 27.8676C75.3316 27.2888 75.2384 26.6741 75.2688 26.0593C75.2518 25.1841 75.4448 24.3175 75.8318 23.531C76.1862 22.813 76.7519 22.2186 77.4541 21.8265C78.2333 21.4113 79.1085 21.2056 79.9926 21.23C80.5605 21.2225 81.1254 21.3122 81.6626 21.4951C82.1332 21.6427 82.5729 21.8737 82.9604 22.1769C83.2849 22.4202 83.5602 22.7222 83.7716 23.067C83.9398 23.3315 84.0352 23.6351 84.0483 23.9476C84.048 24.0798 84.0198 24.2104 83.9656 24.3311C83.9113 24.4517 83.8323 24.5598 83.7334 24.6484C83.6318 24.7447 83.5121 24.8202 83.3811 24.8705C83.2501 24.9209 83.1104 24.9452 82.97 24.9419C82.795 24.9483 82.6232 24.8948 82.4833 24.7904C82.3154 24.6528 82.1705 24.4898 82.0538 24.3075C81.8101 23.9414 81.5032 23.6208 81.1473 23.3605C80.691 23.0872 80.1509 22.9856 79.6254 23.0742C79.0999 23.1628 78.624 23.4358 78.2844 23.8435C77.8241 24.4816 77.5984 25.257 77.645 26.0403C77.6426 26.4336 77.6939 26.8255 77.7977 27.205C77.8929 27.5486 78.055 27.8703 78.2748 28.152C78.4721 28.4063 78.7272 28.6107 79.0192 28.7485C79.3197 28.8806 79.6448 28.9484 79.9735 28.9474C80.4014 28.9565 80.8227 28.8413 81.1854 28.616C81.553 28.3749 81.8573 28.0503 82.0729 27.669C82.1933 27.4395 82.3513 27.2315 82.5405 27.0535C82.7318 26.8961 82.9774 26.8189 83.2251 26.8384C83.4728 26.8578 83.7031 26.9724 83.867 27.1577C84.0461 27.3445 84.1482 27.5911 84.1533 27.849" fill="#100F2C"/>
<path fill-rule="evenodd" clip-rule="evenodd" d="M88.19 25.2071H92.4557C92.453 24.5542 92.2239 23.9222 91.8067 23.4174C91.6163 23.2183 91.3845 23.0627 91.1275 22.9613C90.8704 22.86 90.5942 22.8153 90.318 22.8303C90.0491 22.8233 89.7816 22.8728 89.5333 22.9757C89.2849 23.0785 89.0613 23.2322 88.8771 23.4268C88.4542 23.9275 88.2123 24.5542 88.19 25.2071ZM92.7897 26.5138H88.19C88.1832 27 88.2945 27.4807 88.5144 27.9153C88.6916 28.2862 88.9734 28.5982 89.3258 28.8133C89.6781 29.0285 90.0858 29.1375 90.4994 29.1273C91.0123 29.1433 91.518 29.0046 91.9499 28.7296C92.1616 28.5935 92.3626 28.4415 92.5511 28.2751L93.2668 27.6312C93.4148 27.5211 93.5976 27.4674 93.7821 27.4797C93.9958 27.4708 94.2056 27.538 94.3738 27.6691C94.4477 27.7418 94.5054 27.8291 94.5433 27.9253C94.5811 28.0215 94.5981 28.1246 94.5933 28.2277C94.5743 28.4907 94.489 28.7447 94.3452 28.9663C94.1472 29.2793 93.8914 29.5524 93.5913 29.7712C93.2086 30.0566 92.7792 30.2744 92.3221 30.4151C91.7546 30.5943 91.1616 30.6807 90.5662 30.6708C89.9222 30.7092 89.2772 30.6155 88.6713 30.3956C88.0654 30.1756 87.5118 29.8342 87.0448 29.3925C86.6121 28.9276 86.2777 28.3814 86.0613 27.7862C85.845 27.1909 85.751 26.5586 85.7851 25.9267C85.7823 25.2831 85.8855 24.6434 86.0905 24.0329C86.3012 23.4686 86.6259 22.953 87.0448 22.5178C87.4591 22.0994 87.9607 21.7762 88.5144 21.5709C89.1253 21.3474 89.7719 21.2351 90.423 21.2395C91.2489 21.2158 92.066 21.412 92.7897 21.8076C93.4134 22.1558 93.926 22.6709 94.2688 23.2943C94.5902 23.8748 94.7608 24.5257 94.7651 25.1881C94.7964 25.4065 94.7646 25.6292 94.6734 25.8304C94.5822 26.0316 94.4353 26.2029 94.2497 26.3244C93.7987 26.5177 93.3089 26.6051 92.8183 26.5801L92.7897 26.5138Z" fill="#100F2C"/>
<path fill-rule="evenodd" clip-rule="evenodd" d="M37.6602 37.091H38.0705V33.9851H37.6602V37.091Z" fill="#4D4E4C"/>
<path fill-rule="evenodd" clip-rule="evenodd" d="M38.7576 37.091V34.8373H39.1011V35.1592C39.1798 35.041 39.2879 34.9449 39.4149 34.8802C39.542 34.8155 39.6837 34.7844 39.8264 34.7899C39.9568 34.7859 40.0868 34.8085 40.2081 34.8562C40.3103 34.8985 40.3993 34.9672 40.4658 35.0551C40.5247 35.1367 40.5639 35.2306 40.5803 35.3297C40.5942 35.4556 40.5942 35.5826 40.5803 35.7084V37.091H40.189V35.7179C40.2076 35.6019 40.2076 35.4836 40.189 35.3676C40.154 35.293 40.0976 35.2304 40.0268 35.1876C39.9456 35.1414 39.8531 35.1185 39.7596 35.1214C39.6022 35.116 39.4487 35.1701 39.3301 35.2729C39.2613 35.3534 39.2097 35.4469 39.1785 35.5479C39.1473 35.6488 39.1372 35.755 39.1488 35.86V37.091H38.7671" fill="#4D4E4C"/>
<path fill-rule="evenodd" clip-rule="evenodd" d="M42.0402 36.7501L42.0975 37.0815C41.9993 37.0937 41.8999 37.0937 41.8017 37.0815C41.6899 37.0839 41.579 37.0613 41.4772 37.0153C41.4071 36.9759 41.3506 36.9165 41.315 36.8448C41.2757 36.6966 41.2596 36.5433 41.2672 36.3903V35.1309H40.981V34.8373H41.2672V34.2787L41.649 34.0514V34.8373H42.0402V35.1309H41.649V36.4471C41.6395 36.5162 41.6395 36.5863 41.649 36.6554C41.6635 36.6865 41.6867 36.7128 41.7158 36.7312C41.7596 36.742 41.8055 36.742 41.8494 36.7312H42.0211" fill="#4D4E4C"/>
<path fill-rule="evenodd" clip-rule="evenodd" d="M42.7084 35.7463H43.9776C43.9716 35.5937 43.9219 35.4459 43.8344 35.3202C43.7762 35.251 43.7032 35.1955 43.6207 35.1578C43.5381 35.1202 43.4481 35.1012 43.3573 35.1024C43.191 35.0982 43.0297 35.1595 42.9088 35.2729C42.7823 35.3988 42.7104 35.5686 42.7084 35.7463ZM43.9776 36.3618L44.3784 36.4092C44.3278 36.6245 44.2029 36.8154 44.0253 36.9489C43.8348 37.0789 43.6075 37.1452 43.3764 37.1383C43.2304 37.1453 43.0845 37.122 42.9481 37.0698C42.8117 37.0176 42.6878 36.9378 42.5843 36.8353C42.3763 36.6011 42.27 36.2947 42.2885 35.9831C42.2665 35.6623 42.3728 35.3459 42.5843 35.1024C42.6799 34.9969 42.7981 34.9141 42.9302 34.86C43.0623 34.8059 43.205 34.782 43.3478 34.7899C43.4876 34.7865 43.6267 34.8116 43.7564 34.8638C43.8861 34.9159 44.0036 34.9939 44.1016 35.093C44.3147 35.3394 44.421 35.6593 44.3975 35.9831V36.0872H42.6893C42.6878 36.2956 42.7623 36.4974 42.8992 36.6554C42.96 36.7202 43.034 36.7714 43.1163 36.8057C43.1985 36.84 43.2872 36.8565 43.3764 36.8542C43.5066 36.857 43.634 36.8171 43.739 36.7406C43.8501 36.6483 43.9327 36.5269 43.9776 36.3902V36.3618Z" fill="#4D4E4C"/>
<path fill-rule="evenodd" clip-rule="evenodd" d="M44.8459 37.091H45.2372V33.9851H44.8459V37.091Z" fill="#4D4E4C"/>
<path fill-rule="evenodd" clip-rule="evenodd" d="M45.8289 37.091H46.2106V33.9851H45.8289V37.091Z" fill="#4D4E4C"/>
<path fill-rule="evenodd" clip-rule="evenodd" d="M46.8118 37.091H47.2603V34.8373H46.8499L46.8118 37.091ZM46.8118 34.4207H47.2603V33.9851H46.8499L46.8118 34.4207Z" fill="#4D4E4C"/>
<path fill-rule="evenodd" clip-rule="evenodd" d="M48.0332 35.9262C48.0128 36.1556 48.0772 36.3845 48.2146 36.5701C48.2683 36.6335 48.3356 36.6842 48.4115 36.7186C48.4874 36.753 48.5701 36.7702 48.6535 36.769C48.7384 36.7703 48.8225 36.7532 48.9 36.7188C48.9775 36.6845 49.0464 36.6337 49.1021 36.5701C49.2237 36.3823 49.2884 36.1637 49.2884 35.9404C49.2884 35.7171 49.2237 35.4986 49.1021 35.3107C49.0493 35.2455 48.9825 35.1929 48.9065 35.1568C48.8305 35.1207 48.7473 35.1019 48.6631 35.1019C48.5788 35.1019 48.4956 35.1207 48.4197 35.1568C48.3437 35.1929 48.2769 35.2455 48.2241 35.3107C48.0853 35.4851 48.0172 35.7046 48.0332 35.9262ZM47.7088 37.2709L48.0905 37.3277C48.0912 37.3763 48.1037 37.4241 48.127 37.467C48.1502 37.5098 48.1835 37.5465 48.2241 37.5739C48.3372 37.6558 48.4756 37.696 48.6154 37.6875C48.7611 37.6958 48.9054 37.6558 49.0257 37.5739C49.1257 37.5029 49.1967 37.3988 49.2261 37.2803C49.2417 37.1197 49.2417 36.958 49.2261 36.7974C49.1478 36.8898 49.0499 36.9641 48.9394 37.0148C48.8289 37.0655 48.7085 37.0915 48.5867 37.0909C48.447 37.097 48.3079 37.0691 48.1815 37.0097C48.0551 36.9503 47.9453 36.8612 47.8615 36.75C47.6862 36.5185 47.5953 36.2347 47.6038 35.9452C47.6053 35.7432 47.6475 35.5436 47.7279 35.3581C47.7978 35.1857 47.9172 35.0375 48.0714 34.932C48.2288 34.8351 48.4111 34.7857 48.5963 34.7899C48.7241 34.7869 48.8507 34.8146 48.9654 34.8706C49.08 34.9267 49.1793 35.0095 49.2547 35.1119V34.8373H49.6174V36.7785C49.6346 37.0331 49.5955 37.2884 49.5029 37.5265C49.433 37.6763 49.3157 37.7993 49.1689 37.8769C48.9903 37.9617 48.7942 38.0038 48.5963 38C48.3628 38.0138 48.1313 37.9505 47.9378 37.8201C47.8532 37.7566 47.7861 37.6731 47.7427 37.5771C47.6994 37.481 47.6811 37.3757 47.6897 37.2709H47.7088Z" fill="#4D4E4C"/>
<path fill-rule="evenodd" clip-rule="evenodd" d="M50.5145 35.7463H51.7837C51.7866 35.5922 51.7361 35.4418 51.6405 35.3202C51.5828 35.2505 51.5098 35.1946 51.4272 35.1569C51.3445 35.1192 51.2543 35.1005 51.1634 35.1024C50.9971 35.0982 50.8358 35.1595 50.7149 35.2729C50.5959 35.4036 50.5252 35.5705 50.5145 35.7463ZM51.7837 36.3618L52.1845 36.4092C52.1339 36.6245 52.009 36.8154 51.8314 36.9489C51.6414 37.0801 51.4137 37.1465 51.1825 37.1383C51.0365 37.1453 50.8906 37.122 50.7542 37.0698C50.6178 37.0176 50.4939 36.9377 50.3904 36.8353C50.1927 36.5967 50.0968 36.2908 50.1232 35.9831C50.1062 35.663 50.2119 35.3484 50.419 35.1024C50.5184 34.9992 50.6387 34.9181 50.7719 34.8642C50.9051 34.8104 51.0483 34.7851 51.192 34.7899C51.3308 34.7836 51.4694 34.8075 51.5979 34.8598C51.7265 34.9121 51.842 34.9917 51.9364 35.093C52.1389 35.3335 52.2413 35.6417 52.2226 35.9547V36.0588H50.4954C50.4938 36.2672 50.5684 36.469 50.7053 36.627C50.7665 36.6913 50.8405 36.7422 50.9227 36.7764C51.0049 36.8107 51.0934 36.8275 51.1825 36.8258C51.3129 36.83 51.4408 36.79 51.5451 36.7122C51.6591 36.6226 51.7424 36.5002 51.7837 36.3618Z" fill="#4D4E4C"/>
<path fill-rule="evenodd" clip-rule="evenodd" d="M52.6712 37.0909V34.8373H52.9862V35.1592C53.0642 35.0403 53.1721 34.9437 53.2993 34.8789C53.4265 34.8141 53.5686 34.7834 53.7114 34.7899C53.8387 34.7872 53.9652 34.8097 54.0836 34.8562C54.1898 34.8961 54.2825 34.965 54.3508 35.055C54.4097 35.1366 54.4489 35.2306 54.4653 35.3297C54.4781 35.4556 54.4781 35.5825 54.4653 35.7084V37.0909H54.0836V35.7179C54.0874 35.5993 54.0713 35.4809 54.0359 35.3675C54.0037 35.2912 53.9465 35.2279 53.8737 35.1876C53.7929 35.1405 53.7001 35.1174 53.6065 35.1213C53.4521 35.1164 53.3017 35.1707 53.1866 35.2728C53.1157 35.3521 53.0628 35.4455 53.0315 35.5468C53.0002 35.6481 52.9913 35.7549 53.0053 35.8599V37.0909H52.6235" fill="#4D4E4C"/>
<path fill-rule="evenodd" clip-rule="evenodd" d="M55.954 36.7501V37.0815C55.859 37.0942 55.7628 37.0942 55.6678 37.0815C55.5559 37.0849 55.4447 37.0622 55.3433 37.0153C55.2732 36.9759 55.2167 36.9165 55.1811 36.8448C55.1369 36.6975 55.1207 36.5434 55.1333 36.3903V35.1309H54.8948V34.8373H55.1811V34.2787L55.5628 34.0514V34.8373H55.954V35.1309H55.5628V36.4471C55.5534 36.5162 55.5534 36.5863 55.5628 36.6554C55.5741 36.6884 55.5981 36.7156 55.6296 36.7312C55.6733 36.7433 55.7195 36.7433 55.7632 36.7312H55.935" fill="#4D4E4C"/>
<path fill-rule="evenodd" clip-rule="evenodd" d="M59.8379 35.9831L60.2578 36.0872C60.1896 36.3886 60.0216 36.6586 59.7807 36.8542C59.5446 37.0379 59.2502 37.1319 58.9504 37.1194C58.6634 37.1315 58.3788 37.0625 58.1297 36.9205C57.9114 36.774 57.7419 36.5664 57.643 36.3239C57.5308 36.0605 57.4756 35.7766 57.4808 35.4907C57.4719 35.1993 57.5341 34.9102 57.6621 34.6479C57.7777 34.4136 57.9646 34.2215 58.1965 34.0987C58.4311 33.9732 58.6935 33.9081 58.96 33.9093C59.2433 33.8975 59.5224 33.9809 59.752 34.146C59.9745 34.3128 60.1327 34.55 60.2006 34.8183L59.7902 34.913C59.7401 34.7201 59.6299 34.5478 59.4753 34.4206C59.3228 34.3114 59.1384 34.2549 58.9504 34.2597C58.737 34.2527 58.5267 34.3123 58.3492 34.4301C58.1889 34.5456 58.0689 34.7078 58.0057 34.8941C57.937 35.0856 57.9015 35.2873 57.9007 35.4907C57.8983 35.7267 57.9403 35.9612 58.0248 36.1819C58.093 36.3658 58.2204 36.5223 58.3874 36.627C58.5493 36.7213 58.734 36.7704 58.9218 36.769C59.1359 36.7705 59.3443 36.7004 59.5135 36.5701C59.6855 36.4166 59.7999 36.2096 59.8379 35.9831Z" fill="#4D4E4C"/>
<path fill-rule="evenodd" clip-rule="evenodd" d="M60.9736 35.9831C60.9558 36.2136 61.0237 36.4427 61.1644 36.627C61.2236 36.6951 61.2968 36.7497 61.3791 36.7872C61.4615 36.8246 61.551 36.844 61.6416 36.844C61.7322 36.844 61.8217 36.8246 61.904 36.7872C61.9864 36.7497 62.0596 36.6951 62.1187 36.627C62.264 36.4377 62.3322 36.201 62.3096 35.9641C62.3227 35.74 62.255 35.5184 62.1187 35.3392C62.0596 35.2711 61.9864 35.2164 61.904 35.179C61.8217 35.1415 61.7322 35.1221 61.6416 35.1221C61.551 35.1221 61.4615 35.1415 61.3791 35.179C61.2968 35.2164 61.2236 35.2711 61.1644 35.3392C61.0237 35.5235 60.9558 35.7525 60.9736 35.9831ZM60.6205 35.9831C60.6026 35.809 60.625 35.6331 60.6863 35.4689C60.7475 35.3048 60.8457 35.1567 60.9736 35.0362C61.1739 34.8701 61.4284 34.7826 61.6893 34.79C61.8313 34.7808 61.9735 34.8033 62.1056 34.8557C62.2377 34.9081 62.3563 34.9892 62.4527 35.093C62.5573 35.2045 62.6383 35.3357 62.6907 35.4788C62.7432 35.622 62.7661 35.7741 62.7581 35.9263C62.7678 36.1638 62.7221 36.4004 62.6245 36.6175C62.5367 36.7776 62.4041 36.9091 62.2428 36.9963C62.0738 37.0905 61.8831 37.1394 61.6893 37.1383C61.5465 37.1427 61.4042 37.1181 61.2713 37.066C61.1384 37.0139 61.0176 36.9354 60.9163 36.8353C60.7083 36.6011 60.602 36.2948 60.6205 35.9831Z" fill="#4D4E4C"/>
<path fill-rule="evenodd" clip-rule="evenodd" d="M63.1589 37.0909V34.8372H63.4834V35.1497C63.5593 35.0426 63.6568 34.9524 63.7697 34.8846C63.8927 34.8189 64.0309 34.7862 64.1705 34.7899C64.318 34.7801 64.4649 34.8166 64.5904 34.894C64.696 34.9613 64.7765 35.0611 64.8194 35.1781C64.8926 35.0599 64.995 34.9621 65.1169 34.8942C65.2388 34.8262 65.3762 34.7903 65.516 34.7899C65.6112 34.7831 65.7068 34.7956 65.797 34.8265C65.8873 34.8574 65.9702 34.9062 66.0409 34.9698C66.1081 35.0494 66.1587 35.1414 66.1898 35.2406C66.2209 35.3397 66.232 35.444 66.2222 35.5474V37.0909H65.8405V35.6705C65.8601 35.5609 65.8601 35.4487 65.8405 35.3391C65.8159 35.2718 65.7687 35.215 65.7069 35.1781C65.6369 35.1396 65.5579 35.1201 65.4779 35.1213C65.4042 35.1183 65.3307 35.1302 65.2618 35.1562C65.1929 35.1822 65.13 35.2219 65.0771 35.2728C64.9568 35.4152 64.8985 35.5991 64.9148 35.7841V37.0909H64.5331V35.6232C64.5398 35.4903 64.5066 35.3585 64.4377 35.2444C64.3987 35.2006 64.3499 35.1667 64.2951 35.1453C64.2404 35.1239 64.1813 35.1157 64.1228 35.1213C64.0181 35.1219 63.9156 35.1514 63.8269 35.2065C63.7787 35.2322 63.7361 35.2672 63.7016 35.3095C63.6672 35.3518 63.6417 35.4005 63.6265 35.4527C63.5785 35.6026 63.556 35.7594 63.5597 35.9167V37.0909H63.178" fill="#4D4E4C"/>
<path fill-rule="evenodd" clip-rule="evenodd" d="M66.814 37.091V34.8373H67.1575V35.1498C67.2334 35.0427 67.3309 34.9524 67.4438 34.8846C67.5703 34.819 67.7115 34.7864 67.8541 34.7899C67.9985 34.7816 68.1419 34.818 68.2645 34.8941C68.3702 34.9613 68.4506 35.0611 68.4935 35.1782C68.5682 35.0592 68.6723 34.9611 68.7959 34.8931C68.9194 34.8252 69.0584 34.7897 69.1997 34.7899C69.2935 34.7828 69.3877 34.7951 69.4764 34.8261C69.5652 34.857 69.6464 34.906 69.715 34.9699C69.7822 35.0495 69.8328 35.1415 69.8639 35.2407C69.895 35.3398 69.9061 35.4441 69.8963 35.5475V37.091H69.5146V35.6706C69.5342 35.561 69.5342 35.4488 69.5146 35.3392C69.4931 35.2701 69.4451 35.2123 69.381 35.1782C69.311 35.1397 69.232 35.1201 69.152 35.1214C69.0783 35.1183 69.0048 35.1302 68.9359 35.1563C68.867 35.1823 68.8041 35.222 68.7512 35.2729C68.6309 35.4152 68.5726 35.5992 68.5889 35.7842V37.091H68.2072V35.6232C68.2184 35.49 68.1849 35.3568 68.1118 35.2445C68.0748 35.2008 68.0277 35.1668 67.9745 35.1454C67.9213 35.1239 67.8636 35.1157 67.8064 35.1214C67.6985 35.1201 67.5925 35.1497 67.5011 35.2066C67.4528 35.2323 67.4102 35.2673 67.3758 35.3096C67.3413 35.3519 67.3158 35.4005 67.3007 35.4528C67.2565 35.6034 67.2372 35.7601 67.2434 35.9168V37.091H66.8521" fill="#4D4E4C"/>
<path fill-rule="evenodd" clip-rule="evenodd" d="M70.7646 35.7464H72.0719C72.0659 35.5937 72.0163 35.4459 71.9288 35.3202C71.8706 35.251 71.7976 35.1955 71.715 35.1579C71.6325 35.1202 71.5425 35.1012 71.4516 35.1024C71.2853 35.0983 71.1241 35.1595 71.0031 35.2729C70.9336 35.332 70.8766 35.4044 70.8356 35.4857C70.7947 35.567 70.7705 35.6556 70.7646 35.7464ZM72.0719 36.3619L72.4632 36.4092C72.3987 36.6231 72.2602 36.8076 72.0719 36.93C71.8814 37.06 71.6541 37.1263 71.423 37.1194C71.277 37.1264 71.1311 37.1031 70.9947 37.0509C70.8583 36.9987 70.7344 36.9188 70.631 36.8164C70.4229 36.5821 70.3166 36.2758 70.3351 35.9641C70.3131 35.6434 70.4194 35.327 70.631 35.0835C70.7265 34.978 70.8447 34.8952 70.9768 34.8411C71.109 34.787 71.2517 34.7631 71.3944 34.771C71.5332 34.7647 71.6717 34.7886 71.8003 34.8409C71.9289 34.8932 72.0444 34.9728 72.1387 35.074C72.3482 35.3112 72.4546 35.621 72.4346 35.9357V36.0399H70.7455C70.7439 36.2482 70.8185 36.4501 70.9554 36.6081C71.0162 36.6728 71.0902 36.7241 71.1725 36.7584C71.2547 36.7926 71.3434 36.8092 71.4326 36.8069C71.5627 36.8097 71.6902 36.7697 71.7952 36.6933C71.9148 36.6084 72.0102 36.4942 72.0719 36.3619Z" fill="#4D4E4C"/>
<path fill-rule="evenodd" clip-rule="evenodd" d="M72.9119 37.091V34.8373H73.2554V35.1782C73.3111 35.0555 73.3963 34.9482 73.5035 34.8657C73.5748 34.8125 73.6626 34.7857 73.7516 34.79C73.8913 34.7928 74.0271 34.8355 74.1429 34.9131L74.0093 35.2635C73.9269 35.2098 73.831 35.1803 73.7326 35.1782C73.6501 35.1789 73.5699 35.2054 73.5035 35.254C73.437 35.3086 73.3873 35.3809 73.3604 35.4623C73.3136 35.606 73.291 35.7564 73.2936 35.9074V37.091H72.9119Z" fill="#4D4E4C"/>
<path fill-rule="evenodd" clip-rule="evenodd" d="M75.8891 36.2672L76.2709 36.3145C76.2234 36.5589 76.0876 36.7778 75.8891 36.93C75.7124 37.0754 75.4888 37.1527 75.2593 37.1478C75.1205 37.1541 74.9819 37.1303 74.8534 37.0779C74.7248 37.0256 74.6093 36.946 74.515 36.8448C74.3107 36.6052 74.2081 36.2963 74.2287 35.9831C74.2228 35.7621 74.2651 35.5424 74.3527 35.3392C74.4255 35.1648 74.557 35.0208 74.7249 34.932C74.8908 34.8397 75.0788 34.7939 75.2688 34.7994C75.484 34.7904 75.6958 34.8538 75.8701 34.9793C76.0344 35.1126 76.1432 35.3015 76.1754 35.5096L75.8033 35.5664C75.7755 35.4364 75.709 35.3176 75.6124 35.2255C75.5184 35.1491 75.3999 35.1088 75.2784 35.1119C75.1895 35.1082 75.1009 35.1251 75.0198 35.1613C74.9386 35.1974 74.8671 35.2519 74.8108 35.3202C74.6712 35.5084 74.6066 35.7411 74.6295 35.9736C74.6105 36.2044 74.6711 36.4348 74.8012 36.627C74.8555 36.6952 74.9254 36.7497 75.005 36.7859C75.0846 36.8221 75.1718 36.839 75.2593 36.8353C75.4003 36.8389 75.5371 36.7879 75.641 36.6933C75.7505 36.5799 75.8178 36.433 75.8319 36.2766" fill="#4D4E4C"/>
<path fill-rule="evenodd" clip-rule="evenodd" d="M76.8434 35.7463H78.1126C78.1066 35.5937 78.057 35.4459 77.9695 35.3202C77.9113 35.251 77.8382 35.1955 77.7557 35.1578C77.6731 35.1202 77.5832 35.1012 77.4923 35.1024C77.326 35.0982 77.1647 35.1595 77.0438 35.2729C76.9174 35.3988 76.8455 35.5686 76.8434 35.7463ZM78.1126 36.3618L78.5039 36.4092C78.4558 36.6231 78.3343 36.8139 78.1603 36.9489C77.9392 37.0899 77.6777 37.1551 77.4158 37.1345C77.1538 37.114 76.9058 37.0089 76.7098 36.8353C76.5216 36.585 76.4199 36.2811 76.4199 35.9689C76.4199 35.6566 76.5216 35.3527 76.7098 35.1024C76.8053 34.9969 76.9235 34.9141 77.0557 34.86C77.1878 34.8059 77.3305 34.782 77.4732 34.7899C77.6121 34.7836 77.7506 34.8075 77.8792 34.8598C78.0077 34.9122 78.1232 34.9917 78.2176 35.093C78.4271 35.3301 78.5334 35.6399 78.5134 35.9547V36.0588H76.8434C76.8419 36.2672 76.9164 36.469 77.0533 36.627C77.1141 36.6918 77.1881 36.743 77.2704 36.7773C77.3526 36.8116 77.4413 36.8281 77.5305 36.8258C77.6607 36.8286 77.7881 36.7886 77.8931 36.7122C78.0014 36.6174 78.0835 36.4968 78.1317 36.3618H78.1126Z" fill="#4D4E4C"/>
<path fill-rule="evenodd" clip-rule="evenodd" d="M80.1357 36.0872H80.527C80.5438 36.2215 80.5893 36.3506 80.6606 36.466C80.7394 36.5765 80.8488 36.662 80.9755 36.7122C81.1308 36.7713 81.296 36.8002 81.4622 36.7974C81.6051 36.8009 81.7474 36.7784 81.8821 36.7311C81.9863 36.6921 82.0784 36.6269 82.1493 36.5417C82.2046 36.4642 82.2346 36.3716 82.2352 36.2766C82.2391 36.1838 82.2086 36.0928 82.1493 36.0209C82.0782 35.9317 81.9818 35.8658 81.8726 35.8315L81.3095 35.68C81.1029 35.6382 80.9014 35.5747 80.7083 35.4906C80.5699 35.4243 80.4514 35.3231 80.3648 35.1971C80.2943 35.0798 80.258 34.9454 80.2598 34.8089C80.2617 34.654 80.308 34.5029 80.3934 34.3733C80.49 34.2331 80.6261 34.1244 80.7847 34.0608C80.9706 33.991 81.1679 33.9557 81.3668 33.9566C81.5761 33.9523 81.784 33.991 81.9775 34.0703C82.1441 34.1337 82.2872 34.246 82.3879 34.3922C82.484 34.5396 82.54 34.7093 82.5501 34.8846H82.1493C82.1369 34.7137 82.0582 34.5542 81.9298 34.4396C81.7703 34.331 81.5791 34.2777 81.3859 34.288C81.1904 34.2713 80.9951 34.3214 80.8324 34.4301C80.7786 34.4672 80.7349 34.5168 80.7049 34.5746C80.675 34.6324 80.6598 34.6965 80.6606 34.7615C80.6594 34.8136 80.67 34.8652 80.6914 34.9127C80.7129 34.9602 80.7447 35.0024 80.7847 35.0361C80.9757 35.1471 81.1862 35.221 81.405 35.2539C81.6428 35.2988 81.876 35.3654 82.1016 35.4528C82.2631 35.5203 82.4045 35.6279 82.5119 35.7653C82.5973 35.8979 82.6405 36.053 82.636 36.2103C82.6357 36.3756 82.5859 36.5371 82.4929 36.6743C82.3961 36.8284 82.2524 36.9478 82.0825 37.0152C81.8939 37.1004 81.6885 37.1424 81.4813 37.1383C81.2367 37.1475 80.9928 37.1055 80.7656 37.0152C80.5774 36.9432 80.417 36.8139 80.3075 36.6459C80.2009 36.4783 80.1416 36.2853 80.1357 36.0872Z" fill="#4D4E4C"/>
<path fill-rule="evenodd" clip-rule="evenodd" d="M83.409 35.983C83.3912 36.2136 83.4591 36.4426 83.5998 36.6269C83.6598 36.6937 83.7333 36.7471 83.8155 36.7836C83.8978 36.8202 83.9869 36.8391 84.077 36.8391C84.1671 36.8391 84.2562 36.8202 84.3384 36.7836C84.4206 36.7471 84.4941 36.6937 84.5541 36.6269C84.6994 36.4376 84.7676 36.201 84.745 35.9641C84.7581 35.7399 84.6904 35.5184 84.5541 35.3391C84.4947 35.2714 84.4214 35.2169 84.3391 35.1794C84.2569 35.1418 84.1675 35.122 84.077 35.1213C83.9847 35.12 83.8933 35.1389 83.8092 35.1765C83.7251 35.2142 83.6504 35.2697 83.5903 35.3391C83.453 35.5247 83.3885 35.7537 83.409 35.983ZM83.0177 35.983C82.9998 35.8089 83.0223 35.633 83.0835 35.4689C83.1447 35.3048 83.243 35.1567 83.3708 35.0361C83.5711 34.8701 83.8256 34.7825 84.0865 34.7899C84.2281 34.7846 84.3692 34.8088 84.5007 34.861C84.6322 34.9132 84.7512 34.9922 84.85 35.0929C84.9528 35.2052 85.032 35.3368 85.0828 35.4799C85.1336 35.623 85.155 35.7748 85.1458 35.9262C85.16 36.1641 85.1141 36.4017 85.0122 36.6175C84.9287 36.7808 84.795 36.9134 84.6305 36.9962C84.465 37.0905 84.2773 37.1395 84.0865 37.1383C83.9435 37.1444 83.8007 37.1205 83.6676 37.0683C83.5344 37.0161 83.4138 36.9367 83.3135 36.8353C83.2082 36.717 83.1277 36.5789 83.0769 36.4293C83.0261 36.2797 83.006 36.1215 83.0177 35.9641V35.983Z" fill="#4D4E4C"/>
<path fill-rule="evenodd" clip-rule="evenodd" d="M85.5942 37.091H85.976V33.9851H85.5942V37.091Z" fill="#4D4E4C"/>
<path fill-rule="evenodd" clip-rule="evenodd" d="M88.0659 37.2538V36.9224C87.9883 37.0424 87.8808 37.1404 87.7536 37.2068C87.6265 37.2731 87.4842 37.3057 87.3406 37.3011C87.2127 37.3009 87.0861 37.2751 86.9684 37.2254C86.8671 37.1862 86.7781 37.1208 86.7108 37.036C86.6509 36.9504 86.6087 36.8538 86.5867 36.7519C86.5795 36.6321 86.5795 36.5119 86.5867 36.3921V35.0001H86.9684V36.2501C86.9533 36.3822 86.9533 36.5156 86.9684 36.6478C86.9859 36.7436 87.0408 36.8286 87.1211 36.8845C87.2075 36.9446 87.3116 36.9745 87.417 36.9697C87.5307 36.9696 87.6425 36.9402 87.7414 36.8845C87.8352 36.83 87.9088 36.747 87.9514 36.6478C88.0043 36.5056 88.0271 36.3541 88.0182 36.2027V35.0001H88.3999V37.2538H88.0563" fill="#4D4E4C"/>
<path fill-rule="evenodd" clip-rule="evenodd" d="M89.8599 36.7501L89.9172 37.0815C89.819 37.0937 89.7196 37.0937 89.6214 37.0815C89.5096 37.0839 89.3987 37.0613 89.2969 37.0153C89.2268 36.9759 89.1703 36.9165 89.1347 36.8448C89.1113 36.6942 89.1113 36.5409 89.1347 36.3903V35.1309H88.8484V34.8373H89.1347V34.2787L89.5164 34.0514V34.8373H89.9077V35.1309H89.5164V36.4471C89.507 36.5162 89.507 36.5863 89.5164 36.6554C89.5309 36.6865 89.5541 36.7128 89.5832 36.7312C89.6271 36.742 89.6729 36.742 89.7168 36.7312H89.8886" fill="#4D4E4C"/>
<path fill-rule="evenodd" clip-rule="evenodd" d="M90.2036 37.091H90.6044V34.8373H90.2036V37.091ZM90.2036 34.4207H90.6044V33.9851H90.2036V34.4207Z" fill="#4D4E4C"/>
<path fill-rule="evenodd" clip-rule="evenodd" d="M91.4633 35.983C91.4455 36.2136 91.5134 36.4426 91.6541 36.627C91.7123 36.6962 91.7854 36.7517 91.8679 36.7893C91.9504 36.827 92.0404 36.8459 92.1313 36.8447C92.2233 36.8448 92.3143 36.8254 92.3982 36.7878C92.4822 36.7503 92.557 36.6954 92.618 36.627C92.7599 36.4363 92.8246 36.1998 92.7993 35.9641C92.8187 35.7392 92.7504 35.5155 92.6084 35.3391C92.5493 35.2711 92.4761 35.2164 92.3937 35.179C92.3114 35.1415 92.2219 35.1221 92.1313 35.1221C92.0407 35.1221 91.9512 35.1415 91.8688 35.179C91.7865 35.2164 91.7132 35.2711 91.6541 35.3391C91.5134 35.5235 91.4455 35.7525 91.4633 35.983ZM91.072 35.983C91.055 35.8098 91.0769 35.635 91.1364 35.4712C91.1958 35.3074 91.2911 35.1588 91.4155 35.0361C91.6175 34.8731 91.8709 34.7859 92.1313 34.7899C92.2744 34.7832 92.4173 34.8068 92.5506 34.859C92.6838 34.9113 92.8044 34.991 92.9043 35.0929C93.0071 35.2052 93.0863 35.3368 93.1371 35.4799C93.1879 35.623 93.2093 35.7748 93.2001 35.9262C93.2098 36.1638 93.1641 36.4004 93.0665 36.6175C92.983 36.7808 92.8493 36.9134 92.6848 36.9963C92.5158 37.0905 92.3251 37.1394 92.1313 37.1383C91.9884 37.1427 91.8462 37.118 91.7133 37.0659C91.5804 37.0138 91.4596 36.9353 91.3583 36.8353C91.1526 36.5928 91.0499 36.2804 91.072 35.9641V35.983Z" fill="#4D4E4C"/>
<path fill-rule="evenodd" clip-rule="evenodd" d="M93.6487 37.0909V34.8373H94.0209V35.1592C94.0988 35.0403 94.2068 34.9437 94.334 34.8789C94.4612 34.8141 94.6033 34.7834 94.7461 34.7899C94.8734 34.7872 94.9999 34.8097 95.1183 34.8562C95.2205 34.8985 95.3095 34.9671 95.376 35.055C95.438 35.1359 95.4804 35.2299 95.5 35.3297C95.5128 35.4556 95.5128 35.5825 95.5 35.7084V37.0909H95.1183V35.7179C95.1221 35.5993 95.106 35.4809 95.0706 35.3675C95.0383 35.2912 94.9812 35.2279 94.9084 35.1876C94.8276 35.1405 94.7348 35.1174 94.6411 35.1213C94.4868 35.1164 94.3364 35.1707 94.2213 35.2728C94.1504 35.3521 94.0975 35.4455 94.0662 35.5468C94.0349 35.6481 94.026 35.7549 94.0399 35.8599V37.0909H93.6487Z" fill="#4D4E4C"/>
</svg>
