<svg width="118" height="22" viewBox="0 0 118 22" fill="none" xmlns="http://www.w3.org/2000/svg">
<g clip-path="url(#clip0_125_699)">
<path d="M35.5699 18.4149C35.4382 18.4186 35.3072 18.3934 35.1861 18.3412C35.0651 18.289 34.9568 18.2111 34.869 18.1128C34.6929 17.9315 34.5943 17.6887 34.5941 17.436V3.13308C34.5749 2.87359 34.6144 2.61313 34.7096 2.37098C34.8048 2.12882 34.9532 1.91119 35.1439 1.73421C35.5114 1.42531 35.9783 1.26001 36.4582 1.26893H41.1987C42.5237 1.24967 43.8156 1.6835 44.8605 2.4986C45.918 3.31637 46.4477 4.48763 46.4497 6.01239C46.4497 7.62376 45.9341 8.88668 44.9028 9.80113C43.9004 10.7066 42.5916 11.1979 41.241 11.1758H37.8541C37.0353 11.1758 36.6274 11.6713 36.6274 12.6563V17.4571C36.6259 17.5846 36.5983 17.7104 36.5464 17.8268C36.4944 17.9432 36.4192 18.0477 36.3253 18.1339C36.2243 18.2285 36.1055 18.3021 35.9759 18.3504C35.8462 18.3986 35.7082 18.4205 35.5699 18.4149ZM37.8541 9.56849H40.7334C41.3147 9.56428 41.8899 9.44944 42.4283 9.2301C43.0508 8.98852 43.5796 8.55405 43.9373 7.99028C44.295 7.42652 44.4629 6.76305 44.4164 6.09699C44.4164 5.02341 44.0568 4.24694 43.3377 3.76756C42.6173 3.2873 41.7683 3.0366 40.9026 3.04848H37.8541C37.0081 3.04848 36.5851 3.54197 36.5851 4.52893V8.09106C36.5576 8.47999 36.6381 8.86895 36.8177 9.21499C36.9718 9.44763 37.3193 9.56849 37.8541 9.56849Z" fill="#637280"/>
<path d="M48.9876 2.92162C48.79 2.93092 48.5925 2.90011 48.4072 2.83105C48.2218 2.76199 48.0523 2.6561 47.909 2.51979C47.7748 2.38301 47.6699 2.22028 47.6008 2.04156C47.5318 1.86285 47.4999 1.67192 47.5071 1.48045C47.4981 1.28021 47.5297 1.08021 47.6001 0.892532C47.6705 0.704853 47.7782 0.533388 47.9167 0.388488C48.0552 0.243589 48.2216 0.128263 48.406 0.0494708C48.5903 -0.0293215 48.7886 -0.0699463 48.9891 -0.0699463C49.1895 -0.0699463 49.3879 -0.0293215 49.5722 0.0494708C49.7565 0.128263 49.9229 0.243589 50.0615 0.388488C50.2 0.533388 50.3077 0.704853 50.378 0.892532C50.4484 1.08021 50.4801 1.28021 50.471 1.48045C50.4779 1.67213 50.4455 1.8632 50.3759 2.04192C50.3063 2.22065 50.2009 2.38326 50.0662 2.51979C49.9227 2.65596 49.7532 2.76175 49.5679 2.8308C49.3825 2.89985 49.1852 2.93074 48.9876 2.92162ZM49.1145 18.4149C48.9855 18.4196 48.8569 18.3976 48.7367 18.3504C48.6166 18.3031 48.5075 18.2316 48.4162 18.1403C48.3249 18.049 48.2534 17.9399 48.2062 17.8198C48.1589 17.6997 48.137 17.5711 48.1416 17.4421V6.64691C48.1323 6.51487 48.1548 6.38252 48.2074 6.26104C48.26 6.13957 48.3411 6.03254 48.4437 5.94898C48.6349 5.79383 48.8743 5.71046 49.1205 5.71332C49.353 5.71549 49.5774 5.79885 49.755 5.94898C49.8576 6.03254 49.9387 6.13957 49.9913 6.26104C50.0439 6.38252 50.0665 6.51487 50.0571 6.64691V17.4572C50.0662 17.7139 49.9752 17.9642 49.8033 18.1551C49.7142 18.2458 49.6065 18.316 49.4875 18.3609C49.3686 18.4058 49.2413 18.4242 49.1145 18.4149Z" fill="#637280"/>
<path d="M53.136 18.415C53.009 18.4182 52.8827 18.3958 52.7647 18.3489C52.6467 18.302 52.5394 18.2317 52.4493 18.1421C52.3592 18.0526 52.2882 17.9458 52.2406 17.8281C52.1929 17.7103 52.1697 17.5842 52.1722 17.4572V6.88258C52.1636 6.75063 52.1865 6.61852 52.239 6.49717C52.2916 6.37582 52.3722 6.2687 52.4743 6.18466C52.6657 6.03036 52.9052 5.94804 53.1511 5.95202C53.3832 5.95309 53.6077 6.03539 53.7856 6.18466C53.888 6.26838 53.9689 6.37544 54.0215 6.49687C54.0741 6.61831 54.0968 6.75057 54.0877 6.88258V7.77085C54.5529 7.10997 55.1889 6.58783 55.9277 6.26019C56.6514 5.92592 57.4388 5.75176 58.236 5.74959C59.1218 5.73733 59.9935 5.97278 60.7527 6.42938C61.5331 6.91737 62.135 7.64431 62.4688 8.50201C62.8799 7.52622 63.6345 6.73504 64.5898 6.27832C65.3811 5.91839 66.2374 5.72309 67.1065 5.70427C67.7338 5.69176 68.3569 5.80963 68.9362 6.05042C69.5156 6.29122 70.0387 6.64969 70.4723 7.10314C71.3908 8.0337 71.85 9.50105 71.85 11.5052V17.4572C71.8592 17.7145 71.767 17.9651 71.5932 18.1551C71.5071 18.2473 71.4019 18.3196 71.2851 18.367C71.1682 18.4145 71.0424 18.436 70.9164 18.4301C70.7874 18.4347 70.6588 18.4127 70.5387 18.3655C70.4186 18.3182 70.3094 18.2467 70.2182 18.1555C70.1269 18.0642 70.0554 17.9551 70.0081 17.8349C69.9609 17.7148 69.9389 17.5862 69.9436 17.4572V11.6563C69.9436 10.2181 69.6686 9.17375 69.1187 8.52316C68.8394 8.19989 68.4903 7.94433 68.0978 7.77579C67.7052 7.60725 67.2795 7.53015 66.8528 7.5503C66.0329 7.50599 65.2237 7.75322 64.5686 8.24822C64.0132 8.70053 63.5887 9.29298 63.339 9.96433C63.0901 10.6208 62.9612 11.3167 62.9583 12.0188V17.4572C62.9673 17.7139 62.8763 17.9642 62.7045 18.1551C62.6181 18.2469 62.5129 18.319 62.3961 18.3665C62.2793 18.4139 62.1537 18.4356 62.0277 18.4301C61.8987 18.4348 61.7701 18.4128 61.65 18.3655C61.5299 18.3182 61.4209 18.2466 61.3298 18.1551C61.2388 18.0637 61.1674 17.9546 61.1202 17.8346C61.0729 17.7146 61.0506 17.5861 61.0548 17.4572V11.6835C61.0548 10.2453 60.7789 9.19389 60.227 8.5292C59.9517 8.20055 59.6043 7.93988 59.2118 7.76747C58.8193 7.59506 58.3923 7.51557 57.964 7.53519C57.1432 7.49095 56.3332 7.73813 55.6769 8.23311C55.1183 8.69049 54.6943 9.29093 54.4502 9.97037C54.203 10.6263 54.0741 11.3209 54.0696 12.0218V17.4572C54.0788 17.7145 53.9865 17.9651 53.8127 18.1551C53.7252 18.2445 53.6195 18.314 53.5027 18.3589C53.3859 18.4037 53.2608 18.4228 53.136 18.415Z" fill="#637280"/>
<path d="M79.6389 18.415C77.663 18.415 76.0818 17.8298 74.8955 16.6596C73.7091 15.4893 73.1169 13.8729 73.1189 11.8104C73.105 10.7387 73.3672 9.68159 73.8803 8.7407C74.3833 7.83002 75.1208 7.07057 76.0164 6.54118C76.9995 5.97315 78.1201 5.68675 79.2552 5.71335C80.3856 5.66949 81.5041 5.95725 82.4729 6.54118C83.225 7.01186 83.8475 7.66303 84.2839 8.43552C84.7203 9.208 84.9567 10.0773 84.9716 10.9644C84.989 11.3823 84.8784 11.7955 84.6543 12.1487C84.5563 12.298 84.4213 12.4193 84.2625 12.5009C84.1036 12.5824 83.9264 12.6214 83.7479 12.614H75.6145C75.4932 12.6081 75.3717 12.6224 75.255 12.6563C75.1855 12.6865 75.1493 12.7832 75.1493 12.9585C75.1696 13.512 75.3297 14.0514 75.6145 14.5265C75.9414 15.1093 76.3984 15.6087 76.95 15.9858C77.5417 16.4013 78.2374 16.644 78.9592 16.6868C79.7734 16.742 80.5912 16.6562 81.3762 16.433C82.1422 16.217 82.8599 15.8571 83.4911 15.3725C83.6217 15.2635 83.7863 15.2036 83.9564 15.2033C84.1831 15.2184 84.3958 15.3181 84.5525 15.4826C84.7092 15.6471 84.7983 15.8644 84.8024 16.0916C84.7933 16.238 84.7549 16.381 84.6895 16.5123C84.6241 16.6436 84.533 16.7605 84.4217 16.856C83.7415 17.3925 82.9653 17.7945 82.1346 18.0403C81.3254 18.2863 80.4846 18.4125 79.6389 18.415ZM82.3038 11.1336C82.4055 11.139 82.5067 11.1161 82.5963 11.0676C82.6858 11.0191 82.7603 10.9468 82.8113 10.8586C82.9282 10.6455 82.9585 10.3956 82.8959 10.1607C82.7867 9.38028 82.3769 8.67339 81.7539 8.19082C81.0552 7.60566 80.1662 7.29713 79.2552 7.32371C78.5502 7.31642 77.8562 7.49905 77.2461 7.85244C76.6646 8.18219 76.1648 8.63861 75.7837 9.18786C75.431 9.68196 75.239 10.2727 75.2339 10.8798C75.2339 11.0218 75.3608 11.0913 75.6145 11.0913L82.3038 11.1336Z" fill="#637280"/>
<path d="M88.3584 12.0187V17.4571C88.3675 17.7139 88.2765 17.9641 88.1046 18.155C88.0182 18.2469 87.913 18.319 87.7963 18.3664C87.6795 18.4139 87.5538 18.4355 87.4278 18.43C87.2984 18.4346 87.1694 18.4126 87.0488 18.3653C86.9282 18.318 86.8187 18.2464 86.7269 18.155C86.6365 18.0632 86.5655 17.954 86.5183 17.8341C86.471 17.7142 86.4485 17.586 86.452 17.4571V6.8825C86.4434 6.75055 86.4663 6.61845 86.5188 6.49709C86.5714 6.37574 86.652 6.26862 86.7541 6.18458C86.947 6.03074 87.1872 5.94853 87.4339 5.95194C87.6659 5.95401 87.89 6.0362 88.0684 6.18458C88.1705 6.26862 88.2511 6.37574 88.3036 6.49709C88.3562 6.61845 88.3791 6.75055 88.3705 6.8825V7.89767C88.7249 7.17741 89.325 6.6074 90.0624 6.29032C90.7612 5.9438 91.5275 5.75506 92.3073 5.73743C92.7391 5.73944 93.1677 5.81189 93.5762 5.95194C93.831 6.02143 94.0482 6.18862 94.1805 6.41722C94.2436 6.53267 94.2819 6.66006 94.2928 6.79119C94.3037 6.92232 94.2871 7.05428 94.2439 7.17859C94.2175 7.30066 94.1661 7.41595 94.0931 7.51722C94.02 7.6185 93.9268 7.70358 93.8192 7.76713C93.7117 7.83067 93.5922 7.87131 93.4683 7.8865C93.3443 7.90168 93.2185 7.89108 93.0989 7.85537C92.6867 7.73059 92.2602 7.65951 91.8299 7.64388C91.3327 7.62206 90.838 7.72476 90.3905 7.94267C89.9431 8.16058 89.5572 8.48678 89.2678 8.89168C88.6388 9.81032 88.3202 10.9061 88.3584 12.0187Z" fill="#637280"/>
<path d="M100.042 18.4149C98.8949 18.4402 97.7645 18.1395 96.7817 17.5478C95.8641 16.9811 95.1175 16.176 94.6215 15.2183C94.1091 14.2166 93.8498 13.1046 93.8662 11.9795C93.8467 10.8455 94.1315 9.72713 94.691 8.74063C95.2234 7.81724 95.9906 7.05111 96.9147 6.51996C97.8683 5.97618 98.9501 5.69764 100.048 5.71327C101.77 5.71327 103.153 6.09496 104.196 6.85835C104.32 6.94095 104.421 7.05471 104.488 7.18829C104.555 7.32187 104.585 7.47062 104.577 7.61972C104.593 7.7347 104.583 7.85199 104.547 7.96226C104.51 8.07253 104.448 8.17274 104.366 8.2549C104.284 8.33705 104.184 8.39889 104.073 8.43548C103.963 8.47208 103.846 8.48242 103.731 8.46569C103.66 8.46487 103.589 8.45779 103.519 8.44454C103.433 8.43198 103.348 8.41073 103.265 8.38109C102.836 8.12575 102.39 7.89964 101.93 7.70432C101.375 7.47156 100.777 7.35635 100.175 7.36593C99.5798 7.34462 98.9875 7.45241 98.4382 7.6819C97.889 7.91138 97.3961 8.25711 96.9932 8.69531C96.1686 9.60197 95.7287 10.7937 95.7666 12.0188C95.7207 13.1955 96.1384 14.3433 96.9298 15.2153C97.712 16.052 98.7743 16.5724 99.9148 16.6776C100.678 16.7045 101.437 16.5589 102.136 16.2516C102.803 15.982 103.417 15.5952 103.948 15.1096C104.101 14.9762 104.296 14.9012 104.498 14.8981C104.608 14.8977 104.716 14.9222 104.815 14.9699C104.914 15.0175 105.001 15.0869 105.069 15.173C105.217 15.3397 105.3 15.5543 105.302 15.7773C105.268 16.081 105.134 16.3649 104.921 16.584C104.3 17.1493 103.584 17.6004 102.806 17.9164C101.926 18.2612 100.987 18.4305 100.042 18.4149Z" fill="#637280"/>
<path d="M112.447 18.415C110.471 18.415 108.89 17.8298 107.704 16.6596C106.517 15.4893 105.925 13.8729 105.927 11.8104C105.913 10.7387 106.176 9.68159 106.689 8.7407C107.192 7.83002 107.929 7.07057 108.825 6.54118C109.808 5.97315 110.928 5.68675 112.064 5.71335C113.194 5.66949 114.312 5.95725 115.281 6.54118C116.033 7.01186 116.656 7.66303 117.092 8.43552C117.529 9.208 117.765 10.0773 117.78 10.9644C117.802 11.3807 117.697 11.7938 117.478 12.1487C117.38 12.298 117.245 12.4193 117.086 12.5009C116.927 12.5824 116.75 12.6214 116.571 12.614H108.423C108.302 12.6081 108.18 12.6224 108.063 12.6563C107.994 12.6865 107.958 12.7832 107.958 12.9585C107.978 13.512 108.138 14.0514 108.423 14.5265C108.75 15.1093 109.207 15.6087 109.758 15.9858C110.35 16.4013 111.046 16.644 111.767 16.6868C112.582 16.742 113.399 16.6562 114.185 16.433C114.95 16.217 115.668 15.8571 116.299 15.3725C116.43 15.2635 116.595 15.2036 116.765 15.2033C116.991 15.2184 117.204 15.3181 117.361 15.4826C117.518 15.6471 117.607 15.8644 117.611 16.0916C117.602 16.238 117.563 16.381 117.498 16.5123C117.432 16.6436 117.341 16.7605 117.23 16.856C116.55 17.3925 115.774 17.7945 114.943 18.0403C114.134 18.2863 113.293 18.4125 112.447 18.415ZM115.112 11.1336C115.214 11.139 115.315 11.1161 115.405 11.0676C115.494 11.0191 115.569 10.9468 115.62 10.8586C115.738 10.646 115.768 10.3955 115.704 10.1607C115.595 9.38028 115.185 8.67339 114.562 8.19082C113.864 7.60566 112.975 7.29713 112.064 7.32371C111.359 7.31642 110.665 7.49905 110.054 7.85244C109.473 8.18219 108.973 8.63861 108.592 9.18786C108.239 9.68196 108.047 10.2727 108.042 10.8798C108.042 11.0218 108.169 11.0913 108.423 11.0913L115.112 11.1336Z" fill="#637280"/>
<path fill-rule="evenodd" clip-rule="evenodd" d="M29.8567 16.8922C29.8129 16.6793 29.707 16.484 29.5523 16.3313C29.3976 16.1785 29.2011 16.075 28.9877 16.0338C28.7742 15.9926 28.5533 16.0157 28.3529 16.1C28.1525 16.1843 27.9816 16.3262 27.8618 16.5076C27.742 16.689 27.6786 16.9019 27.6797 17.1193C27.6808 17.3367 27.7463 17.5489 27.868 17.7291C27.9896 17.9093 28.162 18.0493 28.3632 18.1316C28.5645 18.2139 28.7856 18.2347 28.9986 18.1914C29.1403 18.1626 29.275 18.1061 29.3948 18.0251C29.5147 17.9442 29.6174 17.8404 29.6971 17.7198C29.7768 17.5991 29.8319 17.4639 29.8593 17.3219C29.8867 17.1799 29.8858 17.0339 29.8567 16.8922Z" fill="#0E90E1"/>
<path fill-rule="evenodd" clip-rule="evenodd" d="M22.9922 17.1551C22.7783 17.1983 22.5821 17.304 22.4284 17.4588C22.2746 17.6136 22.1702 17.8105 22.1284 18.0246C22.0865 18.2387 22.1092 18.4604 22.1934 18.6617C22.2776 18.8629 22.4196 19.0347 22.6014 19.1552C22.7833 19.2757 22.9968 19.3396 23.215 19.3388C23.4331 19.3379 23.6462 19.2724 23.8271 19.1505C24.008 19.0285 24.1486 18.8557 24.2313 18.6538C24.3139 18.4518 24.3348 18.23 24.2913 18.0162C24.2629 17.8742 24.2066 17.7392 24.1258 17.619C24.0451 17.4988 23.9413 17.3958 23.8206 17.3158C23.6999 17.2357 23.5646 17.1804 23.4224 17.1528C23.2803 17.1252 23.134 17.126 22.9922 17.1551Z" fill="#0E90E1"/>
<path fill-rule="evenodd" clip-rule="evenodd" d="M18.9135 14.2486L27.8143 12.4358C28.0909 12.364 28.3293 12.1888 28.4804 11.9464C28.6315 11.7039 28.6838 11.4127 28.6264 11.1328C28.5691 10.8529 28.4064 10.6057 28.1721 10.4423C27.9378 10.2788 27.6496 10.2116 27.3672 10.2544L13.4238 13.0974C13.2806 13.1266 13.1445 13.1837 13.0233 13.2655C12.9021 13.3472 12.7983 13.452 12.7176 13.5739C12.6369 13.6958 12.5811 13.8324 12.5532 13.9759C12.5253 14.1194 12.526 14.267 12.5552 14.4102C12.5843 14.5534 12.6414 14.6895 12.7232 14.8107C12.8049 14.9319 12.9097 15.0357 13.0316 15.1164C13.1535 15.1971 13.2901 15.2529 13.4336 15.2808C13.5771 15.3087 13.7247 15.308 13.8679 15.2788L16.7291 14.6957L16.9164 15.6021C17.0607 16.3089 16.9182 17.044 16.5205 17.6457C16.1227 18.2474 15.5022 18.6665 14.7955 18.8108C14.0887 18.955 13.3536 18.8126 12.7519 18.4148C12.1501 18.017 11.7311 17.3965 11.5868 16.6898L8.71054 2.57722C8.71054 2.55909 8.71054 2.53794 8.71054 2.51981C8.65697 2.26458 8.51325 2.03719 8.30568 1.87929C8.1084 1.72109 7.86365 1.63382 7.61078 1.63154C7.53156 1.63059 7.45249 1.6387 7.37511 1.65572L0.906473 2.95488C0.762835 2.98204 0.625985 3.03734 0.503797 3.11759C0.381609 3.19783 0.276495 3.30145 0.194502 3.42247C0.112509 3.5435 0.0552562 3.67954 0.0260373 3.82277C-0.00318151 3.966 -0.00378958 4.1136 0.0242481 4.25707C0.08801 4.54804 0.264084 4.80206 0.51417 4.96388C0.764256 5.1257 1.06812 5.18223 1.35967 5.12117L6.73762 4.0486L9.40242 17.1369C9.66444 18.4226 10.4265 19.5516 11.5209 20.2754C12.6153 20.9993 13.9524 21.2587 15.2381 20.9967C16.5238 20.7347 17.6527 19.9726 18.3766 18.8782C19.1004 17.7838 19.3598 16.4467 19.0978 15.161L18.9135 14.2486Z" fill="#0E90E1"/>
<path fill-rule="evenodd" clip-rule="evenodd" d="M12.0187 6.21177L25.9651 3.37174C26.249 3.30699 26.4962 3.1338 26.654 2.88919C26.8118 2.64457 26.8677 2.34793 26.8097 2.06267C26.7517 1.7774 26.5844 1.52613 26.3436 1.36256C26.1028 1.19899 25.8076 1.1361 25.521 1.18732L11.5746 4.03038C11.2853 4.08928 11.0313 4.26067 10.8684 4.50687C10.7055 4.75306 10.6471 5.05387 10.706 5.34314C10.7649 5.63241 10.9363 5.88644 11.1825 6.04934C11.4286 6.21224 11.7295 6.27067 12.0187 6.21177Z" fill="#0E90E1"/>
</g>
<defs>
<clipPath id="clip0_125_699">
<rect width="117.78" height="21.0979" fill="white"/>
</clipPath>
</defs>
</svg>
