<?xml version="1.0" encoding="UTF-8"?>
<svg width="35" height="35" viewBox="0 0 35 35" fill="none" xmlns="http://www.w3.org/2000/svg">
<rect width="35" height="35" rx="12" fill="white"/>
<path d="M26.4421 10.0265C26.4336 10.0294 26.4243 10.0265 26.4158 10.0287L9.34508 16.4302C9.25323 16.4648 9.17273 16.5242 9.11244 16.6017C9.05215 16.6792 9.01441 16.7718 9.00338 16.8693C8.99235 16.9669 9.00845 17.0656 9.04991 17.1546C9.09138 17.2436 9.1566 17.3194 9.23839 17.3737L12.9794 19.8685L14.3486 25.5893C14.3521 25.6043 14.3614 25.6164 14.366 25.6306C14.3935 25.7172 14.4428 25.7952 14.5092 25.8572C14.5757 25.9191 14.6569 25.9629 14.7452 25.9844C14.8335 26.0058 14.9258 26.0042 15.0132 25.9796C15.1006 25.955 15.1803 25.9083 15.2444 25.844L17.9228 23.1656L22.04 25.9105C22.1099 25.957 22.1897 25.9864 22.2731 25.9963C22.3565 26.0062 22.4411 25.9962 22.5199 25.9672C22.5987 25.9383 22.6695 25.8911 22.7267 25.8296C22.7838 25.768 22.8256 25.6939 22.8487 25.6132L27.1164 10.6763C27.1431 10.5837 27.144 10.4856 27.1191 10.3926C27.0942 10.2996 27.0444 10.2151 26.975 10.1482C26.9057 10.0814 26.8194 10.0347 26.7255 10.0133C26.6316 9.99185 26.5336 9.99642 26.4421 10.0265ZM15.6459 20.8778C15.5577 20.9671 15.5311 21.0396 15.5001 21.1524C15.5001 21.1545 15.5001 21.1566 15.4984 21.1584L14.9034 23.3232L14.0552 19.7775L22.3174 14.1121L15.6459 20.8778Z" fill="#86D4DE"/>
</svg>
