<?xml version="1.0" encoding="UTF-8"?>
<svg width="35" height="35" viewBox="0 0 35 35" fill="none" xmlns="http://www.w3.org/2000/svg">
<rect width="35" height="35" rx="12" fill="white"/>
<g clip-path="url(#clip0_1_623)">
<path d="M24.8898 15.6528C24.5612 15.605 24.2475 15.4836 23.9723 15.2979C23.697 15.1121 23.4672 14.8666 23.2999 14.5797C23.1326 14.2928 23.0322 13.9718 23.0061 13.6408C22.9801 13.3097 23.029 12.977 23.1493 12.6674C23.2259 12.4651 23.2372 12.2438 23.1816 12.0347C23.1261 11.8256 23.0064 11.6391 22.8395 11.5015C22.1027 10.8829 21.2642 10.3969 20.3611 10.0651C20.1555 9.98874 19.931 9.9792 19.7196 10.0379C19.5082 10.0965 19.3208 10.2204 19.1839 10.3918C19.0058 10.6197 18.7845 10.8102 18.5327 10.9526C18.2809 11.0949 18.0035 11.1862 17.7164 11.2213C17.4293 11.2564 17.1381 11.2346 16.8594 11.1572C16.5807 11.0797 16.3201 10.9481 16.0923 10.7699C15.9514 10.6597 15.8244 10.5327 15.7142 10.3918C15.5773 10.2204 15.3898 10.0965 15.1784 10.0379C14.9671 9.9792 14.7426 9.98874 14.5369 10.0651C13.7031 10.3713 12.9235 10.8087 12.2275 11.3607C12.0521 11.4995 11.9257 11.6909 11.8669 11.9068C11.8082 12.1227 11.82 12.3518 11.9008 12.5604C12.0102 12.8275 12.0658 13.1134 12.0646 13.402C12.0634 13.6905 12.0053 13.976 11.8937 14.2421C11.7822 14.5083 11.6192 14.7498 11.4143 14.9529C11.2094 15.1561 10.9664 15.3168 10.6993 15.426C10.4984 15.5083 10.2864 15.5603 10.0702 15.5802C9.84829 15.604 9.63985 15.6983 9.47557 15.8494C9.3113 16.0005 9.19988 16.2003 9.15771 16.4195C9.05286 16.9384 9.00003 17.4665 9 17.996C8.99871 18.4393 9.03403 18.8821 9.10561 19.3196C9.14144 19.5458 9.25079 19.7539 9.41675 19.9117C9.58271 20.0695 9.79603 20.1683 10.0237 20.1927C10.3111 20.2197 10.5903 20.303 10.8454 20.4379C11.1006 20.5729 11.3266 20.7567 11.5107 20.979C11.6948 21.2013 11.8332 21.4577 11.9182 21.7336C12.0031 22.0094 12.0329 22.2993 12.0057 22.5866C11.9826 22.8327 11.918 23.0731 11.8149 23.2977C11.7191 23.5051 11.6953 23.7386 11.7473 23.9611C11.7994 24.1836 11.9243 24.3823 12.1022 24.5257C12.835 25.1328 13.666 25.6104 14.5595 25.938C14.6737 25.9776 14.7935 25.9985 14.9143 26C15.08 25.9997 15.2432 25.9596 15.3902 25.8832C15.5373 25.8067 15.6638 25.6961 15.7592 25.5607C15.96 25.2682 16.2291 25.0291 16.5432 24.8642C16.8573 24.6993 17.2069 24.6135 17.5617 24.6144C17.9054 24.6149 18.2443 24.6956 18.5513 24.8501C18.8584 25.0046 19.1251 25.2286 19.3303 25.5043C19.467 25.6876 19.6604 25.8204 19.8805 25.8823C20.1005 25.9442 20.3349 25.9316 20.547 25.8465C21.3635 25.5178 22.1237 25.0636 22.8001 24.5003C22.97 24.3598 23.0909 24.1691 23.1456 23.9556C23.2003 23.742 23.1858 23.5166 23.1042 23.3118C22.9718 22.9982 22.9141 22.658 22.9357 22.3183C22.9572 21.9785 23.0574 21.6484 23.2284 21.354C23.3994 21.0596 23.6364 20.8089 23.9208 20.6218C24.2052 20.4347 24.5292 20.3162 24.8673 20.2758C25.0865 20.2454 25.2903 20.1461 25.4493 19.9922C25.6083 19.8382 25.7142 19.6377 25.7516 19.4196C25.842 18.9503 25.891 18.4739 25.8981 17.996C25.898 17.4914 25.8509 16.9879 25.7572 16.492C25.7192 16.2787 25.6149 16.0828 25.4592 15.9322C25.3035 15.7815 25.1043 15.6837 24.8898 15.6528V15.6528ZM20.2654 17.996C20.2654 18.7429 19.9687 19.4592 19.4405 19.9874C18.9123 20.5156 18.196 20.8123 17.449 20.8123C16.7021 20.8123 15.9857 20.5156 15.4576 19.9874C14.9294 19.4592 14.6327 18.7429 14.6327 17.996C14.6327 17.249 14.9294 16.5327 15.4576 16.0045C15.9857 15.4763 16.7021 15.1796 17.449 15.1796C18.196 15.1796 18.9123 15.4763 19.4405 16.0045C19.9687 16.5327 20.2654 17.249 20.2654 17.996Z" fill="#EF8A75"/>
</g>
<defs>
<clipPath id="clip0_1_623">
<rect width="16.8981" height="16" fill="white" transform="translate(9 10)"/>
</clipPath>
</defs>
</svg>

