<svg width="14" height="14" viewBox="0 0 14 14" fill="none" xmlns="http://www.w3.org/2000/svg">
<path d="M3.326 2.60316V1.42037L2.4776 2.24452L0.975878 3.70334C0.844851 3.81566 0.666248 3.79976 0.574382 3.71807C0.465951 3.59647 0.486926 3.44254 0.567651 3.36412L3.40943 0.603543C3.54346 0.488643 3.72728 0.507925 3.81711 0.594547C3.81729 0.594721 3.81747 0.594896 3.81765 0.595071L6.63432 3.35499C6.74365 3.47481 6.72572 3.6271 6.64804 3.70741L6.64351 3.71181C6.60846 3.74587 6.5235 3.78345 6.43158 3.78345C6.35591 3.78345 6.28934 3.75586 6.244 3.71181L4.73356 2.24452L3.88517 1.42037V2.60316V12.5429C3.88517 12.6692 3.76768 12.8002 3.60558 12.8002C3.43967 12.8002 3.326 12.6655 3.326 12.5429V2.60316Z" stroke="white"/>
<path d="M13.0664 9.58204C13.1664 9.69461 13.1657 9.85639 13.0644 9.96831L10.256 12.6965C10.1217 12.8116 9.93738 12.792 9.84775 12.705L7.03051 9.96823C6.9198 9.84628 6.94053 9.69094 7.02175 9.61203C7.06709 9.56799 7.13366 9.5404 7.20932 9.5404C7.28499 9.5404 7.35156 9.56799 7.3969 9.61203L8.90734 11.0793L9.75574 11.9035V10.7207V0.780977C9.75574 0.651548 9.85551 0.516739 10.048 0.500265C10.207 0.506924 10.3149 0.637809 10.3149 0.757311V10.697V11.8798L11.1633 11.0557L12.665 9.59684C12.796 9.48455 12.9745 9.50041 13.0664 9.58204Z" stroke="white"/>
</svg>
