<svg width="18" height="18" viewBox="0 0 18 18" fill="none" xmlns="http://www.w3.org/2000/svg">
<path d="M9.19291 5.50814C9.57727 5.12378 9.57727 4.48317 9.19291 4.06677L5.47738 0.319035C5.09302 -0.0653295 4.45241 -0.0653295 4.03601 0.319035L0.288274 4.06677C-0.0960912 4.45114 -0.0960912 5.09175 0.288274 5.50814C0.672638 5.89251 1.31325 5.89251 1.72964 5.50814L3.71553 3.52226V16.975C3.71553 17.5195 4.16395 18 4.7405 18C5.28502 18 5.76547 17.5516 5.76547 16.975V3.52226L7.75136 5.50814C7.94354 5.70033 8.19978 5.79642 8.45603 5.79642C8.71227 5.79642 9.00054 5.70033 9.19273 5.50814H9.19291Z" fill="black"/>
<path d="M17.649 12.4919C17.2646 12.1075 16.624 12.1075 16.2076 12.4919L14.2217 14.4777V1.02497C14.2217 0.480456 13.7733 0 13.1968 0C12.6202 0.0320304 12.1718 0.480456 12.1718 1.057V14.5098L10.1859 12.5239C9.99371 12.3317 9.73747 12.2356 9.48122 12.2356C9.22498 12.2356 8.96874 12.3317 8.77655 12.5239C8.39219 12.9083 8.39219 13.5489 8.77655 13.9653L12.4921 17.6808C12.8764 18.0651 13.5171 18.0651 13.9334 17.6808L17.649 13.9653C18.0333 13.5489 18.0333 12.9083 17.649 12.4919Z" fill="black"/>
</svg>
