<svg width="16" height="16" viewBox="0 0 16 16" fill="none" xmlns="http://www.w3.org/2000/svg">
<path d="M4.2732 3.34424V2.08345L3.4091 3.00155L1.82856 4.68088C1.68563 4.81583 1.50444 4.79791 1.40195 4.69618C1.25846 4.5227 1.27794 4.27466 1.3955 4.14976L4.38552 0.972858C4.53124 0.835272 4.71673 0.856587 4.81804 0.963603C4.81822 0.963795 4.81841 0.963987 4.81859 0.96418L7.78234 4.14048C7.92605 4.31147 7.9097 4.55651 7.79627 4.68381L7.79086 4.68956C7.74541 4.73785 7.65425 4.77727 7.5656 4.77727C7.4941 4.77727 7.42227 4.74938 7.36597 4.68956L5.77726 3.00155L4.91316 2.08345V3.34424V14.7791C4.91316 15.0116 4.7344 15.1503 4.59318 15.1503C4.44595 15.1503 4.2732 15.0052 4.2732 14.7791V3.34424Z" fill="#929CA6" stroke="#686262"/>
<path d="M11.6766 12.6558V13.9166L12.5407 12.9985L14.1212 11.3191C14.2641 11.1842 14.4453 11.2021 14.5478 11.3038C14.6833 11.468 14.6828 11.7227 14.5462 11.8861L11.59 15.027C11.4441 15.1648 11.2582 15.1432 11.157 15.0357L8.19266 11.8861C8.04738 11.7125 8.06656 11.4631 8.18456 11.3377C8.24087 11.2779 8.3127 11.25 8.3842 11.25C8.4557 11.25 8.52753 11.2779 8.58383 11.3377L10.1725 13.0257L11.0366 13.9438V12.683V1.24815C11.0366 1.01885 11.1905 0.868556 11.3703 0.85011C11.5143 0.858693 11.6766 1.00172 11.6766 1.22093V12.6558Z" fill="#929CA6" stroke="#686262"/>
</svg>
