<?xml version="1.0" encoding="UTF-8"?>
<svg width="35" height="35" viewBox="0 0 35 35" fill="none" xmlns="http://www.w3.org/2000/svg">
<rect width="35" height="35" rx="12" fill="white"/>
<path d="M24.6569 17.2603C24.8094 17.1036 24.9169 16.9057 24.9675 16.6887C25.018 16.4718 25.0095 16.2444 24.9429 16.0323C24.8763 15.8201 24.7543 15.6315 24.5905 15.4877C24.4268 15.3439 24.2278 15.2506 24.016 15.2184L20.1451 14.6302C20.0637 14.6189 19.9863 14.5867 19.9197 14.5366C19.8532 14.4864 19.7996 14.4198 19.7638 14.3428L18.0302 10.6667C17.9355 10.4666 17.7889 10.2981 17.6071 10.1803C17.4254 10.0624 17.2156 10 17.0016 10C16.7876 10 16.5778 10.0624 16.3961 10.1803C16.2143 10.2981 16.0678 10.4666 15.973 10.6667L14.2394 14.3428C14.2036 14.4198 14.15 14.4864 14.0835 14.5366C14.0169 14.5867 13.9395 14.6189 13.8581 14.6302L9.98402 15.2184C9.7722 15.2506 9.57323 15.3439 9.40947 15.4877C9.24571 15.6315 9.12367 15.8201 9.05708 16.0323C8.99049 16.2444 8.98198 16.4718 9.03252 16.6887C9.08305 16.9057 9.19063 17.1036 9.34314 17.2603L12.147 20.1109C12.2059 20.1707 12.2501 20.2445 12.2758 20.3259C12.3015 20.4074 12.3078 20.4942 12.2944 20.5788L11.6311 24.589C11.5996 24.7621 11.606 24.9404 11.6498 25.1105C11.6937 25.2806 11.7738 25.4382 11.8842 25.5716C12.0531 25.7801 12.2848 25.9227 12.5415 25.9761C12.7982 26.0295 13.0646 25.9906 13.2973 25.8656L16.7613 23.9641C16.8346 23.9245 16.9159 23.9039 16.9984 23.9039C17.0809 23.9039 17.1622 23.9245 17.2355 23.9641L20.6995 25.8656C20.8648 25.9551 21.0483 26.0021 21.2346 26.0027C21.4027 26.0021 21.5687 25.9632 21.7209 25.8888C21.8731 25.8143 22.0079 25.706 22.1158 25.5716C22.2232 25.4391 22.3013 25.2836 22.3445 25.1161C22.3877 24.9486 22.395 24.7732 22.3657 24.6024L21.7024 20.5921C21.6881 20.5075 21.6941 20.4205 21.7198 20.3389C21.7455 20.2573 21.7902 20.1835 21.8498 20.1243L24.6569 17.2603Z" fill="#FFB428"/>
</svg>


