<svg width="18" height="18" viewBox="0 0 18 18" fill="none" xmlns="http://www.w3.org/2000/svg">
<path d="M15.3995 17.7156C14.7387 17.7156 14.2212 17.1981 14.2212 16.5372C14.2212 16.4358 14.2323 16.3416 14.255 16.2509L12.0222 14.0181H9.46694V15.5338C9.81475 15.7396 10.0358 16.1179 10.0358 16.5372C10.0358 17.1981 9.5183 17.7156 8.85746 17.7156C8.19662 17.7156 7.67913 17.1981 7.67913 16.5372C7.67913 16.1176 7.90017 15.7392 8.24798 15.5338V14.0181H5.69271L3.4599 16.2509C3.48298 16.3419 3.49371 16.4362 3.49371 16.5372C3.49371 17.1981 2.97622 17.7156 2.31538 17.7156C1.65454 17.7156 1.13705 17.1981 1.13705 16.5372C1.13705 15.8764 1.65454 15.3589 2.31538 15.3589C2.41679 15.3589 2.51106 15.37 2.60175 15.3927L4.83456 13.1599V9.46694H2.18178C1.97602 9.81475 1.59765 10.0358 1.17833 10.0358C0.51749 10.0358 0 9.5183 0 8.85746C0 8.19662 0.51749 7.67913 1.17833 7.67913C1.59765 7.67913 1.97634 7.90017 2.18178 8.24798H4.83521V4.55502L2.6024 2.32285C2.51139 2.34593 2.41712 2.35666 2.31603 2.35666C1.65519 2.35666 1.1377 1.83917 1.1377 1.17833C1.1377 0.51749 1.65519 0 2.31603 0C2.97687 0 3.49436 0.51749 3.49436 1.17833C3.49436 1.27975 3.4833 1.37401 3.46055 1.4647L5.69336 3.69752H8.24863V2.18178C7.90082 1.97602 7.67978 1.59765 7.67978 1.17833C7.67978 0.51749 8.19727 0 8.85811 0C9.51895 0 10.0364 0.51749 10.0364 1.17833C10.0364 1.59765 9.8154 1.97634 9.46759 2.18178V3.69752H10.813L11.4179 4.30245L14.2553 1.46503C14.2323 1.37401 14.2215 1.27975 14.2215 1.17865C14.2215 0.517815 14.739 0.000325056 15.3999 0.000325056C16.0607 0.000325056 16.5782 0.517815 16.5782 1.17865C16.5782 1.83949 16.0607 2.35698 15.3999 2.35698C15.2985 2.35698 15.2042 2.34593 15.1135 2.32318L12.2761 5.1606L12.881 5.76553V8.24863H15.8189C16.0246 7.90082 16.403 7.67978 16.8223 7.67978C17.4832 7.67978 18.0006 8.19727 18.0006 8.85811C18.0006 9.51895 17.4832 10.0364 16.8223 10.0364C16.4027 10.0364 16.0243 9.8154 15.8189 9.46759H12.881V13.1606L15.1138 15.3934C15.2048 15.3703 15.2991 15.3596 15.4002 15.3596C16.061 15.3596 16.5785 15.8771 16.5785 16.5379C16.5785 17.1987 16.061 17.7162 15.4002 17.7162L15.3995 17.7156ZM11.6614 12.7991V6.62302H9.95485V4.91648H6.05418V12.7991H11.6614Z" fill="#8999A6"/>
</svg>
