<svg width="16" height="16" viewBox="0 0 16 16" fill="none" xmlns="http://www.w3.org/2000/svg">
<path d="M8 0C3.58187 0 0 3.58187 0 8C0 12.4181 3.58187 16 8 16C12.4181 16 16 12.4184 16 8C16 3.58156 12.4184 0 8 0ZM4.80719 11.9419C4.70396 11.9417 4.60194 11.9196 4.50792 11.877C4.4139 11.8344 4.33003 11.7722 4.26188 11.6947L2.34906 9.51281C2.28557 9.44115 2.23681 9.35769 2.20559 9.26718C2.17436 9.17667 2.16128 9.0809 2.16708 8.98533C2.17289 8.88976 2.19747 8.79628 2.23942 8.71021C2.28136 8.62415 2.33986 8.5472 2.41156 8.48375C2.48322 8.42025 2.56669 8.3715 2.6572 8.34028C2.7477 8.30905 2.84348 8.29597 2.93904 8.30177C3.03461 8.30758 3.1281 8.33216 3.21416 8.3741C3.30022 8.41605 3.37718 8.47455 3.44063 8.54625L3.99344 9.17125V7.92125C3.9931 6.89821 4.39872 5.91683 5.12124 5.19255C5.84376 4.46827 6.82415 4.06028 7.84719 4.05813H8.17438C8.2699 4.05817 8.36447 4.07703 8.45271 4.11363C8.54094 4.15023 8.62109 4.20386 8.68859 4.27144C8.75609 4.33903 8.80962 4.41926 8.84611 4.50753C8.88259 4.59581 8.90133 4.69042 8.90125 4.78594C8.90117 4.97869 8.82456 5.16353 8.68826 5.29982C8.55196 5.43612 8.36713 5.51273 8.17438 5.51281H7.84719C7.21009 5.51447 6.59966 5.76871 6.14975 6.21979C5.69984 6.67087 5.44719 7.28197 5.44719 7.91906V9.375L6.17438 8.54594C6.30454 8.40028 6.48724 8.31229 6.68227 8.30133C6.87731 8.29037 7.06871 8.35734 7.21438 8.4875C7.36003 8.61767 7.44802 8.80036 7.45898 8.9954C7.46994 9.19043 7.40297 9.38184 7.27281 9.5275L5.35281 11.7094C5.2833 11.7843 5.19879 11.8438 5.10478 11.8839C5.01078 11.924 4.90938 11.9438 4.80719 11.9422V11.9419ZM13.5856 7.49813C13.4418 7.62614 13.2531 7.69191 13.0608 7.68102C12.8685 7.67012 12.6885 7.58345 12.56 7.44L12.0072 6.815V8.08C12.0072 9.10293 11.6013 10.0841 10.8787 10.8081C10.1561 11.5321 9.17575 11.9399 8.15281 11.9419H7.82562C7.7301 11.9419 7.63551 11.9231 7.54725 11.8866C7.45898 11.8501 7.37878 11.7965 7.31122 11.729C7.24367 11.6615 7.19007 11.5813 7.15351 11.493C7.11694 11.4048 7.09812 11.3102 7.09812 11.2147C7.09812 11.0217 7.17477 10.8367 7.3112 10.7003C7.44764 10.5638 7.63268 10.4872 7.82562 10.4872H8.15281C8.78991 10.4855 9.40034 10.2313 9.85025 9.78021C10.3002 9.32913 10.5528 8.71803 10.5528 8.08094V6.625L9.82562 7.45406C9.69537 7.5996 9.51267 7.68748 9.31766 7.69838C9.12265 7.70928 8.93128 7.64231 8.78563 7.51219C8.63997 7.38202 8.55198 7.19933 8.54102 7.00429C8.53006 6.80925 8.59703 6.61785 8.72719 6.47219L10.6472 4.29031C10.7748 4.14569 10.9546 4.05766 11.1471 4.04559C11.3396 4.03352 11.5291 4.09839 11.6737 4.22594C11.6966 4.24597 11.7181 4.26747 11.7381 4.29031L13.6509 6.47219C13.778 6.61693 13.8425 6.80614 13.8302 6.99834C13.818 7.19054 13.73 7.37005 13.5856 7.4975V7.49813Z" fill="black"/>
</svg>
