<svg width="18" height="18" viewBox="0 0 18 18" fill="none" xmlns="http://www.w3.org/2000/svg">
<path d="M8.25 3H3C2.60218 3 2.22064 3.15804 1.93934 3.43934C1.65804 3.72064 1.5 4.10218 1.5 4.5V15C1.5 15.3978 1.65804 15.7794 1.93934 16.0607C2.22064 16.342 2.60218 16.5 3 16.5H13.5C13.8978 16.5 14.2794 16.342 14.5607 16.0607C14.842 15.7794 15 15.3978 15 15V9.75" stroke="black" stroke-width="1.5" stroke-linecap="round" stroke-linejoin="round"/>
<path d="M16.75 1C16.75 0.585786 16.4142 0.25 16 0.25L9.25 0.249999C8.83579 0.249999 8.5 0.585786 8.5 0.999999C8.5 1.41421 8.83579 1.75 9.25 1.75H15.25V7.75C15.25 8.16421 15.5858 8.5 16 8.5C16.4142 8.5 16.75 8.16421 16.75 7.75L16.75 1ZM6.53033 11.5303L16.5303 1.53033L15.4697 0.469669L5.46967 10.4697L6.53033 11.5303Z" fill="black"/>
</svg>
